<svg width="708" height="445" viewBox="0 0 708 445" fill="none" xmlns="http://www.w3.org/2000/svg">
<path d="M467.195 126.874L486.367 107.783C486.694 107.462 486.953 107.08 487.13 106.659C487.307 106.238 487.398 105.786 487.398 105.33C487.398 104.874 487.307 104.422 487.13 104.001C486.953 103.58 486.694 103.198 486.367 102.877L467.195 83.7956C466.547 83.154 465.67 82.7938 464.757 82.7938C463.843 82.7938 462.966 83.154 462.318 83.7956L458.762 87.3373C458.44 87.6555 458.185 88.0338 458.011 88.4505C457.837 88.8672 457.747 89.3141 457.747 89.7654C457.747 90.2167 457.837 90.6636 458.011 91.0803C458.185 91.497 458.44 91.8753 458.762 92.1935L465.658 99.1198C465.677 99.1409 465.689 99.167 465.694 99.1949C465.698 99.2228 465.695 99.2514 465.683 99.2772C465.672 99.3031 465.653 99.3251 465.629 99.3407C465.606 99.3563 465.578 99.3648 465.55 99.3651H430.969C430.467 99.3668 429.978 99.5161 429.561 99.7944C429.145 100.073 428.82 100.467 428.629 100.929C428.437 101.39 428.387 101.898 428.484 102.388C428.581 102.878 428.822 103.328 429.176 103.682L433.57 108.048C434.586 109.065 435.794 109.872 437.125 110.422C438.456 110.973 439.882 111.256 441.323 111.256H465.55C465.578 111.256 465.606 111.264 465.629 111.28C465.653 111.296 465.672 111.318 465.683 111.344C465.695 111.369 465.698 111.398 465.694 111.426C465.689 111.454 465.677 111.48 465.658 111.501L458.762 118.417C458.44 118.736 458.185 119.114 458.011 119.531C457.837 119.947 457.747 120.394 457.747 120.846C457.747 121.297 457.837 121.744 458.011 122.16C458.185 122.577 458.44 122.955 458.762 123.274L462.318 126.825C462.966 127.467 463.843 127.827 464.757 127.827C465.67 127.827 466.547 127.467 467.195 126.825" fill="#FCD836"/>
<path d="M305.228 242.032L323.947 223.391C324.576 222.764 324.93 221.914 324.93 221.027C324.93 220.14 324.576 219.29 323.947 218.663L305.228 200.022C304.917 199.709 304.546 199.461 304.138 199.291C303.729 199.122 303.291 199.035 302.849 199.035C302.406 199.035 301.968 199.122 301.56 199.291C301.151 199.461 300.781 199.709 300.469 200.022L296.992 203.485C296.362 204.113 296.009 204.963 296.009 205.85C296.009 206.737 296.362 207.587 296.992 208.214L303.77 214.964C303.789 214.985 303.801 215.011 303.806 215.039C303.81 215.067 303.806 215.095 303.795 215.121C303.784 215.147 303.765 215.169 303.741 215.185C303.718 215.2 303.69 215.209 303.662 215.209H269.958C269.469 215.209 268.991 215.353 268.585 215.623C268.179 215.893 267.862 216.277 267.674 216.726C267.486 217.175 267.437 217.67 267.531 218.147C267.625 218.624 267.859 219.063 268.204 219.408L272.48 223.676C273.475 224.666 274.656 225.452 275.956 225.987C277.256 226.522 278.649 226.797 280.056 226.796H303.701C303.729 226.796 303.757 226.804 303.781 226.82C303.804 226.836 303.823 226.858 303.834 226.883C303.846 226.909 303.85 226.938 303.845 226.966C303.841 226.994 303.828 227.02 303.809 227.041L297.031 233.781C296.401 234.41 296.047 235.262 296.047 236.15C296.047 237.038 296.401 237.89 297.031 238.519L300.509 241.973C301.131 242.596 301.974 242.951 302.856 242.962C303.739 242.973 304.59 242.639 305.228 242.032V242.032Z" stroke="#919B9C" stroke-width="1.85" stroke-miterlimit="10"/>
<path d="M408.478 152.362L425.561 135.36C426.135 134.785 426.456 134.008 426.456 133.197C426.456 132.387 426.135 131.609 425.561 131.034L408.478 114.042C408.194 113.757 407.856 113.531 407.484 113.377C407.112 113.223 406.713 113.143 406.31 113.143C405.907 113.143 405.508 113.223 405.136 113.377C404.764 113.531 404.427 113.757 404.143 114.042L400.961 117.191C400.674 117.475 400.447 117.812 400.292 118.183C400.137 118.554 400.057 118.952 400.057 119.354C400.057 119.756 400.137 120.154 400.292 120.526C400.447 120.897 400.674 121.234 400.961 121.518L407.158 127.679C407.174 127.698 407.185 127.722 407.189 127.747C407.192 127.773 407.189 127.798 407.179 127.822C407.168 127.845 407.152 127.865 407.131 127.88C407.11 127.895 407.085 127.903 407.059 127.904H376.252C375.805 127.904 375.369 128.036 374.998 128.282C374.626 128.529 374.337 128.88 374.166 129.291C373.995 129.702 373.95 130.154 374.038 130.59C374.125 131.026 374.34 131.426 374.656 131.74L378.597 135.664C380.426 137.486 382.906 138.512 385.493 138.519H407.069C407.097 138.519 407.124 138.527 407.147 138.542C407.17 138.557 407.188 138.579 407.198 138.604C407.209 138.629 407.212 138.657 407.206 138.684C407.201 138.711 407.187 138.736 407.168 138.755L400.961 144.906C400.675 145.189 400.448 145.525 400.293 145.895C400.138 146.266 400.058 146.663 400.058 147.064C400.058 147.466 400.138 147.863 400.293 148.233C400.448 148.604 400.675 148.94 400.961 149.223L404.143 152.382C404.427 152.668 404.765 152.894 405.138 153.048C405.511 153.202 405.911 153.281 406.315 153.279C406.718 153.277 407.118 153.195 407.489 153.038C407.86 152.88 408.197 152.651 408.478 152.362V152.362Z" stroke="#919B9C" stroke-width="1.85" stroke-miterlimit="10"/>
<path d="M344.981 192.684L370.291 167.471C370.714 167.05 371.05 166.551 371.279 166.002C371.509 165.452 371.627 164.863 371.627 164.267C371.627 163.672 371.509 163.083 371.279 162.533C371.05 161.984 370.714 161.484 370.291 161.064L344.981 135.88C344.128 135.031 342.971 134.555 341.764 134.555C340.558 134.555 339.401 135.031 338.548 135.88L333.848 140.57C333.424 140.988 333.087 141.487 332.858 142.036C332.628 142.585 332.51 143.173 332.51 143.768C332.51 144.363 332.628 144.952 332.858 145.501C333.087 146.05 333.424 146.548 333.848 146.966L343.021 156.12C343.046 156.146 343.062 156.18 343.069 156.216C343.075 156.252 343.07 156.289 343.056 156.322C343.041 156.355 343.017 156.384 342.986 156.404C342.955 156.423 342.919 156.434 342.883 156.434H297.228C296.565 156.436 295.917 156.634 295.367 157.002C294.816 157.371 294.387 157.893 294.135 158.504C293.882 159.114 293.816 159.786 293.946 160.433C294.076 161.081 294.395 161.676 294.864 162.143L300.657 167.902C302.001 169.243 303.599 170.307 305.357 171.033C307.115 171.758 309 172.131 310.903 172.131H342.883C342.921 172.131 342.959 172.143 342.991 172.165C343.023 172.186 343.047 172.217 343.062 172.252C343.077 172.288 343.081 172.327 343.073 172.364C343.066 172.402 343.048 172.437 343.021 172.464L333.848 181.598C333.425 182.018 333.089 182.517 332.86 183.067C332.631 183.617 332.513 184.206 332.513 184.801C332.513 185.396 332.631 185.986 332.86 186.535C333.089 187.085 333.425 187.584 333.848 188.004L338.548 192.684C338.97 193.106 339.471 193.44 340.023 193.668C340.575 193.896 341.167 194.014 341.764 194.014C342.362 194.014 342.954 193.896 343.506 193.668C344.058 193.44 344.559 193.106 344.981 192.684" fill="#DA1C5C"/>
<path d="M308.361 288.024L320.302 276.143C320.704 275.741 320.93 275.196 320.93 274.627C320.93 274.059 320.704 273.514 320.302 273.112L308.361 261.221C307.959 260.821 307.413 260.596 306.844 260.596C306.275 260.596 305.729 260.821 305.327 261.221L303.11 263.438C302.911 263.636 302.754 263.871 302.646 264.129C302.539 264.388 302.483 264.665 302.483 264.944C302.483 265.224 302.539 265.501 302.646 265.759C302.754 266.018 302.911 266.253 303.11 266.45L307.435 270.767C307.45 270.779 307.46 270.795 307.465 270.812C307.47 270.83 307.469 270.849 307.463 270.867C307.456 270.884 307.444 270.899 307.429 270.909C307.413 270.92 307.395 270.925 307.376 270.924H285.83C285.517 270.924 285.212 271.017 284.952 271.191C284.693 271.365 284.491 271.612 284.373 271.9C284.255 272.188 284.225 272.504 284.288 272.809C284.351 273.114 284.503 273.394 284.726 273.612L287.455 276.33C288.091 276.956 288.844 277.452 289.673 277.789C290.501 278.126 291.388 278.297 292.283 278.292H307.376C307.395 278.291 307.413 278.296 307.429 278.306C307.444 278.317 307.456 278.332 307.463 278.349C307.469 278.366 307.47 278.385 307.465 278.403C307.46 278.421 307.45 278.437 307.435 278.449L303.11 282.756C302.708 283.158 302.482 283.703 302.482 284.271C302.482 284.839 302.708 285.384 303.11 285.787L305.327 287.994C305.729 288.395 306.275 288.619 306.844 288.619C307.413 288.619 307.959 288.395 308.361 287.994" fill="#DA1C5C"/>
<path d="M452.605 180.686L464.536 168.805C464.738 168.607 464.898 168.371 465.007 168.111C465.117 167.85 465.173 167.571 465.173 167.289C465.173 167.007 465.117 166.728 465.007 166.468C464.898 166.207 464.738 165.971 464.536 165.773L452.605 153.883C452.201 153.482 451.654 153.257 451.083 153.257C450.513 153.257 449.966 153.482 449.561 153.883L447.344 156.1C446.943 156.501 446.717 157.044 446.717 157.611C446.717 158.177 446.943 158.721 447.344 159.122L451.67 163.438C451.681 163.451 451.688 163.466 451.691 163.482C451.694 163.498 451.692 163.515 451.686 163.53C451.68 163.546 451.67 163.559 451.656 163.569C451.643 163.579 451.627 163.584 451.61 163.586H430.054C429.743 163.586 429.438 163.678 429.18 163.851C428.921 164.024 428.719 164.268 428.6 164.555C428.481 164.841 428.45 165.157 428.511 165.461C428.571 165.765 428.721 166.044 428.941 166.264L431.68 168.991C432.965 170.256 434.701 170.961 436.507 170.953H451.62C451.637 170.955 451.653 170.961 451.666 170.97C451.679 170.98 451.69 170.993 451.696 171.009C451.702 171.024 451.704 171.041 451.701 171.057C451.698 171.073 451.69 171.088 451.679 171.101L447.354 175.407C446.952 175.81 446.726 176.355 446.726 176.923C446.726 177.491 446.952 178.036 447.354 178.439L449.571 180.646C449.77 180.847 450.007 181.007 450.268 181.115C450.53 181.224 450.81 181.28 451.093 181.28C451.376 181.28 451.657 181.224 451.918 181.115C452.179 181.007 452.416 180.847 452.615 180.646" fill="#DA1C5C"/>
<path d="M104.738 386.248L117.388 373.661C117.813 373.236 118.051 372.661 118.051 372.062C118.051 371.463 117.813 370.888 117.388 370.463L104.738 357.876C104.311 357.453 103.734 357.215 103.132 357.215C102.53 357.215 101.953 357.453 101.526 357.876L99.1715 360.211C98.7508 360.64 98.5153 361.215 98.5153 361.815C98.5153 362.414 98.7508 362.99 99.1715 363.419L103.763 367.981C103.777 367.995 103.786 368.013 103.79 368.033C103.793 368.053 103.79 368.073 103.782 368.092C103.773 368.11 103.759 368.125 103.742 368.135C103.724 368.145 103.704 368.149 103.684 368.148H80.886C80.5544 368.144 80.2292 368.238 79.9521 368.42C79.6749 368.601 79.4584 368.861 79.3304 369.165C79.2023 369.47 79.1685 369.805 79.2332 370.129C79.298 370.453 79.4584 370.75 79.6939 370.983L82.5904 373.867C83.9485 375.222 85.7912 375.984 87.7135 375.986H103.684C103.704 375.984 103.724 375.989 103.742 375.999C103.759 376.009 103.773 376.024 103.782 376.042C103.79 376.06 103.793 376.081 103.79 376.101C103.786 376.12 103.777 376.139 103.763 376.153L99.1715 380.715C98.7497 381.139 98.5131 381.712 98.5131 382.309C98.5131 382.906 98.7497 383.479 99.1715 383.903L101.526 386.248C101.736 386.46 101.986 386.628 102.262 386.743C102.537 386.858 102.833 386.917 103.132 386.917C103.431 386.917 103.727 386.858 104.002 386.743C104.278 386.628 104.528 386.46 104.738 386.248" fill="#919B9C"/>
<path d="M110.244 442.954L130.096 423.175C130.428 422.847 130.692 422.457 130.872 422.026C131.052 421.596 131.144 421.135 131.144 420.669C131.144 420.203 131.052 419.741 130.872 419.311C130.692 418.881 130.428 418.491 130.096 418.162L110.244 398.384C109.574 397.72 108.668 397.348 107.722 397.348C106.777 397.348 105.87 397.72 105.2 398.384L101.496 402.053C100.829 402.722 100.454 403.627 100.454 404.57C100.454 405.512 100.829 406.417 101.496 407.086L108.698 414.258C108.72 414.278 108.735 414.305 108.742 414.335C108.748 414.364 108.745 414.395 108.734 414.423C108.722 414.451 108.701 414.475 108.676 414.491C108.65 414.507 108.62 414.514 108.589 414.513H72.777C72.257 414.514 71.749 414.668 71.3172 414.957C70.8854 415.245 70.5491 415.655 70.3509 416.134C70.1527 416.612 70.1014 417.139 70.2036 417.647C70.3057 418.154 70.5567 418.621 70.9248 418.986L75.4666 423.529C77.6006 425.649 80.4912 426.841 83.5059 426.845H108.589C108.62 426.843 108.65 426.851 108.676 426.867C108.701 426.883 108.722 426.906 108.734 426.934C108.745 426.962 108.748 426.993 108.742 427.023C108.735 427.052 108.72 427.079 108.698 427.1L101.496 434.271C100.83 434.937 100.456 435.838 100.456 436.778C100.456 437.718 100.83 438.619 101.496 439.285L105.2 442.973C105.873 443.635 106.781 444.004 107.726 444C108.672 443.996 109.577 443.62 110.244 442.954Z" stroke="#919B9C" stroke-width="1.85" stroke-miterlimit="10"/>
<path d="M407.334 220.321L422.063 205.664C422.309 205.42 422.505 205.13 422.638 204.811C422.772 204.492 422.841 204.15 422.841 203.804C422.841 203.459 422.772 203.117 422.638 202.798C422.505 202.478 422.309 202.189 422.063 201.945L407.334 187.288C406.837 186.795 406.164 186.517 405.462 186.517C404.761 186.517 404.087 186.795 403.59 187.288L400.861 190.035C400.615 190.279 400.42 190.568 400.286 190.887C400.153 191.206 400.084 191.549 400.084 191.894C400.084 192.24 400.153 192.582 400.286 192.901C400.42 193.22 400.615 193.51 400.861 193.753L406.191 199.071C406.208 199.086 406.219 199.106 406.223 199.127C406.228 199.149 406.226 199.171 406.217 199.191C406.208 199.212 406.194 199.229 406.175 199.241C406.157 199.252 406.135 199.258 406.113 199.257H379.571C379.191 199.268 378.823 199.388 378.51 199.602C378.197 199.816 377.953 200.116 377.807 200.466C377.661 200.815 377.62 201.199 377.688 201.571C377.757 201.943 377.931 202.288 378.192 202.563L381.561 205.928C382.344 206.709 383.273 207.328 384.295 207.751C385.318 208.173 386.414 208.391 387.522 208.391H406.113C406.135 208.39 406.157 208.396 406.175 208.408C406.194 208.419 406.208 208.437 406.217 208.457C406.226 208.477 406.228 208.5 406.223 208.521C406.219 208.543 406.208 208.562 406.191 208.577L400.861 213.885C400.366 214.38 400.087 215.05 400.087 215.749C400.087 216.448 400.366 217.118 400.861 217.613L403.59 220.34C404.087 220.834 404.761 221.111 405.462 221.111C406.164 221.111 406.837 220.834 407.334 220.34" fill="#80ADD0"/>
<path d="M375.925 271.689L392.989 254.697C393.562 254.122 393.884 253.344 393.884 252.534C393.884 251.723 393.562 250.946 392.989 250.371L375.925 233.388C375.347 232.817 374.567 232.497 373.753 232.497C372.939 232.497 372.158 232.817 371.58 233.388L368.408 236.547C367.835 237.121 367.514 237.897 367.514 238.706C367.514 239.515 367.835 240.291 368.408 240.864L374.595 247.025C374.611 247.044 374.622 247.067 374.626 247.092C374.63 247.116 374.628 247.141 374.619 247.165C374.61 247.188 374.594 247.208 374.574 247.223C374.555 247.238 374.531 247.248 374.506 247.251H343.719C343.273 247.25 342.837 247.381 342.466 247.627C342.096 247.873 341.807 248.224 341.637 248.634C341.467 249.044 341.423 249.496 341.511 249.931C341.6 250.366 341.816 250.765 342.132 251.077L346.073 255.001C347.902 256.825 350.382 257.851 352.97 257.856H374.536C374.561 257.859 374.584 257.869 374.604 257.884C374.624 257.899 374.639 257.919 374.648 257.943C374.657 257.966 374.66 257.991 374.656 258.015C374.652 258.04 374.641 258.063 374.625 258.082L368.437 264.233C367.864 264.808 367.542 265.586 367.542 266.396C367.542 267.207 367.864 267.984 368.437 268.56L371.61 271.719C372.187 272.29 372.968 272.61 373.782 272.61C374.596 272.61 375.377 272.29 375.955 271.719" fill="#919B9C"/>
<path d="M501.864 214.444L516.642 199.846C517.138 199.351 517.416 198.681 517.416 197.982C517.416 197.283 517.138 196.612 516.642 196.118L501.864 181.411C501.366 180.92 500.693 180.645 499.992 180.645C499.291 180.645 498.619 180.92 498.12 181.411L495.411 184.149C495.165 184.392 494.969 184.682 494.836 185.001C494.702 185.32 494.634 185.662 494.634 186.008C494.634 186.353 494.702 186.696 494.836 187.015C494.969 187.334 495.165 187.623 495.411 187.867L500.751 193.184C500.766 193.201 500.776 193.221 500.779 193.242C500.783 193.264 500.781 193.286 500.773 193.307C500.765 193.327 500.751 193.345 500.733 193.358C500.715 193.371 500.694 193.379 500.672 193.381H474.121C473.743 193.393 473.377 193.513 473.066 193.727C472.755 193.941 472.512 194.239 472.366 194.587C472.221 194.934 472.179 195.316 472.246 195.687C472.312 196.057 472.484 196.401 472.741 196.677L476.121 200.042C477.689 201.605 479.813 202.49 482.032 202.504H500.633C500.655 202.503 500.677 202.509 500.695 202.521C500.714 202.533 500.729 202.55 500.737 202.57C500.746 202.591 500.748 202.613 500.743 202.635C500.739 202.656 500.728 202.676 500.712 202.691L495.372 207.998C494.876 208.493 494.598 209.163 494.598 209.862C494.598 210.561 494.876 211.232 495.372 211.726L498.111 214.454C498.607 214.947 499.281 215.225 499.983 215.225C500.684 215.225 501.358 214.947 501.854 214.454" fill="#79C4AE"/>
<path d="M287.089 359.22L309.64 336.763C310.017 336.39 310.316 335.945 310.52 335.456C310.724 334.967 310.829 334.443 310.829 333.913C310.829 333.384 310.724 332.859 310.52 332.37C310.316 331.881 310.017 331.437 309.64 331.063L287.089 308.597C286.713 308.221 286.266 307.923 285.774 307.72C285.282 307.517 284.755 307.412 284.222 307.412C283.689 307.412 283.162 307.517 282.67 307.72C282.178 307.923 281.731 308.221 281.355 308.597L277.158 312.776C276.401 313.535 275.977 314.561 275.977 315.631C275.977 316.701 276.401 317.727 277.158 318.486L285.335 326.619C285.361 326.644 285.379 326.676 285.386 326.711C285.394 326.746 285.39 326.782 285.376 326.815C285.362 326.848 285.339 326.876 285.309 326.895C285.278 326.915 285.243 326.924 285.207 326.923H244.548C243.951 326.907 243.363 327.072 242.862 327.396C242.361 327.719 241.97 328.186 241.74 328.735C241.511 329.284 241.454 329.89 241.577 330.472C241.7 331.054 241.997 331.585 242.43 331.995L247.592 337.136C250.021 339.544 253.307 340.898 256.735 340.903H285.227C285.261 340.904 285.294 340.915 285.322 340.933C285.35 340.952 285.372 340.979 285.386 341.01C285.399 341.041 285.403 341.075 285.398 341.108C285.393 341.141 285.378 341.173 285.355 341.198L277.178 349.34C276.421 350.1 275.996 351.126 275.996 352.195C275.996 353.265 276.421 354.291 277.178 355.05L281.375 359.22C282.134 359.972 283.161 360.395 284.232 360.395C285.303 360.395 286.33 359.972 287.089 359.22V359.22Z" stroke="#919B9C" stroke-width="1.85" stroke-miterlimit="10"/>
<path d="M172.077 410.549L190.727 391.968C191.038 391.658 191.285 391.29 191.454 390.885C191.622 390.48 191.709 390.046 191.709 389.608C191.709 389.17 191.622 388.736 191.454 388.331C191.285 387.926 191.038 387.559 190.727 387.249L172.077 368.667C171.447 368.041 170.593 367.689 169.703 367.689C168.812 367.689 167.958 368.041 167.328 368.667L163.86 372.121C163.231 372.748 162.878 373.598 162.878 374.485C162.878 375.372 163.231 376.222 163.86 376.849L170.629 383.58C170.648 383.601 170.66 383.627 170.665 383.655C170.669 383.682 170.665 383.711 170.654 383.737C170.643 383.763 170.624 383.785 170.6 383.8C170.577 383.816 170.549 383.825 170.52 383.825H136.866C136.377 383.825 135.9 383.969 135.493 384.239C135.087 384.509 134.77 384.893 134.582 385.342C134.395 385.791 134.345 386.285 134.439 386.763C134.533 387.24 134.768 387.679 135.112 388.024L139.388 392.282C141.393 394.275 144.111 395.393 146.944 395.392H170.52C170.549 395.392 170.577 395.4 170.6 395.416C170.624 395.432 170.643 395.454 170.654 395.48C170.665 395.505 170.669 395.534 170.665 395.562C170.66 395.59 170.648 395.616 170.629 395.637L163.86 402.367C163.231 402.994 162.878 403.845 162.878 404.731C162.878 405.618 163.231 406.468 163.86 407.096L167.328 410.549C167.958 411.176 168.812 411.528 169.703 411.528C170.593 411.528 171.447 411.176 172.077 410.549Z" fill="#80ADD0"/>
<path d="M244.912 308.999L262.784 291.212C263.082 290.916 263.318 290.565 263.479 290.177C263.64 289.79 263.723 289.375 263.723 288.956C263.723 288.537 263.64 288.122 263.479 287.735C263.318 287.347 263.082 286.996 262.784 286.7L244.912 268.903C244.615 268.606 244.262 268.371 243.873 268.21C243.484 268.05 243.067 267.967 242.646 267.967C242.225 267.967 241.808 268.05 241.42 268.21C241.031 268.371 240.678 268.606 240.38 268.903L237.05 272.209C236.45 272.812 236.113 273.626 236.113 274.475C236.113 275.324 236.45 276.139 237.05 276.742L243.523 283.178C243.541 283.198 243.554 283.223 243.559 283.25C243.564 283.277 243.561 283.305 243.55 283.331C243.54 283.356 243.523 283.378 243.501 283.395C243.478 283.411 243.452 283.421 243.424 283.423H211.228C210.76 283.421 210.302 283.558 209.913 283.816C209.524 284.074 209.22 284.442 209.042 284.872C208.863 285.303 208.817 285.776 208.91 286.233C209.003 286.689 209.23 287.108 209.563 287.435L213.651 291.507C215.576 293.402 218.176 294.46 220.883 294.45H243.454C243.482 294.45 243.509 294.457 243.532 294.472C243.555 294.488 243.573 294.509 243.583 294.534C243.594 294.56 243.597 294.588 243.591 294.615C243.586 294.642 243.572 294.666 243.553 294.685L237.08 301.131C236.48 301.732 236.143 302.545 236.143 303.392C236.143 304.24 236.48 305.053 237.08 305.654L240.41 308.96C240.706 309.258 241.059 309.494 241.448 309.655C241.837 309.817 242.254 309.9 242.676 309.9C243.097 309.9 243.514 309.817 243.903 309.655C244.292 309.494 244.645 309.258 244.942 308.96" fill="#79C4AE"/>
<path d="M234.36 387.484L248.104 373.749C248.333 373.522 248.515 373.251 248.64 372.953C248.764 372.655 248.828 372.336 248.828 372.013C248.828 371.69 248.764 371.371 248.64 371.073C248.515 370.775 248.333 370.504 248.104 370.276L234.36 356.591C234.132 356.362 233.86 356.181 233.561 356.057C233.261 355.934 232.941 355.87 232.617 355.87C232.293 355.87 231.972 355.934 231.673 356.057C231.373 356.181 231.102 356.362 230.873 356.591L228.321 359.141C228.089 359.368 227.905 359.638 227.78 359.936C227.654 360.234 227.589 360.554 227.589 360.878C227.589 361.201 227.654 361.521 227.78 361.819C227.905 362.118 228.089 362.388 228.321 362.614L233.247 367.52C233.263 367.535 233.274 367.554 233.279 367.576C233.283 367.597 233.281 367.62 233.273 367.64C233.264 367.66 233.25 367.678 233.231 367.689C233.212 367.701 233.19 367.707 233.168 367.706H208.43C208.072 367.709 207.722 367.817 207.425 368.017C207.129 368.217 206.898 368.499 206.761 368.829C206.624 369.158 206.588 369.521 206.657 369.871C206.726 370.221 206.897 370.543 207.149 370.796L210.292 373.936C211.77 375.401 213.772 376.223 215.858 376.222H233.218C233.238 376.223 233.257 376.229 233.274 376.24C233.291 376.252 233.304 376.267 233.312 376.286C233.32 376.304 233.323 376.324 233.32 376.344C233.318 376.364 233.309 376.383 233.296 376.398L228.37 381.372C228.139 381.598 227.955 381.867 227.829 382.165C227.704 382.462 227.639 382.781 227.639 383.104C227.639 383.426 227.704 383.746 227.829 384.043C227.955 384.34 228.139 384.61 228.37 384.835L230.922 387.386C231.151 387.615 231.423 387.796 231.722 387.919C232.021 388.043 232.342 388.107 232.666 388.107C232.99 388.107 233.311 388.043 233.61 387.919C233.909 387.796 234.181 387.615 234.41 387.386" fill="#DA1C5C"/>
<path d="M188.294 349.723L202.363 335.694C202.598 335.46 202.786 335.181 202.913 334.875C203.041 334.569 203.107 334.24 203.107 333.908C203.107 333.577 203.041 333.248 202.913 332.942C202.786 332.635 202.598 332.357 202.363 332.123L188.284 318.103C187.808 317.631 187.163 317.366 186.491 317.366C185.819 317.366 185.174 317.631 184.698 318.103L182.077 320.713C181.604 321.186 181.338 321.826 181.338 322.494C181.338 323.161 181.604 323.802 182.077 324.274L187.19 329.366C187.203 329.381 187.211 329.4 187.214 329.42C187.217 329.44 187.214 329.46 187.206 329.479C187.198 329.497 187.185 329.513 187.168 329.524C187.151 329.535 187.132 329.542 187.112 329.543H161.693C161.325 329.543 160.965 329.652 160.659 329.857C160.353 330.061 160.115 330.351 159.974 330.691C159.834 331.03 159.798 331.403 159.871 331.763C159.943 332.123 160.122 332.453 160.383 332.711L163.605 335.929C165.12 337.431 167.171 338.274 169.309 338.274H187.112C187.132 338.277 187.151 338.285 187.167 338.297C187.183 338.31 187.196 338.326 187.204 338.345C187.212 338.364 187.215 338.384 187.213 338.404C187.21 338.425 187.203 338.444 187.19 338.46L182.077 343.542C181.604 344.015 181.338 344.655 181.338 345.323C181.338 345.991 181.604 346.631 182.077 347.104L184.698 349.723C185.174 350.195 185.819 350.46 186.491 350.46C187.163 350.46 187.808 350.195 188.284 349.723" fill="#FCD836"/>
<path d="M545.775 161.584L571.026 136.44C571.45 136.021 571.787 135.523 572.017 134.974C572.247 134.425 572.365 133.836 572.365 133.241C572.365 132.647 572.247 132.058 572.017 131.509C571.787 130.96 571.45 130.462 571.026 130.043L545.775 104.898C545.354 104.479 544.855 104.146 544.304 103.918C543.754 103.691 543.164 103.574 542.569 103.574C541.973 103.574 541.383 103.691 540.833 103.918C540.282 104.146 539.783 104.479 539.362 104.898L534.662 109.588C534.241 110.007 533.906 110.505 533.678 111.053C533.45 111.601 533.333 112.188 533.333 112.781C533.333 113.374 533.45 113.962 533.678 114.51C533.906 115.058 534.241 115.555 534.662 115.975L543.815 125.089C543.842 125.116 543.86 125.151 543.868 125.188C543.875 125.226 543.871 125.265 543.856 125.301C543.842 125.336 543.817 125.367 543.785 125.388C543.753 125.41 543.715 125.422 543.677 125.422H498.121C497.46 125.423 496.815 125.619 496.266 125.985C495.717 126.351 495.29 126.871 495.038 127.479C494.786 128.087 494.72 128.756 494.85 129.401C494.98 130.046 495.299 130.638 495.766 131.103L501.54 136.861C504.269 139.525 507.945 141.006 511.766 140.982H543.677C543.715 140.982 543.753 140.994 543.785 141.016C543.817 141.037 543.842 141.068 543.856 141.103C543.871 141.139 543.875 141.178 543.868 141.216C543.86 141.253 543.842 141.288 543.815 141.315L534.662 150.43C534.24 150.849 533.906 151.348 533.678 151.897C533.449 152.446 533.332 153.034 533.332 153.628C533.332 154.222 533.449 154.81 533.678 155.359C533.906 155.907 534.24 156.406 534.662 156.826L539.362 161.506C539.777 161.931 540.273 162.27 540.821 162.504C541.368 162.738 541.956 162.862 542.552 162.869C543.148 162.876 543.739 162.767 544.292 162.546C544.845 162.326 545.349 161.999 545.775 161.584V161.584Z" stroke="#919B9C" stroke-width="1.85" stroke-miterlimit="10"/>
<path d="M553.608 83.874L580.701 56.8947C581.603 55.9778 582.109 54.745 582.109 53.461C582.109 52.177 581.603 50.9442 580.701 50.0273L553.608 23.048C552.687 22.1492 551.449 21.6458 550.159 21.6458C548.87 21.6458 547.632 22.1492 546.711 23.048L541.677 28.071C541.223 28.5213 540.863 29.0564 540.617 29.6457C540.371 30.2349 540.245 30.8667 540.245 31.5048C540.245 32.1428 540.371 32.7746 540.617 33.3638C540.863 33.9531 541.223 34.4882 541.677 34.9385L551.529 44.7491C551.558 44.7798 551.577 44.8182 551.584 44.8596C551.591 44.9009 551.586 44.9434 551.569 44.9819C551.553 45.0205 551.525 45.0533 551.49 45.0764C551.455 45.0996 551.413 45.1119 551.371 45.1121H502.466C501.755 45.1089 501.06 45.3164 500.469 45.7081C499.877 46.0998 499.416 46.658 499.145 47.3116C498.873 47.9651 498.803 48.6844 498.944 49.3777C499.084 50.071 499.429 50.707 499.934 51.2045L506.131 57.3853C509.044 60.2799 512.99 61.9063 517.106 61.908H551.342C551.384 61.9081 551.425 61.9206 551.46 61.9437C551.495 61.9668 551.523 61.9996 551.54 62.0381C551.556 62.0767 551.562 62.1192 551.554 62.1605C551.547 62.2019 551.528 62.2402 551.499 62.2709L541.647 72.0816C541.193 72.5319 540.833 73.067 540.587 73.6562C540.341 74.2455 540.215 74.8773 540.215 75.5153C540.215 76.1534 540.341 76.7852 540.587 77.3744C540.833 77.9636 541.193 78.4988 541.647 78.9491L546.682 83.9721C547.134 84.4242 547.671 84.7829 548.263 85.0276C548.855 85.2724 549.489 85.3984 550.13 85.3984C550.771 85.3984 551.405 85.2724 551.997 85.0276C552.589 84.7829 553.126 84.4242 553.578 83.9721" fill="#80ADD0"/>
<path d="M621.794 124.52L638.868 107.518C639.441 106.944 639.762 106.168 639.762 105.359C639.762 104.55 639.441 103.775 638.868 103.201L621.794 86.1991C621.51 85.9141 621.171 85.6879 620.798 85.5335C620.425 85.3792 620.026 85.2997 619.622 85.2997C619.218 85.2997 618.818 85.3792 618.446 85.5335C618.073 85.6879 617.734 85.9141 617.45 86.1991L614.267 89.3483C613.694 89.9235 613.372 90.7012 613.372 91.5116C613.372 92.3221 613.694 93.0996 614.267 93.6748L620.464 99.8359C620.481 99.8555 620.492 99.8793 620.495 99.9046C620.499 99.9299 620.495 99.9557 620.485 99.9792C620.475 100.003 620.458 100.023 620.437 100.037C620.416 100.052 620.391 100.06 620.366 100.062H589.548C589.102 100.064 588.666 100.198 588.296 100.446C587.926 100.694 587.637 101.045 587.467 101.456C587.296 101.867 587.251 102.319 587.338 102.755C587.424 103.191 587.638 103.592 587.952 103.907L591.893 107.832C592.798 108.735 593.873 109.453 595.056 109.942C596.24 110.432 597.508 110.685 598.79 110.687H620.366C620.391 110.688 620.416 110.696 620.437 110.711C620.458 110.725 620.475 110.745 620.485 110.769C620.495 110.792 620.499 110.818 620.495 110.844C620.492 110.869 620.481 110.893 620.464 110.912L614.267 117.073C613.694 117.648 613.372 118.426 613.372 119.236C613.372 120.047 613.694 120.825 614.267 121.4L617.45 124.559C617.737 124.841 618.077 125.064 618.452 125.215C618.826 125.366 619.226 125.442 619.63 125.439C620.034 125.435 620.433 125.352 620.804 125.194C621.176 125.036 621.512 124.807 621.794 124.52V124.52Z" stroke="#919B9C" stroke-width="1.85" stroke-miterlimit="10"/>
<path d="M613.124 209.048L638.424 183.845C638.847 183.424 639.183 182.925 639.412 182.376C639.642 181.826 639.759 181.237 639.759 180.641C639.759 180.046 639.642 179.457 639.412 178.907C639.183 178.358 638.847 177.858 638.424 177.438L613.124 152.245C612.702 151.823 612.201 151.489 611.649 151.26C611.097 151.032 610.505 150.915 609.907 150.915C609.31 150.915 608.718 151.032 608.166 151.26C607.614 151.489 607.112 151.823 606.691 152.245L601.991 156.924C601.568 157.344 601.232 157.844 601.003 158.393C600.774 158.943 600.656 159.532 600.656 160.127C600.656 160.723 600.774 161.312 601.003 161.861C601.232 162.411 601.568 162.91 601.991 163.331L611.163 172.464C611.19 172.492 611.209 172.526 611.216 172.564C611.223 172.602 611.22 172.641 611.205 172.676C611.19 172.712 611.165 172.742 611.133 172.764C611.102 172.785 611.064 172.797 611.025 172.798H565.371C564.708 172.797 564.059 172.993 563.508 173.36C562.956 173.728 562.527 174.249 562.273 174.86C562.02 175.47 561.954 176.142 562.085 176.79C562.216 177.437 562.536 178.032 563.006 178.498L568.799 184.257C570.144 185.598 571.741 186.661 573.5 187.387C575.258 188.113 577.142 188.486 579.046 188.485H611.025C611.064 188.486 611.102 188.497 611.133 188.519C611.165 188.541 611.19 188.571 611.205 188.607C611.22 188.642 611.223 188.681 611.216 188.719C611.209 188.756 611.19 188.791 611.163 188.819L601.991 197.943C601.567 198.364 601.231 198.864 601.002 199.414C600.773 199.965 600.655 200.555 600.655 201.151C600.655 201.747 600.773 202.337 601.002 202.887C601.231 203.438 601.567 203.938 601.991 204.359L606.691 209.048C607.547 209.892 608.702 210.366 609.907 210.366C611.112 210.366 612.268 209.892 613.124 209.048" fill="#DA1C5C"/>
<path d="M663.883 152.853L675.814 140.982C676.216 140.579 676.442 140.034 676.442 139.466C676.442 138.898 676.216 138.353 675.814 137.95L663.883 126.06C663.478 125.659 662.931 125.434 662.361 125.434C661.79 125.434 661.243 125.659 660.838 126.06L658.622 128.228C658.22 128.629 657.994 129.172 657.994 129.739C657.994 130.305 658.22 130.849 658.622 131.25L662.947 135.566C662.958 135.579 662.965 135.594 662.968 135.61C662.971 135.626 662.969 135.643 662.963 135.658C662.957 135.674 662.947 135.687 662.933 135.697C662.92 135.706 662.904 135.712 662.888 135.714H641.341C641.03 135.717 640.726 135.811 640.469 135.985C640.211 136.159 640.01 136.404 639.891 136.691C639.773 136.977 639.741 137.292 639.801 137.597C639.861 137.901 640.009 138.181 640.228 138.402L642.967 141.119C644.252 142.383 645.988 143.088 647.794 143.081H662.888C662.906 143.081 662.925 143.086 662.94 143.096C662.956 143.106 662.968 143.121 662.974 143.139C662.981 143.156 662.982 143.175 662.977 143.193C662.972 143.211 662.961 143.227 662.947 143.238L658.622 147.545C658.219 147.948 657.993 148.493 657.993 149.061C657.993 149.629 658.219 150.174 658.622 150.577L660.838 152.794C661.243 153.195 661.79 153.42 662.361 153.42C662.931 153.42 663.478 153.195 663.883 152.794" fill="#919B9C"/>
<path d="M673.804 74.5637L706.316 42.2474C707.396 41.1476 708.001 39.6703 708.001 38.1319C708.001 36.5935 707.396 35.1162 706.316 34.0163L673.804 1.70004C672.71 0.611488 671.227 0 669.681 0C668.134 0 666.651 0.611488 665.558 1.70004L659.499 7.71397C658.405 8.80308 657.791 10.2799 657.791 11.8197C657.791 13.3596 658.405 14.8364 659.499 15.9255L671.321 27.6983C671.357 27.7326 671.381 27.7768 671.391 27.8253C671.402 27.8737 671.397 27.924 671.377 27.9696C671.358 28.0153 671.326 28.054 671.284 28.0809C671.242 28.1077 671.193 28.1214 671.144 28.1201H612.544C611.693 28.1193 610.861 28.3701 610.154 28.8407C609.446 29.3113 608.895 29.9804 608.57 30.7633C608.245 31.5462 608.161 32.4076 608.328 33.2383C608.495 34.0689 608.906 34.8314 609.509 35.4291L616.938 42.8263C618.664 44.5442 620.713 45.9067 622.968 46.8359C625.223 47.7651 627.64 48.2428 630.08 48.2418H671.104C671.154 48.2432 671.202 48.2589 671.243 48.287C671.284 48.3152 671.315 48.3544 671.334 48.4001C671.353 48.4459 671.358 48.496 671.349 48.5445C671.339 48.593 671.316 48.6378 671.282 48.6734L659.499 60.3383C658.405 61.4274 657.791 62.9042 657.791 64.444C657.791 65.9839 658.405 67.4607 659.499 68.5498L665.548 74.5637C666.642 75.6523 668.125 76.2638 669.671 76.2638C671.217 76.2638 672.7 75.6523 673.794 74.5637" fill="#DA1C5C"/>
<path d="M42.0095 440.763L62.8072 415.895C63.5081 415.056 63.9018 413.918 63.9018 412.732C63.9018 411.546 63.5081 410.408 62.8072 409.569L42.0095 384.701C41.6628 384.286 41.2511 383.957 40.7981 383.733C40.3451 383.509 39.8595 383.393 39.3692 383.393C38.8788 383.393 38.3932 383.509 37.9402 383.733C37.4872 383.957 37.0755 384.286 36.7288 384.701L32.9062 389.331C32.2053 390.17 31.8116 391.307 31.8116 392.493C31.8116 393.68 32.2053 394.817 32.9062 395.656L40.443 404.668C40.4644 404.695 40.4787 404.729 40.484 404.766C40.4892 404.803 40.4853 404.841 40.4727 404.875C40.46 404.909 40.4392 404.937 40.4129 404.957C40.3866 404.977 40.3559 404.987 40.3248 404.986H2.76871C2.22342 404.984 1.68978 405.175 1.23518 405.535C0.780587 405.895 0.425422 406.408 0.214574 407.009C0.00372538 407.611 -0.0533592 408.273 0.050533 408.913C0.154425 409.553 0.41464 410.142 0.798293 410.606L5.55685 416.296C6.66279 417.618 7.97601 418.668 9.4214 419.383C10.8668 420.099 12.416 420.467 13.9804 420.466H40.2558C40.287 420.468 40.3171 420.48 40.3426 420.502C40.3682 420.523 40.3882 420.552 40.4005 420.587C40.4128 420.621 40.4169 420.659 40.4122 420.696C40.4075 420.733 40.3943 420.767 40.3741 420.796L32.9062 429.807C32.2053 430.647 31.8116 431.784 31.8116 432.97C31.8116 434.157 32.2053 435.294 32.9062 436.133L36.7781 440.763C37.1248 441.178 37.5364 441.507 37.9895 441.731C38.4425 441.955 38.9281 442.071 39.4184 442.071C39.9088 442.071 40.3943 441.955 40.8474 441.731C41.3004 441.507 41.712 441.178 42.0588 440.763" fill="#DA1C5C"/>
</svg>
