<svg xmlns="http://www.w3.org/2000/svg" xmlns:xlink="http://www.w3.org/1999/xlink" width="500" zoomAndPan="magnify" viewBox="0 0 375 374.999991" height="500" preserveAspectRatio="xMidYMid meet" version="1.0"><defs><g/><clipPath id="75d883e0cb"><path d="M 146.992188 106.484375 L 227.992188 106.484375 L 227.992188 187.484375 L 146.992188 187.484375 Z M 146.992188 106.484375 " clip-rule="nonzero"/></clipPath></defs><rect x="-37.5" width="450" fill="#ffffff" y="-37.499999" height="449.999989" fill-opacity="1"/><rect x="-37.5" width="450" fill="#000000" y="-37.499999" height="449.999989" fill-opacity="1"/><g fill="#ffffff" fill-opacity="1"><g transform="translate(59.195587, 214.569004)"><g><path d="M 0.75 0 L 0.75 -0.71875 C 2.125 -0.75 2.988281 -1.269531 3.34375 -2.28125 L 8.15625 -16.15625 C 8.21875 -16.34375 8.28125 -16.46875 8.34375 -16.53125 C 8.414062 -16.59375 8.535156 -16.625 8.703125 -16.625 C 8.796875 -16.625 8.867188 -16.613281 8.921875 -16.59375 C 8.984375 -16.582031 9.03125 -16.550781 9.0625 -16.5 C 9.101562 -16.445312 9.128906 -16.40625 9.140625 -16.375 C 9.160156 -16.34375 9.191406 -16.269531 9.234375 -16.15625 L 14.25 -1.640625 C 14.375 -1.253906 14.5625 -1.003906 14.8125 -0.890625 C 15.0625 -0.773438 15.535156 -0.71875 16.234375 -0.71875 L 16.640625 -0.71875 L 16.640625 0 C 15.671875 -0.0390625 14.660156 -0.0625 13.609375 -0.0625 C 11.929688 -0.0625 10.816406 -0.0390625 10.265625 0 L 10.265625 -0.71875 C 11.546875 -0.71875 12.1875 -0.953125 12.1875 -1.421875 C 12.1875 -1.453125 12.164062 -1.5625 12.125 -1.75 L 10.890625 -5.296875 L 5.15625 -5.296875 L 4.078125 -2.25 C 4.046875 -2.195312 4.03125 -2.082031 4.03125 -1.90625 C 4.03125 -1.582031 4.179688 -1.300781 4.484375 -1.0625 C 4.785156 -0.832031 5.21875 -0.71875 5.78125 -0.71875 L 5.78125 0 C 4.289062 -0.0390625 3.398438 -0.0625 3.109375 -0.0625 C 2.597656 -0.0625 1.8125 -0.0390625 0.75 0 Z M 5.40625 -6.015625 L 10.640625 -6.015625 L 8.015625 -13.5625 Z M 5.40625 -6.015625 "/></g></g></g><g fill="#ffffff" fill-opacity="1"><g transform="translate(76.603651, 214.569004)"><g><path d="M 0.8125 0 L 0.8125 -0.71875 L 1.375 -0.71875 C 2.207031 -0.71875 2.71875 -0.785156 2.90625 -0.921875 C 3.101562 -1.066406 3.203125 -1.363281 3.203125 -1.8125 L 3.203125 -14.046875 C 3.203125 -14.492188 3.101562 -14.785156 2.90625 -14.921875 C 2.71875 -15.066406 2.207031 -15.140625 1.375 -15.140625 L 0.8125 -15.140625 L 0.8125 -15.859375 L 9.3125 -15.859375 C 11.289062 -15.859375 12.96875 -15.066406 14.34375 -13.484375 C 15.726562 -11.910156 16.421875 -10.015625 16.421875 -7.796875 C 16.421875 -5.628906 15.722656 -3.785156 14.328125 -2.265625 C 12.941406 -0.753906 11.269531 0 9.3125 0 Z M 5.203125 -1.640625 C 5.203125 -1.242188 5.257812 -0.988281 5.375 -0.875 C 5.488281 -0.769531 5.8125 -0.71875 6.34375 -0.71875 L 8.6875 -0.71875 C 9.707031 -0.71875 10.5625 -0.925781 11.25 -1.34375 C 11.9375 -1.757812 12.457031 -2.210938 12.8125 -2.703125 C 13.664062 -3.859375 14.09375 -5.554688 14.09375 -7.796875 C 14.09375 -10.148438 13.691406 -11.878906 12.890625 -12.984375 C 11.859375 -14.421875 10.445312 -15.140625 8.65625 -15.140625 L 6.34375 -15.140625 C 5.8125 -15.140625 5.488281 -15.082031 5.375 -14.96875 C 5.257812 -14.863281 5.203125 -14.609375 5.203125 -14.203125 Z M 5.203125 -1.640625 "/></g></g></g><g fill="#ffffff" fill-opacity="1"><g transform="translate(94.306383, 214.569004)"><g><path d="M 0.4375 -15.140625 L 0.4375 -15.859375 C 2.113281 -15.816406 3.097656 -15.796875 3.390625 -15.796875 C 5.046875 -15.796875 6.15625 -15.816406 6.71875 -15.859375 L 6.71875 -15.140625 C 5.445312 -15.140625 4.8125 -14.914062 4.8125 -14.46875 C 4.8125 -14.40625 4.851562 -14.265625 4.9375 -14.046875 L 9.375 -2.328125 L 13.625 -13.515625 C 13.695312 -13.742188 13.734375 -13.898438 13.734375 -13.984375 C 13.734375 -14.285156 13.59375 -14.546875 13.3125 -14.765625 C 13.03125 -14.992188 12.609375 -15.117188 12.046875 -15.140625 L 12.046875 -15.859375 C 13.253906 -15.816406 14.132812 -15.796875 14.6875 -15.796875 C 15.476562 -15.796875 16.234375 -15.816406 16.953125 -15.859375 L 16.953125 -15.140625 C 15.648438 -15.117188 14.804688 -14.597656 14.421875 -13.578125 L 9.234375 0.0625 C 9.179688 0.25 9.125 0.367188 9.0625 0.421875 C 9 0.484375 8.875 0.515625 8.6875 0.515625 C 8.53125 0.515625 8.410156 0.484375 8.328125 0.421875 C 8.253906 0.359375 8.179688 0.21875 8.109375 0 L 2.71875 -14.25 C 2.570312 -14.664062 2.359375 -14.914062 2.078125 -15 C 1.804688 -15.09375 1.257812 -15.140625 0.4375 -15.140625 Z M 0.4375 -15.140625 "/></g></g></g><g fill="#ffffff" fill-opacity="1"><g transform="translate(111.714447, 214.569004)"><g><path d="M 1.296875 -7.875 C 1.296875 -10.238281 2.050781 -12.242188 3.5625 -13.890625 C 5.082031 -15.546875 6.898438 -16.375 9.015625 -16.375 C 11.140625 -16.375 12.957031 -15.546875 14.46875 -13.890625 C 15.988281 -12.234375 16.75 -10.226562 16.75 -7.875 C 16.75 -5.53125 15.988281 -3.546875 14.46875 -1.921875 C 12.945312 -0.296875 11.128906 0.515625 9.015625 0.515625 C 6.929688 0.515625 5.125 -0.289062 3.59375 -1.90625 C 2.0625 -3.53125 1.296875 -5.519531 1.296875 -7.875 Z M 3.703125 -8.203125 C 3.703125 -6.765625 3.867188 -5.492188 4.203125 -4.390625 C 4.546875 -3.296875 4.988281 -2.445312 5.53125 -1.84375 C 6.082031 -1.25 6.648438 -0.804688 7.234375 -0.515625 C 7.828125 -0.234375 8.425781 -0.09375 9.03125 -0.09375 C 9.625 -0.09375 10.207031 -0.226562 10.78125 -0.5 C 11.363281 -0.78125 11.929688 -1.21875 12.484375 -1.8125 C 13.035156 -2.40625 13.484375 -3.253906 13.828125 -4.359375 C 14.179688 -5.460938 14.359375 -6.742188 14.359375 -8.203125 C 14.359375 -9.328125 14.234375 -10.34375 13.984375 -11.25 C 13.742188 -12.164062 13.4375 -12.898438 13.0625 -13.453125 C 12.6875 -14.003906 12.253906 -14.460938 11.765625 -14.828125 C 11.273438 -15.191406 10.800781 -15.441406 10.34375 -15.578125 C 9.882812 -15.722656 9.441406 -15.796875 9.015625 -15.796875 C 8.472656 -15.796875 7.914062 -15.671875 7.34375 -15.421875 C 6.78125 -15.179688 6.210938 -14.796875 5.640625 -14.265625 C 5.066406 -13.734375 4.597656 -12.941406 4.234375 -11.890625 C 3.878906 -10.847656 3.703125 -9.617188 3.703125 -8.203125 Z M 3.703125 -8.203125 "/></g></g></g><g fill="#ffffff" fill-opacity="1"><g transform="translate(129.745852, 214.569004)"><g><path d="M 1.296875 -7.9375 C 1.296875 -10.269531 2.09375 -12.257812 3.6875 -13.90625 C 5.289062 -15.550781 7.1875 -16.375 9.375 -16.375 C 10.050781 -16.375 10.691406 -16.25 11.296875 -16 C 11.898438 -15.75 12.34375 -15.515625 12.625 -15.296875 C 12.90625 -15.078125 13.25 -14.769531 13.65625 -14.375 L 14.8125 -16.09375 C 14.9375 -16.28125 15.0625 -16.375 15.1875 -16.375 C 15.3125 -16.375 15.382812 -16.335938 15.40625 -16.265625 C 15.425781 -16.191406 15.4375 -16.039062 15.4375 -15.8125 L 15.4375 -10.3125 C 15.4375 -10.0625 15.421875 -9.90625 15.390625 -9.84375 C 15.359375 -9.78125 15.25 -9.75 15.0625 -9.75 C 14.914062 -9.75 14.820312 -9.769531 14.78125 -9.8125 C 14.75 -9.863281 14.71875 -9.972656 14.6875 -10.140625 C 14.457031 -11.816406 13.878906 -13.148438 12.953125 -14.140625 C 12.023438 -15.140625 10.921875 -15.640625 9.640625 -15.640625 C 9.265625 -15.640625 8.867188 -15.597656 8.453125 -15.515625 C 8.046875 -15.429688 7.546875 -15.226562 6.953125 -14.90625 C 6.359375 -14.59375 5.832031 -14.175781 5.375 -13.65625 C 4.914062 -13.132812 4.519531 -12.375 4.1875 -11.375 C 3.863281 -10.382812 3.703125 -9.226562 3.703125 -7.90625 C 3.703125 -6.613281 3.863281 -5.46875 4.1875 -4.46875 C 4.519531 -3.46875 4.914062 -2.707031 5.375 -2.1875 C 5.832031 -1.675781 6.359375 -1.257812 6.953125 -0.9375 C 7.546875 -0.625 8.050781 -0.421875 8.46875 -0.328125 C 8.894531 -0.242188 9.289062 -0.203125 9.65625 -0.203125 C 10.988281 -0.203125 12.164062 -0.671875 13.1875 -1.609375 C 14.207031 -2.554688 14.765625 -3.832031 14.859375 -5.4375 C 14.878906 -5.507812 14.890625 -5.5625 14.890625 -5.59375 C 14.890625 -5.625 14.894531 -5.660156 14.90625 -5.703125 C 14.925781 -5.742188 14.953125 -5.769531 14.984375 -5.78125 C 15.023438 -5.800781 15.078125 -5.8125 15.140625 -5.8125 C 15.335938 -5.8125 15.4375 -5.675781 15.4375 -5.40625 C 15.4375 -3.9375 14.867188 -2.582031 13.734375 -1.34375 C 12.609375 -0.101562 11.15625 0.515625 9.375 0.515625 C 7.175781 0.515625 5.28125 -0.300781 3.6875 -1.9375 C 2.09375 -3.570312 1.296875 -5.570312 1.296875 -7.9375 Z M 1.296875 -7.9375 "/></g></g></g><g fill="#ffffff" fill-opacity="1"><g transform="translate(146.496581, 214.569004)"><g><path d="M 0.75 0 L 0.75 -0.71875 C 2.125 -0.75 2.988281 -1.269531 3.34375 -2.28125 L 8.15625 -16.15625 C 8.21875 -16.34375 8.28125 -16.46875 8.34375 -16.53125 C 8.414062 -16.59375 8.535156 -16.625 8.703125 -16.625 C 8.796875 -16.625 8.867188 -16.613281 8.921875 -16.59375 C 8.984375 -16.582031 9.03125 -16.550781 9.0625 -16.5 C 9.101562 -16.445312 9.128906 -16.40625 9.140625 -16.375 C 9.160156 -16.34375 9.191406 -16.269531 9.234375 -16.15625 L 14.25 -1.640625 C 14.375 -1.253906 14.5625 -1.003906 14.8125 -0.890625 C 15.0625 -0.773438 15.535156 -0.71875 16.234375 -0.71875 L 16.640625 -0.71875 L 16.640625 0 C 15.671875 -0.0390625 14.660156 -0.0625 13.609375 -0.0625 C 11.929688 -0.0625 10.816406 -0.0390625 10.265625 0 L 10.265625 -0.71875 C 11.546875 -0.71875 12.1875 -0.953125 12.1875 -1.421875 C 12.1875 -1.453125 12.164062 -1.5625 12.125 -1.75 L 10.890625 -5.296875 L 5.15625 -5.296875 L 4.078125 -2.25 C 4.046875 -2.195312 4.03125 -2.082031 4.03125 -1.90625 C 4.03125 -1.582031 4.179688 -1.300781 4.484375 -1.0625 C 4.785156 -0.832031 5.21875 -0.71875 5.78125 -0.71875 L 5.78125 0 C 4.289062 -0.0390625 3.398438 -0.0625 3.109375 -0.0625 C 2.597656 -0.0625 1.8125 -0.0390625 0.75 0 Z M 5.40625 -6.015625 L 10.640625 -6.015625 L 8.015625 -13.5625 Z M 5.40625 -6.015625 "/></g></g></g><g fill="#ffffff" fill-opacity="1"><g transform="translate(163.904645, 214.569004)"><g><path d="M 1.296875 -7.9375 C 1.296875 -10.269531 2.09375 -12.257812 3.6875 -13.90625 C 5.289062 -15.550781 7.1875 -16.375 9.375 -16.375 C 10.050781 -16.375 10.691406 -16.25 11.296875 -16 C 11.898438 -15.75 12.34375 -15.515625 12.625 -15.296875 C 12.90625 -15.078125 13.25 -14.769531 13.65625 -14.375 L 14.8125 -16.09375 C 14.9375 -16.28125 15.0625 -16.375 15.1875 -16.375 C 15.3125 -16.375 15.382812 -16.335938 15.40625 -16.265625 C 15.425781 -16.191406 15.4375 -16.039062 15.4375 -15.8125 L 15.4375 -10.3125 C 15.4375 -10.0625 15.421875 -9.90625 15.390625 -9.84375 C 15.359375 -9.78125 15.25 -9.75 15.0625 -9.75 C 14.914062 -9.75 14.820312 -9.769531 14.78125 -9.8125 C 14.75 -9.863281 14.71875 -9.972656 14.6875 -10.140625 C 14.457031 -11.816406 13.878906 -13.148438 12.953125 -14.140625 C 12.023438 -15.140625 10.921875 -15.640625 9.640625 -15.640625 C 9.265625 -15.640625 8.867188 -15.597656 8.453125 -15.515625 C 8.046875 -15.429688 7.546875 -15.226562 6.953125 -14.90625 C 6.359375 -14.59375 5.832031 -14.175781 5.375 -13.65625 C 4.914062 -13.132812 4.519531 -12.375 4.1875 -11.375 C 3.863281 -10.382812 3.703125 -9.226562 3.703125 -7.90625 C 3.703125 -6.613281 3.863281 -5.46875 4.1875 -4.46875 C 4.519531 -3.46875 4.914062 -2.707031 5.375 -2.1875 C 5.832031 -1.675781 6.359375 -1.257812 6.953125 -0.9375 C 7.546875 -0.625 8.050781 -0.421875 8.46875 -0.328125 C 8.894531 -0.242188 9.289062 -0.203125 9.65625 -0.203125 C 10.988281 -0.203125 12.164062 -0.671875 13.1875 -1.609375 C 14.207031 -2.554688 14.765625 -3.832031 14.859375 -5.4375 C 14.878906 -5.507812 14.890625 -5.5625 14.890625 -5.59375 C 14.890625 -5.625 14.894531 -5.660156 14.90625 -5.703125 C 14.925781 -5.742188 14.953125 -5.769531 14.984375 -5.78125 C 15.023438 -5.800781 15.078125 -5.8125 15.140625 -5.8125 C 15.335938 -5.8125 15.4375 -5.675781 15.4375 -5.40625 C 15.4375 -3.9375 14.867188 -2.582031 13.734375 -1.34375 C 12.609375 -0.101562 11.15625 0.515625 9.375 0.515625 C 7.175781 0.515625 5.28125 -0.300781 3.6875 -1.9375 C 2.09375 -3.570312 1.296875 -5.570312 1.296875 -7.9375 Z M 1.296875 -7.9375 "/></g></g></g><g fill="#ffffff" fill-opacity="1"><g transform="translate(180.655374, 214.569004)"><g><path d="M 0.640625 0 L 0.640625 -0.71875 L 1.265625 -0.71875 C 2.128906 -0.71875 2.660156 -0.785156 2.859375 -0.921875 C 3.054688 -1.066406 3.15625 -1.363281 3.15625 -1.8125 L 3.15625 -14.046875 C 3.15625 -14.492188 3.050781 -14.785156 2.84375 -14.921875 C 2.644531 -15.066406 2.117188 -15.140625 1.265625 -15.140625 L 0.640625 -15.140625 L 0.640625 -15.859375 C 1.191406 -15.816406 2.378906 -15.796875 4.203125 -15.796875 C 6.015625 -15.796875 7.191406 -15.816406 7.734375 -15.859375 L 7.734375 -15.140625 L 7.125 -15.140625 C 6.257812 -15.140625 5.722656 -15.066406 5.515625 -14.921875 C 5.316406 -14.785156 5.21875 -14.492188 5.21875 -14.046875 L 5.21875 -1.8125 C 5.21875 -1.363281 5.316406 -1.066406 5.515625 -0.921875 C 5.722656 -0.785156 6.257812 -0.71875 7.125 -0.71875 L 7.734375 -0.71875 L 7.734375 0 C 7.191406 -0.0390625 6.007812 -0.0625 4.1875 -0.0625 C 2.375 -0.0625 1.191406 -0.0390625 0.640625 0 Z M 0.640625 0 "/></g></g></g><g fill="#ffffff" fill-opacity="1"><g transform="translate(189.030743, 214.569004)"><g><path d="M 0.75 0 L 0.75 -0.71875 C 2.125 -0.75 2.988281 -1.269531 3.34375 -2.28125 L 8.15625 -16.15625 C 8.21875 -16.34375 8.28125 -16.46875 8.34375 -16.53125 C 8.414062 -16.59375 8.535156 -16.625 8.703125 -16.625 C 8.796875 -16.625 8.867188 -16.613281 8.921875 -16.59375 C 8.984375 -16.582031 9.03125 -16.550781 9.0625 -16.5 C 9.101562 -16.445312 9.128906 -16.40625 9.140625 -16.375 C 9.160156 -16.34375 9.191406 -16.269531 9.234375 -16.15625 L 14.25 -1.640625 C 14.375 -1.253906 14.5625 -1.003906 14.8125 -0.890625 C 15.0625 -0.773438 15.535156 -0.71875 16.234375 -0.71875 L 16.640625 -0.71875 L 16.640625 0 C 15.671875 -0.0390625 14.660156 -0.0625 13.609375 -0.0625 C 11.929688 -0.0625 10.816406 -0.0390625 10.265625 0 L 10.265625 -0.71875 C 11.546875 -0.71875 12.1875 -0.953125 12.1875 -1.421875 C 12.1875 -1.453125 12.164062 -1.5625 12.125 -1.75 L 10.890625 -5.296875 L 5.15625 -5.296875 L 4.078125 -2.25 C 4.046875 -2.195312 4.03125 -2.082031 4.03125 -1.90625 C 4.03125 -1.582031 4.179688 -1.300781 4.484375 -1.0625 C 4.785156 -0.832031 5.21875 -0.71875 5.78125 -0.71875 L 5.78125 0 C 4.289062 -0.0390625 3.398438 -0.0625 3.109375 -0.0625 C 2.597656 -0.0625 1.8125 -0.0390625 0.75 0 Z M 5.40625 -6.015625 L 10.640625 -6.015625 L 8.015625 -13.5625 Z M 5.40625 -6.015625 "/></g></g></g><g fill="#ffffff" fill-opacity="1"><g transform="translate(206.438807, 214.569004)"><g/></g></g><g fill="#ffffff" fill-opacity="1"><g transform="translate(214.156841, 214.569004)"><g><path d="M 0.765625 0 L 0.765625 -0.71875 L 1.328125 -0.71875 C 2.160156 -0.71875 2.671875 -0.785156 2.859375 -0.921875 C 3.054688 -1.066406 3.15625 -1.363281 3.15625 -1.8125 L 3.15625 -14.046875 C 3.15625 -14.492188 3.054688 -14.785156 2.859375 -14.921875 C 2.671875 -15.066406 2.160156 -15.140625 1.328125 -15.140625 L 0.765625 -15.140625 L 0.765625 -15.859375 C 1.316406 -15.816406 2.492188 -15.796875 4.296875 -15.796875 C 6.335938 -15.796875 7.640625 -15.816406 8.203125 -15.859375 L 8.203125 -15.140625 L 7.421875 -15.140625 C 6.710938 -15.140625 6.195312 -15.09375 5.875 -15 C 5.550781 -14.90625 5.359375 -14.796875 5.296875 -14.671875 C 5.242188 -14.546875 5.21875 -14.332031 5.21875 -14.03125 L 5.21875 -1.640625 C 5.21875 -1.242188 5.273438 -0.988281 5.390625 -0.875 C 5.515625 -0.769531 5.835938 -0.71875 6.359375 -0.71875 L 8.265625 -0.71875 C 9.046875 -0.71875 9.71875 -0.832031 10.28125 -1.0625 C 10.851562 -1.300781 11.289062 -1.566406 11.59375 -1.859375 C 11.894531 -2.148438 12.144531 -2.570312 12.34375 -3.125 C 12.550781 -3.6875 12.6875 -4.144531 12.75 -4.5 C 12.8125 -4.851562 12.875 -5.347656 12.9375 -5.984375 L 13.515625 -5.984375 L 12.875 0 Z M 0.765625 0 "/></g></g></g><g fill="#ffffff" fill-opacity="1"><g transform="translate(228.663561, 214.569004)"><g><path d="M 0.765625 0 L 0.765625 -0.71875 L 1.328125 -0.71875 C 2.160156 -0.71875 2.671875 -0.785156 2.859375 -0.921875 C 3.054688 -1.066406 3.15625 -1.363281 3.15625 -1.8125 L 3.15625 -13.984375 C 3.15625 -14.421875 3.054688 -14.707031 2.859375 -14.84375 C 2.671875 -14.988281 2.160156 -15.0625 1.328125 -15.0625 L 0.765625 -15.0625 L 0.765625 -15.796875 L 13.84375 -15.796875 L 14.484375 -10.5625 L 13.90625 -10.5625 C 13.800781 -11.445312 13.675781 -12.144531 13.53125 -12.65625 C 13.394531 -13.164062 13.160156 -13.617188 12.828125 -14.015625 C 12.492188 -14.410156 12.050781 -14.679688 11.5 -14.828125 C 10.957031 -14.984375 10.242188 -15.0625 9.359375 -15.0625 L 6.359375 -15.0625 C 5.828125 -15.0625 5.503906 -15.003906 5.390625 -14.890625 C 5.273438 -14.785156 5.21875 -14.535156 5.21875 -14.140625 L 5.21875 -8.578125 L 7.3125 -8.578125 C 8.375 -8.578125 9.054688 -8.757812 9.359375 -9.125 C 9.660156 -9.5 9.8125 -10.21875 9.8125 -11.28125 L 10.40625 -11.28125 L 10.40625 -5.140625 L 9.8125 -5.140625 C 9.8125 -6.191406 9.660156 -6.90625 9.359375 -7.28125 C 9.054688 -7.65625 8.375 -7.84375 7.3125 -7.84375 L 5.21875 -7.84375 L 5.21875 -1.640625 C 5.21875 -1.242188 5.273438 -0.988281 5.390625 -0.875 C 5.515625 -0.769531 5.835938 -0.71875 6.359375 -0.71875 L 9.453125 -0.71875 C 10.117188 -0.71875 10.695312 -0.757812 11.1875 -0.84375 C 11.675781 -0.925781 12.085938 -1.078125 12.421875 -1.296875 C 12.765625 -1.515625 13.050781 -1.75 13.28125 -2 C 13.507812 -2.25 13.703125 -2.597656 13.859375 -3.046875 C 14.023438 -3.492188 14.15625 -3.925781 14.25 -4.34375 C 14.34375 -4.757812 14.445312 -5.304688 14.5625 -5.984375 L 15.140625 -5.984375 L 14.15625 0 Z M 0.765625 0 "/></g></g></g><g fill="#ffffff" fill-opacity="1"><g transform="translate(244.439619, 214.569004)"><g><path d="M 3.6875 -1.9375 C 2.09375 -3.582031 1.296875 -5.582031 1.296875 -7.9375 C 1.296875 -10.289062 2.097656 -12.285156 3.703125 -13.921875 C 5.304688 -15.554688 7.195312 -16.375 9.375 -16.375 C 9.914062 -16.375 10.421875 -16.3125 10.890625 -16.1875 C 11.359375 -16.0625 11.773438 -15.875 12.140625 -15.625 C 12.515625 -15.382812 12.796875 -15.179688 12.984375 -15.015625 C 13.179688 -14.847656 13.410156 -14.632812 13.671875 -14.375 L 14.84375 -16.09375 C 14.957031 -16.28125 15.078125 -16.375 15.203125 -16.375 C 15.328125 -16.375 15.398438 -16.335938 15.421875 -16.265625 C 15.453125 -16.191406 15.46875 -16.039062 15.46875 -15.8125 L 15.46875 -10.3125 C 15.46875 -10.0625 15.453125 -9.90625 15.421875 -9.84375 C 15.390625 -9.78125 15.28125 -9.75 15.09375 -9.75 C 14.9375 -9.75 14.84375 -9.769531 14.8125 -9.8125 C 14.78125 -9.863281 14.75 -9.972656 14.71875 -10.140625 C 14.476562 -11.816406 13.890625 -13.148438 12.953125 -14.140625 C 12.023438 -15.140625 10.925781 -15.640625 9.65625 -15.640625 C 9.289062 -15.640625 8.898438 -15.597656 8.484375 -15.515625 C 8.078125 -15.429688 7.570312 -15.226562 6.96875 -14.90625 C 6.363281 -14.59375 5.832031 -14.175781 5.375 -13.65625 C 4.914062 -13.144531 4.519531 -12.390625 4.1875 -11.390625 C 3.863281 -10.398438 3.703125 -9.25 3.703125 -7.9375 C 3.703125 -6.632812 3.863281 -5.484375 4.1875 -4.484375 C 4.519531 -3.492188 4.921875 -2.738281 5.390625 -2.21875 C 5.859375 -1.695312 6.394531 -1.273438 7 -0.953125 C 7.601562 -0.628906 8.125 -0.421875 8.5625 -0.328125 C 9 -0.242188 9.410156 -0.203125 9.796875 -0.203125 C 10.054688 -0.203125 10.34375 -0.226562 10.65625 -0.28125 C 10.96875 -0.34375 11.351562 -0.457031 11.8125 -0.625 C 12.28125 -0.800781 12.660156 -1.09375 12.953125 -1.5 C 13.253906 -1.90625 13.40625 -2.410156 13.40625 -3.015625 L 13.40625 -4.5 C 13.40625 -4.957031 13.289062 -5.257812 13.0625 -5.40625 C 12.832031 -5.550781 12.222656 -5.625 11.234375 -5.625 L 10.5 -5.625 L 10.5 -6.34375 C 11.0625 -6.289062 12.304688 -6.265625 14.234375 -6.265625 C 14.398438 -6.265625 15.34375 -6.289062 17.0625 -6.34375 L 17.0625 -5.625 C 16.320312 -5.625 15.867188 -5.566406 15.703125 -5.453125 C 15.546875 -5.347656 15.46875 -5.066406 15.46875 -4.609375 L 15.46875 -0.5625 C 15.46875 -0.195312 15.398438 -0.015625 15.265625 -0.015625 C 15.140625 -0.015625 14.894531 -0.1875 14.53125 -0.53125 C 14.175781 -0.882812 13.921875 -1.195312 13.765625 -1.46875 C 13.390625 -0.8125 12.800781 -0.316406 12 0.015625 C 11.195312 0.347656 10.335938 0.515625 9.421875 0.515625 C 7.191406 0.515625 5.28125 -0.300781 3.6875 -1.9375 Z M 3.6875 -1.9375 "/></g></g></g><g fill="#ffffff" fill-opacity="1"><g transform="translate(262.629681, 214.569004)"><g><path d="M 0.75 0 L 0.75 -0.71875 C 2.125 -0.75 2.988281 -1.269531 3.34375 -2.28125 L 8.15625 -16.15625 C 8.21875 -16.34375 8.28125 -16.46875 8.34375 -16.53125 C 8.414062 -16.59375 8.535156 -16.625 8.703125 -16.625 C 8.796875 -16.625 8.867188 -16.613281 8.921875 -16.59375 C 8.984375 -16.582031 9.03125 -16.550781 9.0625 -16.5 C 9.101562 -16.445312 9.128906 -16.40625 9.140625 -16.375 C 9.160156 -16.34375 9.191406 -16.269531 9.234375 -16.15625 L 14.25 -1.640625 C 14.375 -1.253906 14.5625 -1.003906 14.8125 -0.890625 C 15.0625 -0.773438 15.535156 -0.71875 16.234375 -0.71875 L 16.640625 -0.71875 L 16.640625 0 C 15.671875 -0.0390625 14.660156 -0.0625 13.609375 -0.0625 C 11.929688 -0.0625 10.816406 -0.0390625 10.265625 0 L 10.265625 -0.71875 C 11.546875 -0.71875 12.1875 -0.953125 12.1875 -1.421875 C 12.1875 -1.453125 12.164062 -1.5625 12.125 -1.75 L 10.890625 -5.296875 L 5.15625 -5.296875 L 4.078125 -2.25 C 4.046875 -2.195312 4.03125 -2.082031 4.03125 -1.90625 C 4.03125 -1.582031 4.179688 -1.300781 4.484375 -1.0625 C 4.785156 -0.832031 5.21875 -0.71875 5.78125 -0.71875 L 5.78125 0 C 4.289062 -0.0390625 3.398438 -0.0625 3.109375 -0.0625 C 2.597656 -0.0625 1.8125 -0.0390625 0.75 0 Z M 5.40625 -6.015625 L 10.640625 -6.015625 L 8.015625 -13.5625 Z M 5.40625 -6.015625 "/></g></g></g><g fill="#ffffff" fill-opacity="1"><g transform="translate(280.037745, 214.569004)"><g><path d="M 0.765625 0 L 0.765625 -0.71875 L 1.328125 -0.71875 C 2.160156 -0.71875 2.671875 -0.785156 2.859375 -0.921875 C 3.054688 -1.066406 3.15625 -1.363281 3.15625 -1.8125 L 3.15625 -14.046875 C 3.15625 -14.492188 3.054688 -14.785156 2.859375 -14.921875 C 2.671875 -15.066406 2.160156 -15.140625 1.328125 -15.140625 L 0.765625 -15.140625 L 0.765625 -15.859375 C 1.316406 -15.816406 2.492188 -15.796875 4.296875 -15.796875 C 6.335938 -15.796875 7.640625 -15.816406 8.203125 -15.859375 L 8.203125 -15.140625 L 7.421875 -15.140625 C 6.710938 -15.140625 6.195312 -15.09375 5.875 -15 C 5.550781 -14.90625 5.359375 -14.796875 5.296875 -14.671875 C 5.242188 -14.546875 5.21875 -14.332031 5.21875 -14.03125 L 5.21875 -1.640625 C 5.21875 -1.242188 5.273438 -0.988281 5.390625 -0.875 C 5.515625 -0.769531 5.835938 -0.71875 6.359375 -0.71875 L 8.265625 -0.71875 C 9.046875 -0.71875 9.71875 -0.832031 10.28125 -1.0625 C 10.851562 -1.300781 11.289062 -1.566406 11.59375 -1.859375 C 11.894531 -2.148438 12.144531 -2.570312 12.34375 -3.125 C 12.550781 -3.6875 12.6875 -4.144531 12.75 -4.5 C 12.8125 -4.851562 12.875 -5.347656 12.9375 -5.984375 L 13.515625 -5.984375 L 12.875 0 Z M 0.765625 0 "/></g></g></g><g fill="#ffffff" fill-opacity="1"><g transform="translate(294.544465, 214.569004)"><g><path d="M 0.640625 0 L 0.640625 -0.71875 L 1.265625 -0.71875 C 2.128906 -0.71875 2.660156 -0.785156 2.859375 -0.921875 C 3.054688 -1.066406 3.15625 -1.363281 3.15625 -1.8125 L 3.15625 -14.046875 C 3.15625 -14.492188 3.050781 -14.785156 2.84375 -14.921875 C 2.644531 -15.066406 2.117188 -15.140625 1.265625 -15.140625 L 0.640625 -15.140625 L 0.640625 -15.859375 C 1.191406 -15.816406 2.378906 -15.796875 4.203125 -15.796875 C 6.015625 -15.796875 7.191406 -15.816406 7.734375 -15.859375 L 7.734375 -15.140625 L 7.125 -15.140625 C 6.257812 -15.140625 5.722656 -15.066406 5.515625 -14.921875 C 5.316406 -14.785156 5.21875 -14.492188 5.21875 -14.046875 L 5.21875 -1.8125 C 5.21875 -1.363281 5.316406 -1.066406 5.515625 -0.921875 C 5.722656 -0.785156 6.257812 -0.71875 7.125 -0.71875 L 7.734375 -0.71875 L 7.734375 0 C 7.191406 -0.0390625 6.007812 -0.0625 4.1875 -0.0625 C 2.375 -0.0625 1.191406 -0.0390625 0.640625 0 Z M 0.640625 0 "/></g></g></g><g fill="#ffffff" fill-opacity="1"><g transform="translate(302.919835, 214.569004)"><g><path d="M 1.296875 -0.046875 L 1.296875 -4.6875 C 1.296875 -4.863281 1.300781 -4.984375 1.3125 -5.046875 C 1.320312 -5.109375 1.347656 -5.160156 1.390625 -5.203125 C 1.441406 -5.242188 1.507812 -5.265625 1.59375 -5.265625 C 1.769531 -5.265625 1.863281 -5.1875 1.875 -5.03125 C 1.925781 -3.5 2.410156 -2.3125 3.328125 -1.46875 C 4.222656 -0.625 5.441406 -0.203125 6.984375 -0.203125 C 7.910156 -0.203125 8.660156 -0.535156 9.234375 -1.203125 C 9.804688 -1.867188 10.09375 -2.644531 10.09375 -3.53125 C 10.09375 -4.363281 9.851562 -5.078125 9.375 -5.671875 C 9.164062 -5.929688 8.9375 -6.144531 8.6875 -6.3125 C 8.4375 -6.488281 8.234375 -6.601562 8.078125 -6.65625 C 7.921875 -6.707031 7.695312 -6.769531 7.40625 -6.84375 C 5.488281 -7.3125 4.46875 -7.570312 4.34375 -7.625 C 3.425781 -7.925781 2.6875 -8.46875 2.125 -9.25 C 1.570312 -10.039062 1.296875 -10.914062 1.296875 -11.875 C 1.296875 -13.113281 1.734375 -14.171875 2.609375 -15.046875 C 3.484375 -15.929688 4.554688 -16.375 5.828125 -16.375 C 6.460938 -16.375 7.046875 -16.269531 7.578125 -16.0625 C 8.109375 -15.863281 8.484375 -15.671875 8.703125 -15.484375 C 8.921875 -15.304688 9.203125 -15.054688 9.546875 -14.734375 L 10.34375 -16.0625 C 10.46875 -16.269531 10.585938 -16.375 10.703125 -16.375 C 10.828125 -16.375 10.898438 -16.335938 10.921875 -16.265625 C 10.953125 -16.191406 10.96875 -16.039062 10.96875 -15.8125 L 10.96875 -11.140625 C 10.96875 -10.972656 10.960938 -10.859375 10.953125 -10.796875 C 10.941406 -10.734375 10.910156 -10.679688 10.859375 -10.640625 C 10.816406 -10.609375 10.75 -10.59375 10.65625 -10.59375 C 10.507812 -10.59375 10.414062 -10.679688 10.375 -10.859375 C 9.945312 -14.097656 8.4375 -15.71875 5.84375 -15.71875 C 4.96875 -15.71875 4.238281 -15.421875 3.65625 -14.828125 C 3.070312 -14.234375 2.78125 -13.515625 2.78125 -12.671875 C 2.78125 -11.992188 2.992188 -11.375 3.421875 -10.8125 C 3.847656 -10.257812 4.421875 -9.898438 5.140625 -9.734375 L 8.109375 -9.015625 C 9.097656 -8.773438 9.925781 -8.21875 10.59375 -7.34375 C 11.257812 -6.46875 11.59375 -5.457031 11.59375 -4.3125 C 11.59375 -3 11.160156 -1.863281 10.296875 -0.90625 C 9.441406 0.0390625 8.34375 0.515625 7 0.515625 C 6.039062 0.515625 5.191406 0.351562 4.453125 0.03125 C 3.710938 -0.28125 3.144531 -0.660156 2.75 -1.109375 C 2.4375 -0.597656 2.175781 -0.195312 1.96875 0.09375 L 1.90625 0.203125 C 1.78125 0.410156 1.660156 0.515625 1.546875 0.515625 C 1.429688 0.515625 1.359375 0.472656 1.328125 0.390625 C 1.304688 0.316406 1.296875 0.171875 1.296875 -0.046875 Z M 1.296875 -0.046875 "/></g></g></g><path stroke-linecap="butt" transform="matrix(0.756154, 0, 0, 0.75, 81.439336, 233.870961)" fill="none" stroke-linejoin="miter" d="M -0.00242801 0.500178 L 47.612116 0.500178 " stroke="#d6ba97" stroke-width="1" stroke-opacity="1" stroke-miterlimit="4"/><path stroke-linecap="butt" transform="matrix(0.756154, 0, 0, 0.75, 255.41196, 234.620961)" fill="none" stroke-linejoin="miter" d="M -0.00238507 0.500178 L 47.612159 0.500178 " stroke="#d6ba97" stroke-width="1" stroke-opacity="1" stroke-miterlimit="4"/><path fill="#d9d9d9" d="M 175.890625 177.089844 L 199.078125 177.089844 L 199.078125 175.488281 L 175.890625 175.488281 L 175.890625 177.089844 " fill-opacity="1" fill-rule="nonzero"/><path fill="#d9d9d9" d="M 155.5625 153.15625 C 155.582031 153.164062 155.605469 153.167969 155.628906 153.167969 C 155.699219 153.167969 155.769531 153.125 155.796875 153.054688 L 163.769531 132.734375 L 171.792969 153.054688 C 171.832031 153.148438 171.9375 153.191406 172.027344 153.15625 C 172.121094 153.121094 172.167969 153.015625 172.128906 152.921875 L 163.9375 132.175781 C 163.910156 132.109375 163.84375 132.0625 163.769531 132.0625 C 163.695312 132.0625 163.628906 132.109375 163.601562 132.175781 L 155.460938 152.921875 C 155.421875 153.015625 155.46875 153.121094 155.5625 153.15625 Z M 156.503906 155.789062 L 157.507812 155.769531 C 157.507812 155.769531 158.0625 158.773438 159.914062 160.0625 C 159.914062 160.0625 157.734375 159.46875 156.503906 155.789062 Z M 172.828125 153.859375 C 172.582031 153.664062 172.230469 153.613281 171.910156 153.726562 C 171.425781 153.898438 171.152344 154.390625 171 154.910156 C 170.925781 155.164062 170.695312 155.335938 170.433594 155.335938 L 157.105469 155.335938 C 156.84375 155.335938 156.609375 155.164062 156.535156 154.910156 C 156.382812 154.390625 156.109375 153.898438 155.625 153.726562 C 155.308594 153.613281 154.957031 153.664062 154.707031 153.859375 C 154.484375 154.035156 154.375 154.304688 154.40625 154.605469 C 154.445312 154.960938 154.714844 155.273438 155.0625 155.363281 C 155.203125 155.394531 155.34375 155.3125 155.378906 155.171875 C 155.414062 155.03125 155.332031 154.890625 155.191406 154.855469 C 155.050781 154.820312 154.925781 154.65625 154.921875 154.511719 C 154.921875 154.40625 154.957031 154.328125 155.03125 154.269531 C 155.136719 154.183594 155.300781 154.164062 155.449219 154.21875 C 155.730469 154.316406 155.957031 154.6875 156.085938 155.25 L 156.097656 155.296875 C 156.097656 155.308594 156.101562 155.324219 156.105469 155.335938 L 156.210938 155.808594 C 157.105469 159.144531 160.148438 161.597656 163.769531 161.597656 C 167.386719 161.597656 170.429688 159.144531 171.328125 155.808594 L 171.433594 155.335938 C 171.433594 155.324219 171.4375 155.308594 171.441406 155.296875 L 171.449219 155.25 C 171.582031 154.6875 171.804688 154.316406 172.085938 154.21875 C 172.234375 154.164062 172.398438 154.183594 172.503906 154.269531 C 172.582031 154.328125 172.617188 154.40625 172.613281 154.511719 C 172.609375 154.65625 172.488281 154.820312 172.347656 154.855469 C 172.207031 154.890625 172.121094 155.03125 172.15625 155.171875 C 172.191406 155.3125 172.332031 155.394531 172.472656 155.363281 C 172.820312 155.273438 173.09375 154.960938 173.128906 154.605469 C 173.160156 154.304688 173.050781 154.035156 172.828125 153.859375 " fill-opacity="1" fill-rule="nonzero"/><path fill="#d9d9d9" d="M 202.996094 153.15625 C 203.015625 153.164062 203.039062 153.167969 203.058594 153.167969 C 203.132812 153.167969 203.199219 153.125 203.226562 153.054688 L 211.203125 132.734375 L 219.226562 153.054688 C 219.265625 153.148438 219.367188 153.191406 219.460938 153.15625 C 219.554688 153.121094 219.597656 153.015625 219.5625 152.921875 L 211.367188 132.175781 C 211.339844 132.109375 211.273438 132.0625 211.199219 132.0625 C 211.125 132.0625 211.058594 132.109375 211.03125 132.175781 L 202.894531 152.921875 C 202.855469 153.015625 202.902344 153.121094 202.996094 153.15625 Z M 203.9375 155.789062 L 204.941406 155.769531 C 204.941406 155.769531 205.496094 158.773438 207.34375 160.0625 C 207.34375 160.0625 205.167969 159.46875 203.9375 155.789062 Z M 220.261719 153.859375 C 220.011719 153.664062 219.660156 153.613281 219.34375 153.726562 C 218.859375 153.898438 218.585938 154.390625 218.433594 154.910156 C 218.359375 155.164062 218.125 155.335938 217.863281 155.335938 L 204.539062 155.335938 C 204.273438 155.335938 204.042969 155.164062 203.96875 154.910156 C 203.816406 154.390625 203.542969 153.898438 203.058594 153.726562 C 202.738281 153.613281 202.386719 153.664062 202.140625 153.859375 C 201.917969 154.035156 201.808594 154.304688 201.839844 154.605469 C 201.878906 154.960938 202.148438 155.273438 202.496094 155.363281 C 202.636719 155.394531 202.777344 155.3125 202.8125 155.171875 C 202.847656 155.03125 202.761719 154.890625 202.621094 154.855469 C 202.480469 154.820312 202.359375 154.65625 202.355469 154.511719 C 202.351562 154.40625 202.390625 154.328125 202.460938 154.269531 C 202.570312 154.183594 202.734375 154.164062 202.882812 154.21875 C 203.164062 154.316406 203.386719 154.6875 203.519531 155.25 L 203.527344 155.296875 C 203.53125 155.308594 203.535156 155.324219 203.539062 155.335938 L 203.640625 155.808594 C 204.539062 159.144531 207.582031 161.597656 211.199219 161.597656 C 214.820312 161.597656 217.863281 159.144531 218.757812 155.808594 L 218.863281 155.335938 C 218.867188 155.324219 218.871094 155.308594 218.871094 155.296875 L 218.882812 155.25 C 219.011719 154.6875 219.238281 154.316406 219.519531 154.21875 C 219.667969 154.164062 219.832031 154.183594 219.9375 154.269531 C 220.011719 154.328125 220.046875 154.40625 220.046875 154.511719 C 220.042969 154.65625 219.917969 154.820312 219.777344 154.855469 C 219.636719 154.890625 219.554688 155.03125 219.589844 155.171875 C 219.625 155.3125 219.765625 155.394531 219.90625 155.363281 C 220.253906 155.273438 220.523438 154.960938 220.5625 154.605469 C 220.59375 154.304688 220.484375 154.035156 220.261719 153.859375 " fill-opacity="1" fill-rule="nonzero"/><path fill="#d9d9d9" d="M 214.351562 127.003906 C 214.335938 126.925781 214.328125 126.847656 214.304688 126.769531 C 214.296875 126.730469 214.285156 126.691406 214.273438 126.652344 L 214.261719 126.597656 C 214.253906 126.570312 214.265625 126.632812 214.246094 126.535156 L 214.234375 126.511719 C 214.214844 126.46875 214.195312 126.425781 214.179688 126.378906 C 214.164062 126.34375 214.148438 126.308594 214.132812 126.269531 C 214.117188 126.230469 214.101562 126.191406 214.082031 126.152344 C 214.050781 126.070312 214.011719 126.007812 213.976562 125.941406 L 213.917969 125.84375 C 213.898438 125.808594 213.875 125.777344 213.855469 125.746094 C 213.773438 125.617188 213.667969 125.5 213.5625 125.390625 C 213.34375 125.167969 213.085938 125 212.832031 124.890625 C 212.582031 124.777344 212.332031 124.722656 212.109375 124.699219 C 211.878906 124.675781 211.675781 124.6875 211.488281 124.707031 C 211.300781 124.722656 211.128906 124.765625 210.972656 124.804688 C 210.65625 124.894531 210.394531 125 210.167969 125.113281 C 210.054688 125.171875 209.953125 125.226562 209.855469 125.28125 C 209.761719 125.335938 209.675781 125.390625 209.59375 125.441406 C 209.515625 125.496094 209.445312 125.542969 209.378906 125.589844 C 209.3125 125.640625 209.253906 125.683594 209.203125 125.722656 C 209.101562 125.804688 209.027344 125.871094 208.980469 125.914062 C 208.929688 125.960938 208.90625 125.984375 208.90625 125.984375 L 209.003906 126.1875 C 209.003906 126.1875 209.035156 126.175781 209.089844 126.152344 C 209.144531 126.125 209.230469 126.089844 209.339844 126.042969 C 209.558594 125.953125 209.886719 125.835938 210.320312 125.734375 C 210.535156 125.683594 210.773438 125.644531 211.035156 125.625 C 211.296875 125.609375 211.582031 125.617188 211.863281 125.691406 C 212.144531 125.765625 212.421875 125.90625 212.609375 126.15625 C 212.703125 126.277344 212.78125 126.425781 212.835938 126.582031 C 212.847656 126.621094 212.859375 126.65625 212.871094 126.699219 C 212.882812 126.746094 212.894531 126.792969 212.90625 126.835938 L 212.910156 126.855469 L 212.910156 126.859375 C 212.910156 126.859375 212.910156 126.863281 212.910156 126.863281 L 212.914062 126.894531 L 212.925781 126.960938 C 212.933594 127.003906 212.933594 127.046875 212.9375 127.089844 C 212.957031 127.441406 212.867188 127.8125 212.679688 128.152344 C 212.585938 128.320312 212.46875 128.480469 212.335938 128.621094 C 212.304688 128.65625 212.265625 128.695312 212.226562 128.730469 L 212.171875 128.777344 L 212.109375 128.828125 C 212.070312 128.859375 212.03125 128.894531 211.988281 128.925781 C 211.945312 128.957031 211.90625 128.984375 211.863281 129.015625 C 211.777344 129.078125 211.683594 129.125 211.59375 129.179688 C 211.546875 129.207031 211.5 129.226562 211.449219 129.25 C 211.402344 129.273438 211.355469 129.296875 211.304688 129.316406 C 211.207031 129.351562 211.105469 129.394531 211 129.421875 C 210.949219 129.4375 210.898438 129.457031 210.84375 129.464844 C 210.792969 129.476562 210.738281 129.488281 210.683594 129.5 C 210.46875 129.542969 210.246094 129.566406 210.019531 129.570312 C 209.792969 129.578125 209.558594 129.5625 209.328125 129.539062 C 208.863281 129.488281 208.394531 129.386719 207.921875 129.246094 C 207.453125 129.113281 206.984375 128.945312 206.511719 128.765625 C 206.039062 128.585938 205.566406 128.390625 205.082031 128.203125 C 204.960938 128.15625 204.839844 128.109375 204.71875 128.066406 C 204.597656 128.023438 204.46875 127.976562 204.347656 127.933594 L 204.160156 127.871094 L 203.976562 127.8125 C 203.851562 127.773438 203.730469 127.734375 203.605469 127.695312 C 203.109375 127.546875 202.605469 127.410156 202.105469 127.277344 C 201.605469 127.152344 201.101562 127.035156 200.597656 126.933594 C 199.59375 126.730469 198.597656 126.578125 197.621094 126.5 C 197.132812 126.457031 196.652344 126.4375 196.183594 126.433594 C 195.945312 126.433594 195.714844 126.429688 195.484375 126.441406 C 195.367188 126.445312 195.253906 126.449219 195.140625 126.453125 C 195.027344 126.460938 194.914062 126.46875 194.800781 126.476562 C 194.601562 126.488281 194.402344 126.503906 194.207031 126.527344 C 191.769531 126.785156 189.542969 125.058594 189.257812 122.625 C 189.25 122.570312 189.246094 122.511719 189.238281 122.457031 L 189.625 122.15625 C 190.351562 121.585938 190.484375 120.535156 189.921875 119.804688 L 187.308594 116.414062 L 184.691406 119.804688 C 184.128906 120.535156 184.261719 121.585938 184.988281 122.15625 L 185.375 122.457031 C 185.367188 122.511719 185.363281 122.570312 185.355469 122.625 C 185.070312 125.058594 182.84375 126.785156 180.40625 126.527344 C 180.210938 126.503906 180.011719 126.488281 179.8125 126.476562 C 179.699219 126.46875 179.585938 126.460938 179.472656 126.453125 C 179.359375 126.449219 179.246094 126.445312 179.128906 126.441406 C 178.898438 126.429688 178.667969 126.433594 178.429688 126.433594 C 177.960938 126.4375 177.480469 126.457031 176.992188 126.5 C 176.015625 126.578125 175.019531 126.730469 174.015625 126.933594 C 173.511719 127.035156 173.007812 127.152344 172.507812 127.277344 C 172.007812 127.410156 171.503906 127.546875 171.007812 127.695312 C 170.882812 127.734375 170.761719 127.773438 170.636719 127.8125 L 170.449219 127.871094 L 170.265625 127.933594 C 170.144531 127.976562 170.015625 128.023438 169.894531 128.066406 C 169.773438 128.109375 169.652344 128.15625 169.53125 128.203125 C 169.046875 128.390625 168.574219 128.585938 168.101562 128.765625 C 167.628906 128.945312 167.160156 129.113281 166.691406 129.246094 C 166.21875 129.386719 165.75 129.488281 165.285156 129.539062 C 165.050781 129.5625 164.820312 129.578125 164.59375 129.570312 C 164.367188 129.566406 164.144531 129.542969 163.929688 129.5 C 163.875 129.488281 163.824219 129.476562 163.769531 129.464844 C 163.714844 129.457031 163.664062 129.4375 163.613281 129.421875 C 163.507812 129.394531 163.40625 129.351562 163.308594 129.316406 C 163.257812 129.296875 163.210938 129.273438 163.160156 129.25 C 163.113281 129.226562 163.066406 129.207031 163.019531 129.179688 C 162.929688 129.125 162.835938 129.078125 162.75 129.015625 C 162.707031 128.984375 162.664062 128.957031 162.621094 128.925781 C 162.582031 128.894531 162.542969 128.859375 162.503906 128.828125 L 162.445312 128.777344 L 162.414062 128.753906 L 162.386719 128.730469 C 162.347656 128.695312 162.308594 128.65625 162.277344 128.621094 C 162.144531 128.480469 162.023438 128.320312 161.933594 128.152344 C 161.746094 127.8125 161.65625 127.441406 161.675781 127.089844 C 161.679688 127.046875 161.679688 127.003906 161.6875 126.960938 L 161.695312 126.894531 L 161.703125 126.863281 C 161.703125 126.863281 161.703125 126.859375 161.703125 126.859375 L 161.703125 126.855469 L 161.707031 126.835938 C 161.71875 126.792969 161.730469 126.746094 161.742188 126.699219 C 161.75 126.65625 161.765625 126.621094 161.777344 126.582031 C 161.832031 126.425781 161.910156 126.277344 162.003906 126.15625 C 162.191406 125.90625 162.46875 125.765625 162.75 125.691406 C 163.03125 125.617188 163.316406 125.609375 163.578125 125.625 C 163.839844 125.644531 164.078125 125.683594 164.292969 125.734375 C 164.722656 125.835938 165.054688 125.953125 165.273438 126.042969 C 165.382812 126.089844 165.46875 126.125 165.523438 126.152344 C 165.578125 126.175781 165.609375 126.1875 165.609375 126.1875 L 165.707031 125.984375 C 165.707031 125.984375 165.683594 125.960938 165.632812 125.914062 C 165.585938 125.871094 165.511719 125.804688 165.40625 125.722656 C 165.355469 125.683594 165.300781 125.640625 165.234375 125.589844 C 165.171875 125.542969 165.097656 125.496094 165.019531 125.441406 C 164.9375 125.390625 164.851562 125.335938 164.757812 125.28125 C 164.660156 125.226562 164.558594 125.171875 164.445312 125.113281 C 164.21875 125 163.957031 124.894531 163.640625 124.804688 C 163.484375 124.765625 163.3125 124.722656 163.125 124.707031 C 162.9375 124.6875 162.734375 124.675781 162.503906 124.699219 C 162.28125 124.722656 162.03125 124.777344 161.777344 124.890625 C 161.527344 125 161.269531 125.167969 161.050781 125.390625 C 160.945312 125.5 160.839844 125.617188 160.757812 125.746094 C 160.738281 125.777344 160.714844 125.808594 160.695312 125.84375 L 160.636719 125.941406 C 160.601562 126.007812 160.5625 126.070312 160.53125 126.152344 C 160.511719 126.191406 160.496094 126.230469 160.480469 126.269531 C 160.464844 126.308594 160.449219 126.34375 160.433594 126.378906 C 160.414062 126.425781 160.398438 126.46875 160.378906 126.511719 L 160.367188 126.535156 C 160.347656 126.632812 160.359375 126.570312 160.355469 126.597656 L 160.339844 126.652344 C 160.328125 126.691406 160.316406 126.730469 160.308594 126.769531 C 160.289062 126.847656 160.273438 126.925781 160.261719 127.003906 C 160.207031 127.320312 160.210938 127.648438 160.257812 127.96875 C 160.300781 128.292969 160.390625 128.609375 160.523438 128.914062 C 160.589844 129.0625 160.660156 129.214844 160.75 129.359375 C 160.792969 129.429688 160.839844 129.503906 160.890625 129.570312 C 160.914062 129.605469 160.9375 129.640625 160.964844 129.675781 L 161.0625 129.796875 L 161.152344 129.902344 L 161.203125 129.964844 L 161.214844 129.980469 L 161.222656 129.988281 C 161.238281 130.003906 161.191406 129.960938 161.261719 130.027344 L 161.386719 130.152344 C 161.441406 130.207031 161.5 130.261719 161.558594 130.316406 C 161.621094 130.371094 161.679688 130.421875 161.742188 130.476562 C 162.246094 130.898438 162.886719 131.214844 163.546875 131.390625 C 163.628906 131.417969 163.710938 131.433594 163.796875 131.453125 C 163.878906 131.46875 163.960938 131.488281 164.042969 131.503906 C 164.207031 131.527344 164.375 131.554688 164.539062 131.566406 C 164.867188 131.597656 165.1875 131.597656 165.503906 131.582031 C 165.65625 131.574219 165.816406 131.566406 165.964844 131.546875 C 166.121094 131.53125 166.269531 131.511719 166.417969 131.488281 C 166.714844 131.441406 167.003906 131.386719 167.285156 131.320312 C 167.566406 131.253906 167.835938 131.175781 168.105469 131.097656 C 168.375 131.019531 168.636719 130.933594 168.890625 130.847656 C 169.148438 130.761719 169.394531 130.671875 169.636719 130.585938 C 169.871094 130.5 170.109375 130.414062 170.34375 130.328125 L 170.515625 130.265625 L 170.679688 130.207031 L 170.988281 130.105469 L 171.078125 130.074219 L 171.125 130.058594 C 171.113281 130.0625 171.132812 130.054688 171.128906 130.058594 L 171.148438 130.050781 L 171.324219 129.996094 C 171.441406 129.960938 171.558594 129.925781 171.675781 129.890625 C 172.140625 129.746094 172.609375 129.613281 173.074219 129.480469 C 173.542969 129.355469 174.003906 129.230469 174.464844 129.117188 C 175.382812 128.894531 176.289062 128.699219 177.167969 128.554688 C 177.386719 128.515625 177.601562 128.484375 177.820312 128.453125 C 177.925781 128.433594 178.035156 128.421875 178.140625 128.410156 C 178.246094 128.394531 178.355469 128.378906 178.460938 128.367188 C 178.882812 128.320312 179.296875 128.277344 179.699219 128.253906 C 179.75 128.25 179.800781 128.246094 179.851562 128.242188 C 179.902344 128.238281 179.953125 128.234375 180 128.234375 C 180.101562 128.230469 180.199219 128.226562 180.300781 128.21875 C 180.496094 128.214844 180.6875 128.214844 180.878906 128.210938 C 181.261719 128.207031 181.632812 128.21875 181.988281 128.242188 C 182.078125 128.246094 182.164062 128.25 182.253906 128.253906 C 182.339844 128.261719 182.425781 128.273438 182.511719 128.28125 C 182.597656 128.289062 182.679688 128.296875 182.765625 128.304688 C 182.847656 128.316406 182.929688 128.324219 183.011719 128.335938 C 183.09375 128.34375 183.175781 128.355469 183.253906 128.363281 C 183.332031 128.375 183.410156 128.386719 183.488281 128.402344 C 183.644531 128.425781 183.796875 128.453125 183.941406 128.480469 C 184.085938 128.507812 184.234375 128.53125 184.367188 128.566406 C 184.4375 128.582031 184.503906 128.597656 184.570312 128.613281 C 184.636719 128.628906 184.703125 128.640625 184.765625 128.65625 C 184.832031 128.675781 184.894531 128.691406 184.957031 128.707031 C 185.316406 128.941406 185.535156 129.339844 185.535156 129.769531 L 185.535156 139.832031 C 185.535156 140.746094 185.34375 141.660156 184.921875 142.46875 C 184.726562 142.839844 184.617188 143.261719 184.617188 143.710938 C 184.617188 144.15625 184.726562 144.578125 184.921875 144.949219 C 185.34375 145.757812 185.535156 146.671875 185.535156 147.585938 L 185.535156 154.78125 C 185.535156 155.660156 185.347656 156.527344 184.988281 157.332031 C 184.335938 158.785156 183.929688 160.847656 183.929688 163.136719 C 183.929688 164.339844 184.042969 165.480469 184.246094 166.503906 C 183.617188 166.796875 182.492188 167.433594 181.636719 168.523438 C 180.746094 169.652344 179.511719 170.460938 178.128906 170.867188 C 177.039062 171.1875 175.957031 171.792969 175.714844 172.9375 L 175.714844 174.148438 L 198.898438 174.148438 L 198.898438 172.9375 C 198.65625 171.792969 197.578125 171.191406 196.492188 170.867188 C 195.109375 170.460938 193.867188 169.652344 192.976562 168.523438 C 192.121094 167.433594 190.996094 166.796875 190.367188 166.503906 C 190.570312 165.480469 190.683594 164.339844 190.683594 163.136719 C 190.683594 160.847656 190.277344 158.785156 189.625 157.332031 C 189.265625 156.527344 189.078125 155.660156 189.078125 154.78125 L 189.078125 147.585938 C 189.078125 146.671875 189.269531 145.757812 189.691406 144.949219 C 189.886719 144.578125 189.996094 144.15625 189.996094 143.710938 C 189.996094 143.261719 189.886719 142.839844 189.691406 142.46875 C 189.269531 141.660156 189.078125 140.746094 189.078125 139.832031 L 189.078125 129.769531 C 189.078125 129.339844 189.296875 128.941406 189.65625 128.707031 C 189.71875 128.691406 189.785156 128.675781 189.847656 128.65625 C 189.910156 128.640625 189.976562 128.628906 190.042969 128.613281 C 190.109375 128.597656 190.175781 128.582031 190.246094 128.566406 C 190.378906 128.53125 190.527344 128.507812 190.671875 128.480469 C 190.816406 128.453125 190.96875 128.425781 191.125 128.402344 C 191.203125 128.386719 191.28125 128.375 191.359375 128.363281 C 191.4375 128.355469 191.519531 128.34375 191.601562 128.335938 C 191.683594 128.324219 191.765625 128.316406 191.847656 128.304688 C 191.933594 128.296875 192.015625 128.289062 192.101562 128.28125 C 192.1875 128.273438 192.273438 128.261719 192.363281 128.253906 C 192.449219 128.25 192.539062 128.246094 192.625 128.242188 C 192.980469 128.21875 193.351562 128.207031 193.734375 128.210938 C 193.925781 128.214844 194.117188 128.214844 194.3125 128.21875 C 194.414062 128.226562 194.511719 128.230469 194.609375 128.234375 C 194.660156 128.234375 194.710938 128.238281 194.761719 128.242188 C 194.8125 128.246094 194.863281 128.25 194.914062 128.253906 C 195.316406 128.277344 195.730469 128.320312 196.152344 128.367188 C 196.257812 128.378906 196.367188 128.394531 196.472656 128.410156 C 196.578125 128.421875 196.6875 128.433594 196.792969 128.453125 C 197.011719 128.484375 197.226562 128.515625 197.445312 128.554688 C 198.324219 128.699219 199.230469 128.894531 200.148438 129.117188 C 200.609375 129.230469 201.070312 129.355469 201.539062 129.480469 C 202.003906 129.613281 202.46875 129.746094 202.9375 129.890625 C 203.054688 129.925781 203.171875 129.960938 203.289062 129.996094 L 203.464844 130.050781 L 203.484375 130.058594 C 203.480469 130.054688 203.5 130.0625 203.488281 130.058594 L 203.535156 130.074219 L 203.625 130.105469 L 203.933594 130.207031 L 204.097656 130.265625 L 204.269531 130.328125 C 204.503906 130.414062 204.742188 130.5 204.976562 130.585938 C 205.21875 130.671875 205.46875 130.761719 205.722656 130.847656 C 205.976562 130.933594 206.242188 131.019531 206.503906 131.097656 C 206.777344 131.175781 207.046875 131.253906 207.328125 131.320312 C 207.609375 131.386719 207.898438 131.441406 208.195312 131.488281 C 208.34375 131.511719 208.492188 131.53125 208.648438 131.546875 C 208.796875 131.566406 208.957031 131.574219 209.109375 131.582031 C 209.425781 131.597656 209.746094 131.597656 210.074219 131.566406 C 210.238281 131.554688 210.40625 131.527344 210.570312 131.503906 C 210.652344 131.488281 210.734375 131.46875 210.816406 131.453125 C 210.902344 131.433594 210.980469 131.417969 211.066406 131.390625 C 211.726562 131.214844 212.367188 130.898438 212.871094 130.476562 C 212.933594 130.421875 212.992188 130.371094 213.054688 130.316406 C 213.113281 130.261719 213.171875 130.207031 213.226562 130.152344 L 213.351562 130.027344 C 213.417969 129.960938 213.375 130.003906 213.390625 129.988281 L 213.410156 129.964844 L 213.460938 129.902344 L 213.550781 129.796875 L 213.648438 129.675781 C 213.675781 129.640625 213.699219 129.605469 213.722656 129.570312 C 213.773438 129.503906 213.820312 129.429688 213.863281 129.359375 C 213.953125 129.214844 214.023438 129.0625 214.089844 128.914062 C 214.222656 128.609375 214.3125 128.292969 214.355469 127.96875 C 214.402344 127.648438 214.40625 127.320312 214.351562 127.003906 " fill-opacity="1" fill-rule="nonzero"/><g clip-path="url(#75d883e0cb)"><path fill="#d9d9d9" d="M 187.484375 184.460938 C 166.78125 184.460938 150 167.679688 150 146.976562 C 150 126.273438 166.78125 109.492188 187.484375 109.492188 C 208.1875 109.492188 224.96875 126.273438 224.96875 146.976562 C 224.96875 167.679688 208.1875 184.460938 187.484375 184.460938 Z M 187.484375 106.480469 C 165.117188 106.480469 146.984375 124.609375 146.984375 146.976562 C 146.984375 169.34375 165.117188 187.476562 187.484375 187.476562 C 209.851562 187.476562 227.984375 169.34375 227.984375 146.976562 C 227.984375 124.609375 209.851562 106.480469 187.484375 106.480469 " fill-opacity="1" fill-rule="nonzero"/></g><g fill="#d6ba97" fill-opacity="1"><g transform="translate(123.349623, 236.524226)"><g><path d="M 0.0898438 0 L 0.496094 0 L 0.988281 -1.09375 L 4.367188 -1.09375 L 4.867188 0 L 5.261719 0 L 2.730469 -5.40625 L 2.625 -5.40625 Z M 1.132812 -1.390625 L 2.65625 -4.714844 L 2.699219 -4.714844 L 4.230469 -1.390625 Z M 1.132812 -1.390625 "/></g></g></g><g fill="#d6ba97" fill-opacity="1"><g transform="translate(130.027672, 236.524226)"><g><path d="M 0.609375 0 L 2.707031 0 C 4.183594 0 5.308594 -1.109375 5.308594 -2.660156 C 5.308594 -4.214844 4.183594 -5.324219 2.707031 -5.324219 L 0.609375 -5.324219 Z M 0.964844 -0.335938 L 0.964844 -4.996094 L 2.707031 -4.996094 C 3.96875 -4.996094 4.953125 -4.023438 4.953125 -2.660156 C 4.953125 -1.308594 3.96875 -0.335938 2.707031 -0.335938 Z M 0.964844 -0.335938 "/></g></g></g><g fill="#d6ba97" fill-opacity="1"><g transform="translate(137.086023, 236.524226)"><g><path d="M 2.617188 0.0898438 L 2.722656 0.0898438 L 5.253906 -5.324219 L 4.859375 -5.324219 L 2.691406 -0.59375 L 2.648438 -0.59375 L 0.488281 -5.324219 L 0.0898438 -5.324219 Z M 2.617188 0.0898438 "/></g></g></g><g fill="#d6ba97" fill-opacity="1"><g transform="translate(143.75647, 236.524226)"><g><path d="M 3.074219 0.0898438 C 4.609375 0.0898438 5.734375 -1.050781 5.734375 -2.65625 C 5.734375 -4.257812 4.609375 -5.40625 3.074219 -5.40625 C 1.542969 -5.40625 0.417969 -4.257812 0.417969 -2.65625 C 0.417969 -1.050781 1.542969 0.0898438 3.074219 0.0898438 Z M 3.074219 -0.242188 C 1.742188 -0.242188 0.769531 -1.246094 0.769531 -2.65625 C 0.769531 -4.0625 1.742188 -5.074219 3.074219 -5.074219 C 4.410156 -5.074219 5.386719 -4.0625 5.386719 -2.65625 C 5.386719 -1.246094 4.410156 -0.242188 3.074219 -0.242188 Z M 3.074219 -0.242188 "/></g></g></g><g fill="#d6ba97" fill-opacity="1"><g transform="translate(151.233149, 236.524226)"><g><path d="M 3.050781 0.0898438 C 4.410156 0.0898438 5.507812 -0.929688 5.582031 -2.472656 L 6.199219 -2.472656 L 6.199219 -2.785156 L 3.210938 -2.785156 L 3.210938 -2.472656 L 5.234375 -2.472656 C 5.15625 -1.164062 4.207031 -0.242188 3.050781 -0.242188 C 1.773438 -0.242188 0.769531 -1.179688 0.769531 -2.585938 C 0.769531 -3.957031 1.789062 -5.074219 3.125 -5.074219 C 3.910156 -5.074219 4.578125 -4.746094 4.9375 -4.351562 L 5.1875 -4.632812 C 4.792969 -5.050781 4.207031 -5.40625 3.125 -5.40625 C 1.589844 -5.40625 0.417969 -4.144531 0.417969 -2.585938 C 0.417969 -0.980469 1.574219 0.0898438 3.050781 0.0898438 Z M 3.050781 0.0898438 "/></g></g></g><g fill="#d6ba97" fill-opacity="1"><g transform="translate(158.976035, 236.524226)"><g><path d="M 0.0898438 0 L 0.496094 0 L 0.988281 -1.09375 L 4.367188 -1.09375 L 4.867188 0 L 5.261719 0 L 2.730469 -5.40625 L 2.625 -5.40625 Z M 1.132812 -1.390625 L 2.65625 -4.714844 L 2.699219 -4.714844 L 4.230469 -1.390625 Z M 1.132812 -1.390625 "/></g></g></g><g fill="#d6ba97" fill-opacity="1"><g transform="translate(165.654083, 236.524226)"><g><path d="M 0.609375 0 L 2.707031 0 C 4.183594 0 5.308594 -1.109375 5.308594 -2.660156 C 5.308594 -4.214844 4.183594 -5.324219 2.707031 -5.324219 L 0.609375 -5.324219 Z M 0.964844 -0.335938 L 0.964844 -4.996094 L 2.707031 -4.996094 C 3.96875 -4.996094 4.953125 -4.023438 4.953125 -2.660156 C 4.953125 -1.308594 3.96875 -0.335938 2.707031 -0.335938 Z M 0.964844 -0.335938 "/></g></g></g><g fill="#d6ba97" fill-opacity="1"><g transform="translate(172.712431, 236.524226)"><g><path d="M 3.074219 0.0898438 C 4.609375 0.0898438 5.734375 -1.050781 5.734375 -2.65625 C 5.734375 -4.257812 4.609375 -5.40625 3.074219 -5.40625 C 1.542969 -5.40625 0.417969 -4.257812 0.417969 -2.65625 C 0.417969 -1.050781 1.542969 0.0898438 3.074219 0.0898438 Z M 3.074219 -0.242188 C 1.742188 -0.242188 0.769531 -1.246094 0.769531 -2.65625 C 0.769531 -4.0625 1.742188 -5.074219 3.074219 -5.074219 C 4.410156 -5.074219 5.386719 -4.0625 5.386719 -2.65625 C 5.386719 -1.246094 4.410156 -0.242188 3.074219 -0.242188 Z M 3.074219 -0.242188 "/></g></g></g><g fill="#d6ba97" fill-opacity="1"><g transform="translate(180.189109, 236.524226)"><g><path d="M 2.472656 0.0898438 C 3.671875 0.0898438 4.402344 -0.515625 4.402344 -1.382812 C 4.402344 -2.152344 3.894531 -2.570312 2.523438 -2.851562 C 1.324219 -3.101562 0.90625 -3.421875 0.90625 -4 C 0.90625 -4.570312 1.445312 -5.082031 2.378906 -5.082031 C 3.148438 -5.082031 3.742188 -4.859375 4.105469 -4.65625 L 4.105469 -5.019531 C 3.726562 -5.21875 3.132812 -5.40625 2.402344 -5.40625 C 1.300781 -5.40625 0.539062 -4.792969 0.539062 -3.992188 C 0.539062 -3.1875 1.09375 -2.800781 2.402344 -2.53125 C 3.652344 -2.273438 4.039062 -1.945312 4.039062 -1.363281 C 4.039062 -0.699219 3.40625 -0.226562 2.496094 -0.226562 C 1.871094 -0.226562 1.027344 -0.402344 0.410156 -0.785156 L 0.328125 -0.449219 C 0.890625 -0.121094 1.863281 0.0898438 2.472656 0.0898438 Z M 2.472656 0.0898438 "/></g></g></g><g fill="#d6ba97" fill-opacity="1"><g transform="translate(186.304317, 236.524226)"><g/></g></g><g fill="#d6ba97" fill-opacity="1"><g transform="translate(189.681364, 236.524226)"><g><path d="M 0.0898438 0 L 0.496094 0 L 0.988281 -1.09375 L 4.367188 -1.09375 L 4.867188 0 L 5.261719 0 L 2.730469 -5.40625 L 2.625 -5.40625 Z M 1.132812 -1.390625 L 2.65625 -4.714844 L 2.699219 -4.714844 L 4.230469 -1.390625 Z M 1.132812 -1.390625 "/></g></g></g><g fill="#d6ba97" fill-opacity="1"><g transform="translate(196.359412, 236.524226)"><g><path d="M 2.472656 0.0898438 C 3.671875 0.0898438 4.402344 -0.515625 4.402344 -1.382812 C 4.402344 -2.152344 3.894531 -2.570312 2.523438 -2.851562 C 1.324219 -3.101562 0.90625 -3.421875 0.90625 -4 C 0.90625 -4.570312 1.445312 -5.082031 2.378906 -5.082031 C 3.148438 -5.082031 3.742188 -4.859375 4.105469 -4.65625 L 4.105469 -5.019531 C 3.726562 -5.21875 3.132812 -5.40625 2.402344 -5.40625 C 1.300781 -5.40625 0.539062 -4.792969 0.539062 -3.992188 C 0.539062 -3.1875 1.09375 -2.800781 2.402344 -2.53125 C 3.652344 -2.273438 4.039062 -1.945312 4.039062 -1.363281 C 4.039062 -0.699219 3.40625 -0.226562 2.496094 -0.226562 C 1.871094 -0.226562 1.027344 -0.402344 0.410156 -0.785156 L 0.328125 -0.449219 C 0.890625 -0.121094 1.863281 0.0898438 2.472656 0.0898438 Z M 2.472656 0.0898438 "/></g></g></g><g fill="#d6ba97" fill-opacity="1"><g transform="translate(202.47462, 236.524226)"><g><path d="M 2.472656 0.0898438 C 3.671875 0.0898438 4.402344 -0.515625 4.402344 -1.382812 C 4.402344 -2.152344 3.894531 -2.570312 2.523438 -2.851562 C 1.324219 -3.101562 0.90625 -3.421875 0.90625 -4 C 0.90625 -4.570312 1.445312 -5.082031 2.378906 -5.082031 C 3.148438 -5.082031 3.742188 -4.859375 4.105469 -4.65625 L 4.105469 -5.019531 C 3.726562 -5.21875 3.132812 -5.40625 2.402344 -5.40625 C 1.300781 -5.40625 0.539062 -4.792969 0.539062 -3.992188 C 0.539062 -3.1875 1.09375 -2.800781 2.402344 -2.53125 C 3.652344 -2.273438 4.039062 -1.945312 4.039062 -1.363281 C 4.039062 -0.699219 3.40625 -0.226562 2.496094 -0.226562 C 1.871094 -0.226562 1.027344 -0.402344 0.410156 -0.785156 L 0.328125 -0.449219 C 0.890625 -0.121094 1.863281 0.0898438 2.472656 0.0898438 Z M 2.472656 0.0898438 "/></g></g></g><g fill="#d6ba97" fill-opacity="1"><g transform="translate(208.589828, 236.524226)"><g><path d="M 3.074219 0.0898438 C 4.609375 0.0898438 5.734375 -1.050781 5.734375 -2.65625 C 5.734375 -4.257812 4.609375 -5.40625 3.074219 -5.40625 C 1.542969 -5.40625 0.417969 -4.257812 0.417969 -2.65625 C 0.417969 -1.050781 1.542969 0.0898438 3.074219 0.0898438 Z M 3.074219 -0.242188 C 1.742188 -0.242188 0.769531 -1.246094 0.769531 -2.65625 C 0.769531 -4.0625 1.742188 -5.074219 3.074219 -5.074219 C 4.410156 -5.074219 5.386719 -4.0625 5.386719 -2.65625 C 5.386719 -1.246094 4.410156 -0.242188 3.074219 -0.242188 Z M 3.074219 -0.242188 "/></g></g></g><g fill="#d6ba97" fill-opacity="1"><g transform="translate(216.066505, 236.524226)"><g><path d="M 3.316406 0.0898438 C 4.023438 0.0898438 4.640625 -0.113281 5.125 -0.472656 L 5.125 -0.859375 C 4.675781 -0.480469 4.023438 -0.242188 3.316406 -0.242188 C 1.832031 -0.242188 0.769531 -1.1875 0.769531 -2.617188 C 0.769531 -4.015625 1.824219 -5.074219 3.308594 -5.074219 C 3.886719 -5.074219 4.382812 -4.921875 4.800781 -4.65625 L 4.84375 -5.050781 C 4.410156 -5.277344 3.871094 -5.40625 3.316406 -5.40625 C 1.628906 -5.40625 0.417969 -4.222656 0.417969 -2.617188 C 0.417969 -0.996094 1.621094 0.0898438 3.316406 0.0898438 Z M 3.316406 0.0898438 "/></g></g></g><g fill="#d6ba97" fill-opacity="1"><g transform="translate(222.729339, 236.524226)"><g><path d="M 0.609375 0 L 0.964844 0 L 0.964844 -5.324219 L 0.609375 -5.324219 Z M 0.609375 0 "/></g></g></g><g fill="#d6ba97" fill-opacity="1"><g transform="translate(225.627215, 236.524226)"><g><path d="M 0.0898438 0 L 0.496094 0 L 0.988281 -1.09375 L 4.367188 -1.09375 L 4.867188 0 L 5.261719 0 L 2.730469 -5.40625 L 2.625 -5.40625 Z M 1.132812 -1.390625 L 2.65625 -4.714844 L 2.699219 -4.714844 L 4.230469 -1.390625 Z M 1.132812 -1.390625 "/></g></g></g><g fill="#d6ba97" fill-opacity="1"><g transform="translate(232.305262, 236.524226)"><g><path d="M 0.609375 0 L 2.707031 0 C 4.183594 0 5.308594 -1.109375 5.308594 -2.660156 C 5.308594 -4.214844 4.183594 -5.324219 2.707031 -5.324219 L 0.609375 -5.324219 Z M 0.964844 -0.335938 L 0.964844 -4.996094 L 2.707031 -4.996094 C 3.96875 -4.996094 4.953125 -4.023438 4.953125 -2.660156 C 4.953125 -1.308594 3.96875 -0.335938 2.707031 -0.335938 Z M 0.964844 -0.335938 "/></g></g></g><g fill="#d6ba97" fill-opacity="1"><g transform="translate(239.363611, 236.524226)"><g><path d="M 3.074219 0.0898438 C 4.609375 0.0898438 5.734375 -1.050781 5.734375 -2.65625 C 5.734375 -4.257812 4.609375 -5.40625 3.074219 -5.40625 C 1.542969 -5.40625 0.417969 -4.257812 0.417969 -2.65625 C 0.417969 -1.050781 1.542969 0.0898438 3.074219 0.0898438 Z M 3.074219 -0.242188 C 1.742188 -0.242188 0.769531 -1.246094 0.769531 -2.65625 C 0.769531 -4.0625 1.742188 -5.074219 3.074219 -5.074219 C 4.410156 -5.074219 5.386719 -4.0625 5.386719 -2.65625 C 5.386719 -1.246094 4.410156 -0.242188 3.074219 -0.242188 Z M 3.074219 -0.242188 "/></g></g></g><g fill="#d6ba97" fill-opacity="1"><g transform="translate(246.840288, 236.524226)"><g><path d="M 2.472656 0.0898438 C 3.671875 0.0898438 4.402344 -0.515625 4.402344 -1.382812 C 4.402344 -2.152344 3.894531 -2.570312 2.523438 -2.851562 C 1.324219 -3.101562 0.90625 -3.421875 0.90625 -4 C 0.90625 -4.570312 1.445312 -5.082031 2.378906 -5.082031 C 3.148438 -5.082031 3.742188 -4.859375 4.105469 -4.65625 L 4.105469 -5.019531 C 3.726562 -5.21875 3.132812 -5.40625 2.402344 -5.40625 C 1.300781 -5.40625 0.539062 -4.792969 0.539062 -3.992188 C 0.539062 -3.1875 1.09375 -2.800781 2.402344 -2.53125 C 3.652344 -2.273438 4.039062 -1.945312 4.039062 -1.363281 C 4.039062 -0.699219 3.40625 -0.226562 2.496094 -0.226562 C 1.871094 -0.226562 1.027344 -0.402344 0.410156 -0.785156 L 0.328125 -0.449219 C 0.890625 -0.121094 1.863281 0.0898438 2.472656 0.0898438 Z M 2.472656 0.0898438 "/></g></g></g></svg>