<svg xmlns="http://www.w3.org/2000/svg" xmlns:xlink="http://www.w3.org/1999/xlink" width="800" zoomAndPan="magnify" viewBox="0 0 600 374.999991" height="500" preserveAspectRatio="xMidYMid meet" version="1.0"><defs><g/><clipPath id="e56752e824"><path d="M 49.882812 106.53125 L 211.882812 106.53125 L 211.882812 268.53125 L 49.882812 268.53125 Z M 49.882812 106.53125 " clip-rule="nonzero"/></clipPath></defs><g fill="#ffffff" fill-opacity="1"><g transform="translate(245.993419, 185.076618)"><g><path d="M 0.75 0 L 0.75 -0.71875 C 2.125 -0.75 2.988281 -1.269531 3.34375 -2.28125 L 8.15625 -16.15625 C 8.21875 -16.34375 8.28125 -16.46875 8.34375 -16.53125 C 8.414062 -16.59375 8.535156 -16.625 8.703125 -16.625 C 8.796875 -16.625 8.867188 -16.613281 8.921875 -16.59375 C 8.984375 -16.582031 9.03125 -16.550781 9.0625 -16.5 C 9.101562 -16.445312 9.128906 -16.40625 9.140625 -16.375 C 9.160156 -16.34375 9.191406 -16.269531 9.234375 -16.15625 L 14.25 -1.640625 C 14.375 -1.253906 14.5625 -1.003906 14.8125 -0.890625 C 15.0625 -0.773438 15.535156 -0.71875 16.234375 -0.71875 L 16.640625 -0.71875 L 16.640625 0 C 15.671875 -0.0390625 14.660156 -0.0625 13.609375 -0.0625 C 11.929688 -0.0625 10.816406 -0.0390625 10.265625 0 L 10.265625 -0.71875 C 11.546875 -0.71875 12.1875 -0.953125 12.1875 -1.421875 C 12.1875 -1.453125 12.164062 -1.5625 12.125 -1.75 L 10.890625 -5.296875 L 5.15625 -5.296875 L 4.078125 -2.25 C 4.046875 -2.195312 4.03125 -2.082031 4.03125 -1.90625 C 4.03125 -1.582031 4.179688 -1.300781 4.484375 -1.0625 C 4.785156 -0.832031 5.21875 -0.71875 5.78125 -0.71875 L 5.78125 0 C 4.289062 -0.0390625 3.398438 -0.0625 3.109375 -0.0625 C 2.597656 -0.0625 1.8125 -0.0390625 0.75 0 Z M 5.40625 -6.015625 L 10.640625 -6.015625 L 8.015625 -13.5625 Z M 5.40625 -6.015625 "/></g></g></g><g fill="#ffffff" fill-opacity="1"><g transform="translate(263.401483, 185.076618)"><g><path d="M 0.8125 0 L 0.8125 -0.71875 L 1.375 -0.71875 C 2.207031 -0.71875 2.71875 -0.785156 2.90625 -0.921875 C 3.101562 -1.066406 3.203125 -1.363281 3.203125 -1.8125 L 3.203125 -14.046875 C 3.203125 -14.492188 3.101562 -14.785156 2.90625 -14.921875 C 2.71875 -15.066406 2.207031 -15.140625 1.375 -15.140625 L 0.8125 -15.140625 L 0.8125 -15.859375 L 9.3125 -15.859375 C 11.289062 -15.859375 12.96875 -15.066406 14.34375 -13.484375 C 15.726562 -11.910156 16.421875 -10.015625 16.421875 -7.796875 C 16.421875 -5.628906 15.722656 -3.785156 14.328125 -2.265625 C 12.941406 -0.753906 11.269531 0 9.3125 0 Z M 5.203125 -1.640625 C 5.203125 -1.242188 5.257812 -0.988281 5.375 -0.875 C 5.488281 -0.769531 5.8125 -0.71875 6.34375 -0.71875 L 8.6875 -0.71875 C 9.707031 -0.71875 10.5625 -0.925781 11.25 -1.34375 C 11.9375 -1.757812 12.457031 -2.210938 12.8125 -2.703125 C 13.664062 -3.859375 14.09375 -5.554688 14.09375 -7.796875 C 14.09375 -10.148438 13.691406 -11.878906 12.890625 -12.984375 C 11.859375 -14.421875 10.445312 -15.140625 8.65625 -15.140625 L 6.34375 -15.140625 C 5.8125 -15.140625 5.488281 -15.082031 5.375 -14.96875 C 5.257812 -14.863281 5.203125 -14.609375 5.203125 -14.203125 Z M 5.203125 -1.640625 "/></g></g></g><g fill="#ffffff" fill-opacity="1"><g transform="translate(281.104215, 185.076618)"><g><path d="M 0.4375 -15.140625 L 0.4375 -15.859375 C 2.113281 -15.816406 3.097656 -15.796875 3.390625 -15.796875 C 5.046875 -15.796875 6.15625 -15.816406 6.71875 -15.859375 L 6.71875 -15.140625 C 5.445312 -15.140625 4.8125 -14.914062 4.8125 -14.46875 C 4.8125 -14.40625 4.851562 -14.265625 4.9375 -14.046875 L 9.375 -2.328125 L 13.625 -13.515625 C 13.695312 -13.742188 13.734375 -13.898438 13.734375 -13.984375 C 13.734375 -14.285156 13.59375 -14.546875 13.3125 -14.765625 C 13.03125 -14.992188 12.609375 -15.117188 12.046875 -15.140625 L 12.046875 -15.859375 C 13.253906 -15.816406 14.132812 -15.796875 14.6875 -15.796875 C 15.476562 -15.796875 16.234375 -15.816406 16.953125 -15.859375 L 16.953125 -15.140625 C 15.648438 -15.117188 14.804688 -14.597656 14.421875 -13.578125 L 9.234375 0.0625 C 9.179688 0.25 9.125 0.367188 9.0625 0.421875 C 9 0.484375 8.875 0.515625 8.6875 0.515625 C 8.53125 0.515625 8.410156 0.484375 8.328125 0.421875 C 8.253906 0.359375 8.179688 0.21875 8.109375 0 L 2.71875 -14.25 C 2.570312 -14.664062 2.359375 -14.914062 2.078125 -15 C 1.804688 -15.09375 1.257812 -15.140625 0.4375 -15.140625 Z M 0.4375 -15.140625 "/></g></g></g><g fill="#ffffff" fill-opacity="1"><g transform="translate(298.51228, 185.076618)"><g><path d="M 1.296875 -7.875 C 1.296875 -10.238281 2.050781 -12.242188 3.5625 -13.890625 C 5.082031 -15.546875 6.898438 -16.375 9.015625 -16.375 C 11.140625 -16.375 12.957031 -15.546875 14.46875 -13.890625 C 15.988281 -12.234375 16.75 -10.226562 16.75 -7.875 C 16.75 -5.53125 15.988281 -3.546875 14.46875 -1.921875 C 12.945312 -0.296875 11.128906 0.515625 9.015625 0.515625 C 6.929688 0.515625 5.125 -0.289062 3.59375 -1.90625 C 2.0625 -3.53125 1.296875 -5.519531 1.296875 -7.875 Z M 3.703125 -8.203125 C 3.703125 -6.765625 3.867188 -5.492188 4.203125 -4.390625 C 4.546875 -3.296875 4.988281 -2.445312 5.53125 -1.84375 C 6.082031 -1.25 6.648438 -0.804688 7.234375 -0.515625 C 7.828125 -0.234375 8.425781 -0.09375 9.03125 -0.09375 C 9.625 -0.09375 10.207031 -0.226562 10.78125 -0.5 C 11.363281 -0.78125 11.929688 -1.21875 12.484375 -1.8125 C 13.035156 -2.40625 13.484375 -3.253906 13.828125 -4.359375 C 14.179688 -5.460938 14.359375 -6.742188 14.359375 -8.203125 C 14.359375 -9.328125 14.234375 -10.34375 13.984375 -11.25 C 13.742188 -12.164062 13.4375 -12.898438 13.0625 -13.453125 C 12.6875 -14.003906 12.253906 -14.460938 11.765625 -14.828125 C 11.273438 -15.191406 10.800781 -15.441406 10.34375 -15.578125 C 9.882812 -15.722656 9.441406 -15.796875 9.015625 -15.796875 C 8.472656 -15.796875 7.914062 -15.671875 7.34375 -15.421875 C 6.78125 -15.179688 6.210938 -14.796875 5.640625 -14.265625 C 5.066406 -13.734375 4.597656 -12.941406 4.234375 -11.890625 C 3.878906 -10.847656 3.703125 -9.617188 3.703125 -8.203125 Z M 3.703125 -8.203125 "/></g></g></g><g fill="#ffffff" fill-opacity="1"><g transform="translate(316.543685, 185.076618)"><g><path d="M 1.296875 -7.9375 C 1.296875 -10.269531 2.09375 -12.257812 3.6875 -13.90625 C 5.289062 -15.550781 7.1875 -16.375 9.375 -16.375 C 10.050781 -16.375 10.691406 -16.25 11.296875 -16 C 11.898438 -15.75 12.34375 -15.515625 12.625 -15.296875 C 12.90625 -15.078125 13.25 -14.769531 13.65625 -14.375 L 14.8125 -16.09375 C 14.9375 -16.28125 15.0625 -16.375 15.1875 -16.375 C 15.3125 -16.375 15.382812 -16.335938 15.40625 -16.265625 C 15.425781 -16.191406 15.4375 -16.039062 15.4375 -15.8125 L 15.4375 -10.3125 C 15.4375 -10.0625 15.421875 -9.90625 15.390625 -9.84375 C 15.359375 -9.78125 15.25 -9.75 15.0625 -9.75 C 14.914062 -9.75 14.820312 -9.769531 14.78125 -9.8125 C 14.75 -9.863281 14.71875 -9.972656 14.6875 -10.140625 C 14.457031 -11.816406 13.878906 -13.148438 12.953125 -14.140625 C 12.023438 -15.140625 10.921875 -15.640625 9.640625 -15.640625 C 9.265625 -15.640625 8.867188 -15.597656 8.453125 -15.515625 C 8.046875 -15.429688 7.546875 -15.226562 6.953125 -14.90625 C 6.359375 -14.59375 5.832031 -14.175781 5.375 -13.65625 C 4.914062 -13.132812 4.519531 -12.375 4.1875 -11.375 C 3.863281 -10.382812 3.703125 -9.226562 3.703125 -7.90625 C 3.703125 -6.613281 3.863281 -5.46875 4.1875 -4.46875 C 4.519531 -3.46875 4.914062 -2.707031 5.375 -2.1875 C 5.832031 -1.675781 6.359375 -1.257812 6.953125 -0.9375 C 7.546875 -0.625 8.050781 -0.421875 8.46875 -0.328125 C 8.894531 -0.242188 9.289062 -0.203125 9.65625 -0.203125 C 10.988281 -0.203125 12.164062 -0.671875 13.1875 -1.609375 C 14.207031 -2.554688 14.765625 -3.832031 14.859375 -5.4375 C 14.878906 -5.507812 14.890625 -5.5625 14.890625 -5.59375 C 14.890625 -5.625 14.894531 -5.660156 14.90625 -5.703125 C 14.925781 -5.742188 14.953125 -5.769531 14.984375 -5.78125 C 15.023438 -5.800781 15.078125 -5.8125 15.140625 -5.8125 C 15.335938 -5.8125 15.4375 -5.675781 15.4375 -5.40625 C 15.4375 -3.9375 14.867188 -2.582031 13.734375 -1.34375 C 12.609375 -0.101562 11.15625 0.515625 9.375 0.515625 C 7.175781 0.515625 5.28125 -0.300781 3.6875 -1.9375 C 2.09375 -3.570312 1.296875 -5.570312 1.296875 -7.9375 Z M 1.296875 -7.9375 "/></g></g></g><g fill="#ffffff" fill-opacity="1"><g transform="translate(333.294413, 185.076618)"><g><path d="M 0.75 0 L 0.75 -0.71875 C 2.125 -0.75 2.988281 -1.269531 3.34375 -2.28125 L 8.15625 -16.15625 C 8.21875 -16.34375 8.28125 -16.46875 8.34375 -16.53125 C 8.414062 -16.59375 8.535156 -16.625 8.703125 -16.625 C 8.796875 -16.625 8.867188 -16.613281 8.921875 -16.59375 C 8.984375 -16.582031 9.03125 -16.550781 9.0625 -16.5 C 9.101562 -16.445312 9.128906 -16.40625 9.140625 -16.375 C 9.160156 -16.34375 9.191406 -16.269531 9.234375 -16.15625 L 14.25 -1.640625 C 14.375 -1.253906 14.5625 -1.003906 14.8125 -0.890625 C 15.0625 -0.773438 15.535156 -0.71875 16.234375 -0.71875 L 16.640625 -0.71875 L 16.640625 0 C 15.671875 -0.0390625 14.660156 -0.0625 13.609375 -0.0625 C 11.929688 -0.0625 10.816406 -0.0390625 10.265625 0 L 10.265625 -0.71875 C 11.546875 -0.71875 12.1875 -0.953125 12.1875 -1.421875 C 12.1875 -1.453125 12.164062 -1.5625 12.125 -1.75 L 10.890625 -5.296875 L 5.15625 -5.296875 L 4.078125 -2.25 C 4.046875 -2.195312 4.03125 -2.082031 4.03125 -1.90625 C 4.03125 -1.582031 4.179688 -1.300781 4.484375 -1.0625 C 4.785156 -0.832031 5.21875 -0.71875 5.78125 -0.71875 L 5.78125 0 C 4.289062 -0.0390625 3.398438 -0.0625 3.109375 -0.0625 C 2.597656 -0.0625 1.8125 -0.0390625 0.75 0 Z M 5.40625 -6.015625 L 10.640625 -6.015625 L 8.015625 -13.5625 Z M 5.40625 -6.015625 "/></g></g></g><g fill="#ffffff" fill-opacity="1"><g transform="translate(350.702477, 185.076618)"><g><path d="M 1.296875 -7.9375 C 1.296875 -10.269531 2.09375 -12.257812 3.6875 -13.90625 C 5.289062 -15.550781 7.1875 -16.375 9.375 -16.375 C 10.050781 -16.375 10.691406 -16.25 11.296875 -16 C 11.898438 -15.75 12.34375 -15.515625 12.625 -15.296875 C 12.90625 -15.078125 13.25 -14.769531 13.65625 -14.375 L 14.8125 -16.09375 C 14.9375 -16.28125 15.0625 -16.375 15.1875 -16.375 C 15.3125 -16.375 15.382812 -16.335938 15.40625 -16.265625 C 15.425781 -16.191406 15.4375 -16.039062 15.4375 -15.8125 L 15.4375 -10.3125 C 15.4375 -10.0625 15.421875 -9.90625 15.390625 -9.84375 C 15.359375 -9.78125 15.25 -9.75 15.0625 -9.75 C 14.914062 -9.75 14.820312 -9.769531 14.78125 -9.8125 C 14.75 -9.863281 14.71875 -9.972656 14.6875 -10.140625 C 14.457031 -11.816406 13.878906 -13.148438 12.953125 -14.140625 C 12.023438 -15.140625 10.921875 -15.640625 9.640625 -15.640625 C 9.265625 -15.640625 8.867188 -15.597656 8.453125 -15.515625 C 8.046875 -15.429688 7.546875 -15.226562 6.953125 -14.90625 C 6.359375 -14.59375 5.832031 -14.175781 5.375 -13.65625 C 4.914062 -13.132812 4.519531 -12.375 4.1875 -11.375 C 3.863281 -10.382812 3.703125 -9.226562 3.703125 -7.90625 C 3.703125 -6.613281 3.863281 -5.46875 4.1875 -4.46875 C 4.519531 -3.46875 4.914062 -2.707031 5.375 -2.1875 C 5.832031 -1.675781 6.359375 -1.257812 6.953125 -0.9375 C 7.546875 -0.625 8.050781 -0.421875 8.46875 -0.328125 C 8.894531 -0.242188 9.289062 -0.203125 9.65625 -0.203125 C 10.988281 -0.203125 12.164062 -0.671875 13.1875 -1.609375 C 14.207031 -2.554688 14.765625 -3.832031 14.859375 -5.4375 C 14.878906 -5.507812 14.890625 -5.5625 14.890625 -5.59375 C 14.890625 -5.625 14.894531 -5.660156 14.90625 -5.703125 C 14.925781 -5.742188 14.953125 -5.769531 14.984375 -5.78125 C 15.023438 -5.800781 15.078125 -5.8125 15.140625 -5.8125 C 15.335938 -5.8125 15.4375 -5.675781 15.4375 -5.40625 C 15.4375 -3.9375 14.867188 -2.582031 13.734375 -1.34375 C 12.609375 -0.101562 11.15625 0.515625 9.375 0.515625 C 7.175781 0.515625 5.28125 -0.300781 3.6875 -1.9375 C 2.09375 -3.570312 1.296875 -5.570312 1.296875 -7.9375 Z M 1.296875 -7.9375 "/></g></g></g><g fill="#ffffff" fill-opacity="1"><g transform="translate(367.453206, 185.076618)"><g><path d="M 0.640625 0 L 0.640625 -0.71875 L 1.265625 -0.71875 C 2.128906 -0.71875 2.660156 -0.785156 2.859375 -0.921875 C 3.054688 -1.066406 3.15625 -1.363281 3.15625 -1.8125 L 3.15625 -14.046875 C 3.15625 -14.492188 3.050781 -14.785156 2.84375 -14.921875 C 2.644531 -15.066406 2.117188 -15.140625 1.265625 -15.140625 L 0.640625 -15.140625 L 0.640625 -15.859375 C 1.191406 -15.816406 2.378906 -15.796875 4.203125 -15.796875 C 6.015625 -15.796875 7.191406 -15.816406 7.734375 -15.859375 L 7.734375 -15.140625 L 7.125 -15.140625 C 6.257812 -15.140625 5.722656 -15.066406 5.515625 -14.921875 C 5.316406 -14.785156 5.21875 -14.492188 5.21875 -14.046875 L 5.21875 -1.8125 C 5.21875 -1.363281 5.316406 -1.066406 5.515625 -0.921875 C 5.722656 -0.785156 6.257812 -0.71875 7.125 -0.71875 L 7.734375 -0.71875 L 7.734375 0 C 7.191406 -0.0390625 6.007812 -0.0625 4.1875 -0.0625 C 2.375 -0.0625 1.191406 -0.0390625 0.640625 0 Z M 0.640625 0 "/></g></g></g><g fill="#ffffff" fill-opacity="1"><g transform="translate(375.828575, 185.076618)"><g><path d="M 0.75 0 L 0.75 -0.71875 C 2.125 -0.75 2.988281 -1.269531 3.34375 -2.28125 L 8.15625 -16.15625 C 8.21875 -16.34375 8.28125 -16.46875 8.34375 -16.53125 C 8.414062 -16.59375 8.535156 -16.625 8.703125 -16.625 C 8.796875 -16.625 8.867188 -16.613281 8.921875 -16.59375 C 8.984375 -16.582031 9.03125 -16.550781 9.0625 -16.5 C 9.101562 -16.445312 9.128906 -16.40625 9.140625 -16.375 C 9.160156 -16.34375 9.191406 -16.269531 9.234375 -16.15625 L 14.25 -1.640625 C 14.375 -1.253906 14.5625 -1.003906 14.8125 -0.890625 C 15.0625 -0.773438 15.535156 -0.71875 16.234375 -0.71875 L 16.640625 -0.71875 L 16.640625 0 C 15.671875 -0.0390625 14.660156 -0.0625 13.609375 -0.0625 C 11.929688 -0.0625 10.816406 -0.0390625 10.265625 0 L 10.265625 -0.71875 C 11.546875 -0.71875 12.1875 -0.953125 12.1875 -1.421875 C 12.1875 -1.453125 12.164062 -1.5625 12.125 -1.75 L 10.890625 -5.296875 L 5.15625 -5.296875 L 4.078125 -2.25 C 4.046875 -2.195312 4.03125 -2.082031 4.03125 -1.90625 C 4.03125 -1.582031 4.179688 -1.300781 4.484375 -1.0625 C 4.785156 -0.832031 5.21875 -0.71875 5.78125 -0.71875 L 5.78125 0 C 4.289062 -0.0390625 3.398438 -0.0625 3.109375 -0.0625 C 2.597656 -0.0625 1.8125 -0.0390625 0.75 0 Z M 5.40625 -6.015625 L 10.640625 -6.015625 L 8.015625 -13.5625 Z M 5.40625 -6.015625 "/></g></g></g><g fill="#ffffff" fill-opacity="1"><g transform="translate(393.23664, 185.076618)"><g/></g></g><g fill="#ffffff" fill-opacity="1"><g transform="translate(400.954674, 185.076618)"><g><path d="M 0.765625 0 L 0.765625 -0.71875 L 1.328125 -0.71875 C 2.160156 -0.71875 2.671875 -0.785156 2.859375 -0.921875 C 3.054688 -1.066406 3.15625 -1.363281 3.15625 -1.8125 L 3.15625 -14.046875 C 3.15625 -14.492188 3.054688 -14.785156 2.859375 -14.921875 C 2.671875 -15.066406 2.160156 -15.140625 1.328125 -15.140625 L 0.765625 -15.140625 L 0.765625 -15.859375 C 1.316406 -15.816406 2.492188 -15.796875 4.296875 -15.796875 C 6.335938 -15.796875 7.640625 -15.816406 8.203125 -15.859375 L 8.203125 -15.140625 L 7.421875 -15.140625 C 6.710938 -15.140625 6.195312 -15.09375 5.875 -15 C 5.550781 -14.90625 5.359375 -14.796875 5.296875 -14.671875 C 5.242188 -14.546875 5.21875 -14.332031 5.21875 -14.03125 L 5.21875 -1.640625 C 5.21875 -1.242188 5.273438 -0.988281 5.390625 -0.875 C 5.515625 -0.769531 5.835938 -0.71875 6.359375 -0.71875 L 8.265625 -0.71875 C 9.046875 -0.71875 9.71875 -0.832031 10.28125 -1.0625 C 10.851562 -1.300781 11.289062 -1.566406 11.59375 -1.859375 C 11.894531 -2.148438 12.144531 -2.570312 12.34375 -3.125 C 12.550781 -3.6875 12.6875 -4.144531 12.75 -4.5 C 12.8125 -4.851562 12.875 -5.347656 12.9375 -5.984375 L 13.515625 -5.984375 L 12.875 0 Z M 0.765625 0 "/></g></g></g><g fill="#ffffff" fill-opacity="1"><g transform="translate(415.461394, 185.076618)"><g><path d="M 0.765625 0 L 0.765625 -0.71875 L 1.328125 -0.71875 C 2.160156 -0.71875 2.671875 -0.785156 2.859375 -0.921875 C 3.054688 -1.066406 3.15625 -1.363281 3.15625 -1.8125 L 3.15625 -13.984375 C 3.15625 -14.421875 3.054688 -14.707031 2.859375 -14.84375 C 2.671875 -14.988281 2.160156 -15.0625 1.328125 -15.0625 L 0.765625 -15.0625 L 0.765625 -15.796875 L 13.84375 -15.796875 L 14.484375 -10.5625 L 13.90625 -10.5625 C 13.800781 -11.445312 13.675781 -12.144531 13.53125 -12.65625 C 13.394531 -13.164062 13.160156 -13.617188 12.828125 -14.015625 C 12.492188 -14.410156 12.050781 -14.679688 11.5 -14.828125 C 10.957031 -14.984375 10.242188 -15.0625 9.359375 -15.0625 L 6.359375 -15.0625 C 5.828125 -15.0625 5.503906 -15.003906 5.390625 -14.890625 C 5.273438 -14.785156 5.21875 -14.535156 5.21875 -14.140625 L 5.21875 -8.578125 L 7.3125 -8.578125 C 8.375 -8.578125 9.054688 -8.757812 9.359375 -9.125 C 9.660156 -9.5 9.8125 -10.21875 9.8125 -11.28125 L 10.40625 -11.28125 L 10.40625 -5.140625 L 9.8125 -5.140625 C 9.8125 -6.191406 9.660156 -6.90625 9.359375 -7.28125 C 9.054688 -7.65625 8.375 -7.84375 7.3125 -7.84375 L 5.21875 -7.84375 L 5.21875 -1.640625 C 5.21875 -1.242188 5.273438 -0.988281 5.390625 -0.875 C 5.515625 -0.769531 5.835938 -0.71875 6.359375 -0.71875 L 9.453125 -0.71875 C 10.117188 -0.71875 10.695312 -0.757812 11.1875 -0.84375 C 11.675781 -0.925781 12.085938 -1.078125 12.421875 -1.296875 C 12.765625 -1.515625 13.050781 -1.75 13.28125 -2 C 13.507812 -2.25 13.703125 -2.597656 13.859375 -3.046875 C 14.023438 -3.492188 14.15625 -3.925781 14.25 -4.34375 C 14.34375 -4.757812 14.445312 -5.304688 14.5625 -5.984375 L 15.140625 -5.984375 L 14.15625 0 Z M 0.765625 0 "/></g></g></g><g fill="#ffffff" fill-opacity="1"><g transform="translate(431.237452, 185.076618)"><g><path d="M 3.6875 -1.9375 C 2.09375 -3.582031 1.296875 -5.582031 1.296875 -7.9375 C 1.296875 -10.289062 2.097656 -12.285156 3.703125 -13.921875 C 5.304688 -15.554688 7.195312 -16.375 9.375 -16.375 C 9.914062 -16.375 10.421875 -16.3125 10.890625 -16.1875 C 11.359375 -16.0625 11.773438 -15.875 12.140625 -15.625 C 12.515625 -15.382812 12.796875 -15.179688 12.984375 -15.015625 C 13.179688 -14.847656 13.410156 -14.632812 13.671875 -14.375 L 14.84375 -16.09375 C 14.957031 -16.28125 15.078125 -16.375 15.203125 -16.375 C 15.328125 -16.375 15.398438 -16.335938 15.421875 -16.265625 C 15.453125 -16.191406 15.46875 -16.039062 15.46875 -15.8125 L 15.46875 -10.3125 C 15.46875 -10.0625 15.453125 -9.90625 15.421875 -9.84375 C 15.390625 -9.78125 15.28125 -9.75 15.09375 -9.75 C 14.9375 -9.75 14.84375 -9.769531 14.8125 -9.8125 C 14.78125 -9.863281 14.75 -9.972656 14.71875 -10.140625 C 14.476562 -11.816406 13.890625 -13.148438 12.953125 -14.140625 C 12.023438 -15.140625 10.925781 -15.640625 9.65625 -15.640625 C 9.289062 -15.640625 8.898438 -15.597656 8.484375 -15.515625 C 8.078125 -15.429688 7.570312 -15.226562 6.96875 -14.90625 C 6.363281 -14.59375 5.832031 -14.175781 5.375 -13.65625 C 4.914062 -13.144531 4.519531 -12.390625 4.1875 -11.390625 C 3.863281 -10.398438 3.703125 -9.25 3.703125 -7.9375 C 3.703125 -6.632812 3.863281 -5.484375 4.1875 -4.484375 C 4.519531 -3.492188 4.921875 -2.738281 5.390625 -2.21875 C 5.859375 -1.695312 6.394531 -1.273438 7 -0.953125 C 7.601562 -0.628906 8.125 -0.421875 8.5625 -0.328125 C 9 -0.242188 9.410156 -0.203125 9.796875 -0.203125 C 10.054688 -0.203125 10.34375 -0.226562 10.65625 -0.28125 C 10.96875 -0.34375 11.351562 -0.457031 11.8125 -0.625 C 12.28125 -0.800781 12.660156 -1.09375 12.953125 -1.5 C 13.253906 -1.90625 13.40625 -2.410156 13.40625 -3.015625 L 13.40625 -4.5 C 13.40625 -4.957031 13.289062 -5.257812 13.0625 -5.40625 C 12.832031 -5.550781 12.222656 -5.625 11.234375 -5.625 L 10.5 -5.625 L 10.5 -6.34375 C 11.0625 -6.289062 12.304688 -6.265625 14.234375 -6.265625 C 14.398438 -6.265625 15.34375 -6.289062 17.0625 -6.34375 L 17.0625 -5.625 C 16.320312 -5.625 15.867188 -5.566406 15.703125 -5.453125 C 15.546875 -5.347656 15.46875 -5.066406 15.46875 -4.609375 L 15.46875 -0.5625 C 15.46875 -0.195312 15.398438 -0.015625 15.265625 -0.015625 C 15.140625 -0.015625 14.894531 -0.1875 14.53125 -0.53125 C 14.175781 -0.882812 13.921875 -1.195312 13.765625 -1.46875 C 13.390625 -0.8125 12.800781 -0.316406 12 0.015625 C 11.195312 0.347656 10.335938 0.515625 9.421875 0.515625 C 7.191406 0.515625 5.28125 -0.300781 3.6875 -1.9375 Z M 3.6875 -1.9375 "/></g></g></g><g fill="#ffffff" fill-opacity="1"><g transform="translate(449.427513, 185.076618)"><g><path d="M 0.75 0 L 0.75 -0.71875 C 2.125 -0.75 2.988281 -1.269531 3.34375 -2.28125 L 8.15625 -16.15625 C 8.21875 -16.34375 8.28125 -16.46875 8.34375 -16.53125 C 8.414062 -16.59375 8.535156 -16.625 8.703125 -16.625 C 8.796875 -16.625 8.867188 -16.613281 8.921875 -16.59375 C 8.984375 -16.582031 9.03125 -16.550781 9.0625 -16.5 C 9.101562 -16.445312 9.128906 -16.40625 9.140625 -16.375 C 9.160156 -16.34375 9.191406 -16.269531 9.234375 -16.15625 L 14.25 -1.640625 C 14.375 -1.253906 14.5625 -1.003906 14.8125 -0.890625 C 15.0625 -0.773438 15.535156 -0.71875 16.234375 -0.71875 L 16.640625 -0.71875 L 16.640625 0 C 15.671875 -0.0390625 14.660156 -0.0625 13.609375 -0.0625 C 11.929688 -0.0625 10.816406 -0.0390625 10.265625 0 L 10.265625 -0.71875 C 11.546875 -0.71875 12.1875 -0.953125 12.1875 -1.421875 C 12.1875 -1.453125 12.164062 -1.5625 12.125 -1.75 L 10.890625 -5.296875 L 5.15625 -5.296875 L 4.078125 -2.25 C 4.046875 -2.195312 4.03125 -2.082031 4.03125 -1.90625 C 4.03125 -1.582031 4.179688 -1.300781 4.484375 -1.0625 C 4.785156 -0.832031 5.21875 -0.71875 5.78125 -0.71875 L 5.78125 0 C 4.289062 -0.0390625 3.398438 -0.0625 3.109375 -0.0625 C 2.597656 -0.0625 1.8125 -0.0390625 0.75 0 Z M 5.40625 -6.015625 L 10.640625 -6.015625 L 8.015625 -13.5625 Z M 5.40625 -6.015625 "/></g></g></g><g fill="#ffffff" fill-opacity="1"><g transform="translate(466.835577, 185.076618)"><g><path d="M 0.765625 0 L 0.765625 -0.71875 L 1.328125 -0.71875 C 2.160156 -0.71875 2.671875 -0.785156 2.859375 -0.921875 C 3.054688 -1.066406 3.15625 -1.363281 3.15625 -1.8125 L 3.15625 -14.046875 C 3.15625 -14.492188 3.054688 -14.785156 2.859375 -14.921875 C 2.671875 -15.066406 2.160156 -15.140625 1.328125 -15.140625 L 0.765625 -15.140625 L 0.765625 -15.859375 C 1.316406 -15.816406 2.492188 -15.796875 4.296875 -15.796875 C 6.335938 -15.796875 7.640625 -15.816406 8.203125 -15.859375 L 8.203125 -15.140625 L 7.421875 -15.140625 C 6.710938 -15.140625 6.195312 -15.09375 5.875 -15 C 5.550781 -14.90625 5.359375 -14.796875 5.296875 -14.671875 C 5.242188 -14.546875 5.21875 -14.332031 5.21875 -14.03125 L 5.21875 -1.640625 C 5.21875 -1.242188 5.273438 -0.988281 5.390625 -0.875 C 5.515625 -0.769531 5.835938 -0.71875 6.359375 -0.71875 L 8.265625 -0.71875 C 9.046875 -0.71875 9.71875 -0.832031 10.28125 -1.0625 C 10.851562 -1.300781 11.289062 -1.566406 11.59375 -1.859375 C 11.894531 -2.148438 12.144531 -2.570312 12.34375 -3.125 C 12.550781 -3.6875 12.6875 -4.144531 12.75 -4.5 C 12.8125 -4.851562 12.875 -5.347656 12.9375 -5.984375 L 13.515625 -5.984375 L 12.875 0 Z M 0.765625 0 "/></g></g></g><g fill="#ffffff" fill-opacity="1"><g transform="translate(481.342297, 185.076618)"><g><path d="M 0.640625 0 L 0.640625 -0.71875 L 1.265625 -0.71875 C 2.128906 -0.71875 2.660156 -0.785156 2.859375 -0.921875 C 3.054688 -1.066406 3.15625 -1.363281 3.15625 -1.8125 L 3.15625 -14.046875 C 3.15625 -14.492188 3.050781 -14.785156 2.84375 -14.921875 C 2.644531 -15.066406 2.117188 -15.140625 1.265625 -15.140625 L 0.640625 -15.140625 L 0.640625 -15.859375 C 1.191406 -15.816406 2.378906 -15.796875 4.203125 -15.796875 C 6.015625 -15.796875 7.191406 -15.816406 7.734375 -15.859375 L 7.734375 -15.140625 L 7.125 -15.140625 C 6.257812 -15.140625 5.722656 -15.066406 5.515625 -14.921875 C 5.316406 -14.785156 5.21875 -14.492188 5.21875 -14.046875 L 5.21875 -1.8125 C 5.21875 -1.363281 5.316406 -1.066406 5.515625 -0.921875 C 5.722656 -0.785156 6.257812 -0.71875 7.125 -0.71875 L 7.734375 -0.71875 L 7.734375 0 C 7.191406 -0.0390625 6.007812 -0.0625 4.1875 -0.0625 C 2.375 -0.0625 1.191406 -0.0390625 0.640625 0 Z M 0.640625 0 "/></g></g></g><g fill="#ffffff" fill-opacity="1"><g transform="translate(489.717667, 185.076618)"><g><path d="M 1.296875 -0.046875 L 1.296875 -4.6875 C 1.296875 -4.863281 1.300781 -4.984375 1.3125 -5.046875 C 1.320312 -5.109375 1.347656 -5.160156 1.390625 -5.203125 C 1.441406 -5.242188 1.507812 -5.265625 1.59375 -5.265625 C 1.769531 -5.265625 1.863281 -5.1875 1.875 -5.03125 C 1.925781 -3.5 2.410156 -2.3125 3.328125 -1.46875 C 4.222656 -0.625 5.441406 -0.203125 6.984375 -0.203125 C 7.910156 -0.203125 8.660156 -0.535156 9.234375 -1.203125 C 9.804688 -1.867188 10.09375 -2.644531 10.09375 -3.53125 C 10.09375 -4.363281 9.851562 -5.078125 9.375 -5.671875 C 9.164062 -5.929688 8.9375 -6.144531 8.6875 -6.3125 C 8.4375 -6.488281 8.234375 -6.601562 8.078125 -6.65625 C 7.921875 -6.707031 7.695312 -6.769531 7.40625 -6.84375 C 5.488281 -7.3125 4.46875 -7.570312 4.34375 -7.625 C 3.425781 -7.925781 2.6875 -8.46875 2.125 -9.25 C 1.570312 -10.039062 1.296875 -10.914062 1.296875 -11.875 C 1.296875 -13.113281 1.734375 -14.171875 2.609375 -15.046875 C 3.484375 -15.929688 4.554688 -16.375 5.828125 -16.375 C 6.460938 -16.375 7.046875 -16.269531 7.578125 -16.0625 C 8.109375 -15.863281 8.484375 -15.671875 8.703125 -15.484375 C 8.921875 -15.304688 9.203125 -15.054688 9.546875 -14.734375 L 10.34375 -16.0625 C 10.46875 -16.269531 10.585938 -16.375 10.703125 -16.375 C 10.828125 -16.375 10.898438 -16.335938 10.921875 -16.265625 C 10.953125 -16.191406 10.96875 -16.039062 10.96875 -15.8125 L 10.96875 -11.140625 C 10.96875 -10.972656 10.960938 -10.859375 10.953125 -10.796875 C 10.941406 -10.734375 10.910156 -10.679688 10.859375 -10.640625 C 10.816406 -10.609375 10.75 -10.59375 10.65625 -10.59375 C 10.507812 -10.59375 10.414062 -10.679688 10.375 -10.859375 C 9.945312 -14.097656 8.4375 -15.71875 5.84375 -15.71875 C 4.96875 -15.71875 4.238281 -15.421875 3.65625 -14.828125 C 3.070312 -14.234375 2.78125 -13.515625 2.78125 -12.671875 C 2.78125 -11.992188 2.992188 -11.375 3.421875 -10.8125 C 3.847656 -10.257812 4.421875 -9.898438 5.140625 -9.734375 L 8.109375 -9.015625 C 9.097656 -8.773438 9.925781 -8.21875 10.59375 -7.34375 C 11.257812 -6.46875 11.59375 -5.457031 11.59375 -4.3125 C 11.59375 -3 11.160156 -1.863281 10.296875 -0.90625 C 9.441406 0.0390625 8.34375 0.515625 7 0.515625 C 6.039062 0.515625 5.191406 0.351562 4.453125 0.03125 C 3.710938 -0.28125 3.144531 -0.660156 2.75 -1.109375 C 2.4375 -0.597656 2.175781 -0.195312 1.96875 0.09375 L 1.90625 0.203125 C 1.78125 0.410156 1.660156 0.515625 1.546875 0.515625 C 1.429688 0.515625 1.359375 0.472656 1.328125 0.390625 C 1.304688 0.316406 1.296875 0.171875 1.296875 -0.046875 Z M 1.296875 -0.046875 "/></g></g></g><path stroke-linecap="butt" transform="matrix(0.756154, 0, 0, 0.75, 268.801367, 204.37856)" fill="none" stroke-linejoin="miter" d="M -0.000774841 0.500461 L 47.613769 0.500461 " stroke="#d6ba97" stroke-width="1" stroke-opacity="1" stroke-miterlimit="4"/><path stroke-linecap="butt" transform="matrix(0.756154, 0, 0, 0.75, 442.209794, 205.12856)" fill="none" stroke-linejoin="miter" d="M 0.00151205 0.500462 L 47.61089 0.500462 " stroke="#d6ba97" stroke-width="1" stroke-opacity="1" stroke-miterlimit="4"/><path fill="#d9d9d9" d="M 107.679688 247.742188 L 154.050781 247.742188 L 154.050781 244.535156 L 107.679688 244.535156 L 107.679688 247.742188 " fill-opacity="1" fill-rule="nonzero"/><path fill="#d9d9d9" d="M 67.019531 199.871094 C 67.0625 199.886719 67.109375 199.894531 67.152344 199.894531 C 67.296875 199.894531 67.433594 199.808594 67.488281 199.667969 L 83.433594 159.03125 L 99.484375 199.667969 C 99.558594 199.851562 99.769531 199.945312 99.953125 199.871094 C 100.140625 199.796875 100.230469 199.589844 100.15625 199.402344 L 83.769531 157.910156 C 83.714844 157.773438 83.582031 157.683594 83.433594 157.683594 C 83.285156 157.683594 83.152344 157.773438 83.097656 157.914062 L 66.816406 199.402344 C 66.742188 199.589844 66.835938 199.796875 67.019531 199.871094 Z M 68.90625 205.136719 L 70.914062 205.101562 C 70.914062 205.101562 72.023438 211.101562 75.722656 213.683594 C 75.722656 213.683594 71.367188 212.492188 68.90625 205.136719 Z M 101.554688 201.273438 C 101.058594 200.882812 100.355469 200.78125 99.714844 201.011719 C 98.746094 201.355469 98.203125 202.339844 97.894531 203.378906 C 97.746094 203.882812 97.285156 204.226562 96.761719 204.226562 L 70.105469 204.226562 C 69.582031 204.226562 69.117188 203.882812 68.96875 203.378906 C 68.664062 202.339844 68.117188 201.355469 67.148438 201.011719 C 66.511719 200.78125 65.808594 200.882812 65.3125 201.273438 C 64.867188 201.625 64.644531 202.167969 64.707031 202.765625 C 64.785156 203.480469 65.324219 204.105469 66.023438 204.28125 C 66.304688 204.351562 66.585938 204.183594 66.65625 203.902344 C 66.726562 203.621094 66.558594 203.339844 66.277344 203.269531 C 65.996094 203.199219 65.75 202.871094 65.742188 202.582031 C 65.738281 202.375 65.808594 202.210938 65.957031 202.09375 C 66.171875 201.925781 66.5 201.886719 66.796875 201.992188 C 67.359375 202.195312 67.808594 202.933594 68.070312 204.0625 L 68.070312 204.058594 L 68.089844 204.152344 C 68.09375 204.179688 68.101562 204.203125 68.105469 204.226562 L 68.316406 205.175781 C 70.109375 211.84375 76.195312 216.757812 83.433594 216.757812 C 90.671875 216.757812 96.757812 211.84375 98.550781 205.175781 L 98.757812 204.226562 C 98.765625 204.203125 98.769531 204.179688 98.777344 204.152344 L 98.796875 204.058594 L 98.796875 204.0625 C 99.058594 202.933594 99.507812 202.195312 100.066406 201.992188 C 100.367188 201.886719 100.695312 201.925781 100.90625 202.09375 C 101.054688 202.210938 101.128906 202.375 101.125 202.582031 C 101.117188 202.871094 100.871094 203.199219 100.589844 203.269531 C 100.308594 203.339844 100.136719 203.621094 100.207031 203.902344 C 100.28125 204.183594 100.5625 204.351562 100.84375 204.28125 C 101.539062 204.105469 102.082031 203.480469 102.15625 202.765625 C 102.21875 202.167969 102 201.625 101.554688 201.273438 " fill-opacity="1" fill-rule="nonzero"/><path fill="#d9d9d9" d="M 161.886719 199.871094 C 161.929688 199.886719 161.972656 199.894531 162.015625 199.894531 C 162.160156 199.894531 162.296875 199.808594 162.351562 199.667969 L 178.300781 159.03125 L 194.351562 199.667969 C 194.421875 199.851562 194.632812 199.945312 194.820312 199.871094 C 195.003906 199.796875 195.09375 199.589844 195.023438 199.402344 L 178.632812 157.910156 C 178.578125 157.773438 178.445312 157.683594 178.296875 157.683594 C 178.148438 157.683594 178.015625 157.773438 177.960938 157.914062 L 161.679688 199.402344 C 161.609375 199.589844 161.699219 199.796875 161.886719 199.871094 Z M 163.769531 205.136719 L 165.78125 205.101562 C 165.78125 205.101562 166.890625 211.101562 170.585938 213.683594 C 170.585938 213.683594 166.230469 212.492188 163.769531 205.136719 Z M 196.417969 201.273438 C 195.921875 200.882812 195.21875 200.78125 194.582031 201.011719 C 193.613281 201.355469 193.066406 202.339844 192.761719 203.378906 C 192.613281 203.882812 192.148438 204.226562 191.625 204.226562 L 164.96875 204.226562 C 164.445312 204.226562 163.984375 203.882812 163.835938 203.378906 C 163.527344 202.339844 162.984375 201.355469 162.015625 201.011719 C 161.375 200.78125 160.671875 200.882812 160.175781 201.273438 C 159.730469 201.625 159.511719 202.167969 159.574219 202.765625 C 159.648438 203.480469 160.191406 204.105469 160.886719 204.28125 C 161.167969 204.351562 161.449219 204.183594 161.523438 203.902344 C 161.589844 203.621094 161.421875 203.339844 161.140625 203.269531 C 160.859375 203.199219 160.613281 202.871094 160.605469 202.582031 C 160.601562 202.375 160.671875 202.210938 160.820312 202.09375 C 161.035156 201.925781 161.363281 201.886719 161.664062 201.992188 C 162.222656 202.195312 162.671875 202.933594 162.933594 204.0625 L 162.933594 204.058594 L 162.953125 204.152344 C 162.960938 204.179688 162.964844 204.203125 162.972656 204.226562 L 163.179688 205.175781 C 164.972656 211.84375 171.058594 216.757812 178.296875 216.757812 C 185.535156 216.757812 191.621094 211.84375 193.414062 205.175781 L 193.625 204.226562 C 193.628906 204.203125 193.636719 204.179688 193.640625 204.152344 L 193.660156 204.058594 L 193.660156 204.0625 C 193.921875 202.933594 194.371094 202.195312 194.933594 201.992188 C 195.230469 201.886719 195.558594 201.925781 195.773438 202.09375 C 195.921875 202.210938 195.992188 202.375 195.988281 202.582031 C 195.980469 202.871094 195.734375 203.199219 195.453125 203.269531 C 195.171875 203.339844 195.003906 203.621094 195.074219 203.902344 C 195.144531 204.183594 195.425781 204.351562 195.707031 204.28125 C 196.40625 204.105469 196.945312 203.480469 197.023438 202.765625 C 197.085938 202.167969 196.863281 201.625 196.417969 201.273438 " fill-opacity="1" fill-rule="nonzero"/><path fill="#d9d9d9" d="M 184.601562 147.566406 C 184.570312 147.410156 184.550781 147.25 184.507812 147.097656 C 184.488281 147.019531 184.46875 146.941406 184.445312 146.867188 L 184.414062 146.753906 C 184.402344 146.703125 184.429688 146.824219 184.386719 146.632812 L 184.378906 146.617188 L 184.367188 146.582031 C 184.328125 146.496094 184.289062 146.40625 184.253906 146.320312 C 184.222656 146.246094 184.195312 146.171875 184.164062 146.101562 C 184.132812 146.019531 184.097656 145.941406 184.0625 145.863281 C 183.996094 145.695312 183.921875 145.570312 183.847656 145.4375 L 183.734375 145.242188 C 183.695312 145.179688 183.648438 145.113281 183.605469 145.050781 C 183.441406 144.796875 183.230469 144.558594 183.019531 144.339844 C 182.585938 143.898438 182.070312 143.554688 181.5625 143.335938 C 181.058594 143.113281 180.5625 143.003906 180.109375 142.957031 C 179.65625 142.910156 179.25 142.933594 178.871094 142.96875 C 178.496094 143.007812 178.15625 143.089844 177.839844 143.171875 C 177.210938 143.347656 176.6875 143.558594 176.234375 143.785156 C 176.007812 143.898438 175.800781 144.011719 175.609375 144.121094 C 175.417969 144.230469 175.246094 144.339844 175.085938 144.445312 C 174.925781 144.550781 174.78125 144.648438 174.652344 144.742188 C 174.523438 144.839844 174.40625 144.925781 174.304688 145.007812 C 174.101562 145.164062 173.953125 145.300781 173.855469 145.390625 C 173.757812 145.480469 173.707031 145.523438 173.707031 145.523438 L 173.90625 145.9375 C 173.90625 145.9375 173.964844 145.910156 174.078125 145.859375 C 174.1875 145.808594 174.355469 145.734375 174.574219 145.648438 C 175.015625 145.46875 175.671875 145.226562 176.535156 145.027344 C 176.964844 144.929688 177.445312 144.847656 177.96875 144.808594 C 178.492188 144.78125 179.058594 144.792969 179.625 144.9375 C 180.183594 145.085938 180.738281 145.375 181.113281 145.871094 C 181.304688 146.117188 181.457031 146.410156 181.566406 146.722656 C 181.589844 146.800781 181.617188 146.871094 181.640625 146.957031 C 181.664062 147.046875 181.683594 147.140625 181.707031 147.230469 L 181.714844 147.265625 L 181.714844 147.277344 C 181.71875 147.277344 181.71875 147.285156 181.71875 147.285156 L 181.726562 147.351562 L 181.746094 147.480469 C 181.761719 147.5625 181.761719 147.652344 181.773438 147.738281 C 181.808594 148.4375 181.628906 149.1875 181.253906 149.863281 C 181.070312 150.195312 180.832031 150.523438 180.566406 150.800781 C 180.507812 150.871094 180.425781 150.945312 180.347656 151.019531 L 180.296875 151.066406 L 180.238281 151.117188 L 180.117188 151.214844 C 180.039062 151.28125 179.957031 151.347656 179.875 151.410156 C 179.789062 151.46875 179.707031 151.53125 179.621094 151.589844 C 179.453125 151.714844 179.265625 151.808594 179.082031 151.917969 C 178.992188 151.976562 178.894531 152.011719 178.796875 152.058594 C 178.703125 152.101562 178.609375 152.15625 178.507812 152.191406 C 178.308594 152.265625 178.109375 152.351562 177.898438 152.402344 C 177.792969 152.433594 177.691406 152.46875 177.585938 152.492188 C 177.480469 152.511719 177.371094 152.539062 177.261719 152.558594 C 176.832031 152.640625 176.386719 152.691406 175.933594 152.699219 C 175.480469 152.714844 175.015625 152.683594 174.550781 152.636719 C 173.625 152.535156 172.679688 152.328125 171.742188 152.050781 C 170.800781 151.78125 169.863281 151.449219 168.917969 151.085938 C 167.972656 150.730469 167.027344 150.339844 166.0625 149.96875 C 165.820312 149.875 165.578125 149.78125 165.332031 149.691406 C 165.089844 149.601562 164.835938 149.507812 164.59375 149.429688 L 164.21875 149.304688 L 163.851562 149.1875 C 163.601562 149.109375 163.355469 149.027344 163.105469 148.953125 C 162.113281 148.648438 161.109375 148.375 160.105469 148.117188 C 159.105469 147.859375 158.097656 147.628906 157.09375 147.421875 C 155.085938 147.019531 153.089844 146.714844 151.136719 146.5625 C 150.164062 146.476562 149.203125 146.433594 148.261719 146.421875 C 147.789062 146.425781 147.324219 146.421875 146.863281 146.441406 C 146.632812 146.449219 146.40625 146.457031 146.175781 146.464844 C 145.949219 146.480469 145.722656 146.496094 145.5 146.507812 C 145.097656 146.535156 144.703125 146.570312 144.3125 146.609375 C 139.433594 147.125 134.980469 143.679688 134.410156 138.808594 C 134.398438 138.699219 134.386719 138.585938 134.375 138.472656 L 135.144531 137.871094 C 136.601562 136.730469 136.867188 134.628906 135.738281 133.167969 L 130.511719 126.390625 L 125.28125 133.167969 C 124.152344 134.628906 124.417969 136.734375 125.875 137.871094 L 126.640625 138.472656 C 126.632812 138.585938 126.621094 138.699219 126.605469 138.808594 C 126.039062 143.679688 121.582031 147.125 116.707031 146.609375 C 116.316406 146.570312 115.917969 146.535156 115.519531 146.507812 C 115.292969 146.496094 115.066406 146.480469 114.839844 146.464844 C 114.613281 146.457031 114.386719 146.449219 114.15625 146.441406 C 113.695312 146.421875 113.230469 146.425781 112.757812 146.421875 C 111.816406 146.433594 110.855469 146.476562 109.878906 146.5625 C 107.929688 146.714844 105.933594 147.019531 103.925781 147.421875 C 102.921875 147.628906 101.914062 147.859375 100.910156 148.117188 C 99.910156 148.375 98.90625 148.648438 97.914062 148.953125 C 97.664062 149.027344 97.417969 149.109375 97.167969 149.1875 L 96.796875 149.304688 L 96.425781 149.429688 C 96.183594 149.507812 95.925781 149.601562 95.683594 149.691406 C 95.441406 149.78125 95.199219 149.875 94.957031 149.96875 C 93.988281 150.339844 93.042969 150.730469 92.101562 151.085938 C 91.15625 151.449219 90.214844 151.78125 89.277344 152.050781 C 88.335938 152.328125 87.394531 152.535156 86.464844 152.636719 C 86 152.683594 85.539062 152.714844 85.085938 152.699219 C 84.632812 152.691406 84.1875 152.640625 83.753906 152.558594 C 83.648438 152.539062 83.539062 152.511719 83.433594 152.492188 C 83.328125 152.46875 83.222656 152.433594 83.121094 152.402344 C 82.910156 152.351562 82.710938 152.265625 82.511719 152.191406 C 82.410156 152.15625 82.316406 152.101562 82.21875 152.058594 C 82.125 152.011719 82.027344 151.976562 81.9375 151.917969 C 81.753906 151.808594 81.566406 151.714844 81.398438 151.589844 C 81.3125 151.53125 81.226562 151.46875 81.140625 151.410156 C 81.0625 151.347656 80.984375 151.28125 80.902344 151.214844 L 80.78125 151.117188 L 80.722656 151.066406 L 80.671875 151.019531 C 80.59375 150.945312 80.507812 150.871094 80.449219 150.800781 C 80.1875 150.523438 79.945312 150.195312 79.761719 149.863281 C 79.390625 149.1875 79.210938 148.4375 79.25 147.738281 C 79.257812 147.652344 79.257812 147.5625 79.273438 147.480469 L 79.289062 147.351562 L 79.300781 147.285156 C 79.300781 147.285156 79.300781 147.277344 79.300781 147.277344 L 79.304688 147.265625 L 79.3125 147.230469 C 79.335938 147.140625 79.355469 147.046875 79.378906 146.957031 C 79.398438 146.871094 79.429688 146.800781 79.453125 146.722656 C 79.5625 146.410156 79.714844 146.117188 79.902344 145.871094 C 80.28125 145.375 80.835938 145.085938 81.394531 144.9375 C 81.957031 144.792969 82.527344 144.78125 83.050781 144.808594 C 83.574219 144.847656 84.054688 144.929688 84.484375 145.027344 C 85.34375 145.226562 86.003906 145.46875 86.445312 145.648438 C 86.664062 145.734375 86.832031 145.808594 86.945312 145.859375 C 87.054688 145.910156 87.113281 145.9375 87.113281 145.9375 L 87.3125 145.523438 C 87.3125 145.523438 87.261719 145.480469 87.164062 145.390625 C 87.066406 145.300781 86.917969 145.164062 86.710938 145.007812 C 86.609375 144.925781 86.496094 144.839844 86.367188 144.742188 C 86.238281 144.648438 86.09375 144.550781 85.933594 144.445312 C 85.773438 144.339844 85.601562 144.230469 85.410156 144.121094 C 85.21875 144.011719 85.007812 143.898438 84.785156 143.785156 C 84.332031 143.558594 83.804688 143.347656 83.179688 143.171875 C 82.863281 143.089844 82.523438 143.007812 82.144531 142.96875 C 81.769531 142.933594 81.363281 142.910156 80.90625 142.957031 C 80.457031 143.003906 79.960938 143.113281 79.453125 143.335938 C 78.949219 143.554688 78.433594 143.898438 78 144.339844 C 77.789062 144.558594 77.578125 144.796875 77.414062 145.050781 C 77.371094 145.113281 77.324219 145.179688 77.285156 145.242188 L 77.171875 145.4375 C 77.097656 145.570312 77.023438 145.695312 76.957031 145.863281 C 76.921875 145.941406 76.886719 146.019531 76.855469 146.101562 C 76.824219 146.171875 76.792969 146.246094 76.765625 146.320312 C 76.726562 146.40625 76.691406 146.496094 76.652344 146.582031 L 76.640625 146.617188 L 76.632812 146.632812 C 76.589844 146.824219 76.617188 146.703125 76.605469 146.753906 L 76.570312 146.867188 C 76.550781 146.941406 76.53125 147.019531 76.511719 147.097656 C 76.46875 147.25 76.445312 147.410156 76.417969 147.566406 C 76.3125 148.199219 76.320312 148.859375 76.410156 149.5 C 76.5 150.144531 76.679688 150.773438 76.941406 151.382812 C 77.074219 151.683594 77.21875 151.988281 77.398438 152.273438 C 77.484375 152.417969 77.574219 152.5625 77.675781 152.703125 C 77.726562 152.773438 77.773438 152.839844 77.828125 152.914062 L 78.023438 153.152344 L 78.199219 153.359375 L 78.300781 153.488281 L 78.328125 153.519531 L 78.339844 153.535156 C 78.375 153.566406 78.28125 153.484375 78.421875 153.613281 L 78.671875 153.863281 C 78.78125 153.972656 78.894531 154.085938 79.011719 154.195312 C 79.132812 154.300781 79.257812 154.40625 79.382812 154.507812 C 80.386719 155.351562 81.671875 155.988281 82.992188 156.339844 C 83.15625 156.394531 83.320312 156.421875 83.488281 156.460938 C 83.652344 156.496094 83.820312 156.539062 83.984375 156.5625 C 84.3125 156.613281 84.648438 156.664062 84.972656 156.6875 C 85.632812 156.75 86.269531 156.753906 86.902344 156.726562 C 87.210938 156.707031 87.527344 156.6875 87.828125 156.652344 C 88.136719 156.625 88.433594 156.582031 88.730469 156.535156 C 89.324219 156.441406 89.902344 156.328125 90.464844 156.199219 C 91.03125 156.0625 91.570312 155.910156 92.109375 155.757812 C 92.644531 155.597656 93.167969 155.425781 93.675781 155.253906 C 94.191406 155.085938 94.6875 154.902344 95.171875 154.726562 C 95.640625 154.554688 96.113281 154.382812 96.585938 154.210938 L 96.921875 154.089844 L 97.253906 153.972656 L 97.871094 153.765625 L 98.054688 153.703125 L 98.144531 153.675781 C 98.121094 153.683594 98.160156 153.671875 98.152344 153.675781 L 98.195312 153.660156 L 98.546875 153.554688 C 98.78125 153.480469 99.015625 153.40625 99.25 153.339844 C 100.179688 153.046875 101.117188 152.789062 102.046875 152.523438 C 102.976562 152.269531 103.902344 152.019531 104.824219 151.792969 C 106.664062 151.351562 108.472656 150.953125 110.226562 150.664062 C 110.667969 150.59375 111.101562 150.527344 111.535156 150.460938 C 111.75 150.425781 111.964844 150.402344 112.175781 150.375 C 112.390625 150.347656 112.605469 150.3125 112.816406 150.292969 C 113.660156 150.199219 114.492188 150.113281 115.296875 150.0625 C 115.398438 150.054688 115.5 150.046875 115.601562 150.039062 C 115.699219 150.035156 115.800781 150.03125 115.898438 150.023438 C 116.097656 150.015625 116.296875 150.007812 116.496094 150 C 116.886719 149.988281 117.273438 149.992188 117.65625 149.980469 C 118.417969 149.972656 119.160156 149.996094 119.871094 150.042969 C 120.050781 150.050781 120.222656 150.0625 120.398438 150.070312 C 120.574219 150.082031 120.746094 150.101562 120.917969 150.117188 C 121.089844 150.132812 121.257812 150.152344 121.425781 150.167969 C 121.589844 150.1875 121.753906 150.207031 121.917969 150.226562 C 122.082031 150.246094 122.242188 150.265625 122.402344 150.285156 C 122.5625 150.308594 122.71875 150.335938 122.875 150.359375 C 123.183594 150.410156 123.488281 150.460938 123.777344 150.519531 C 124.070312 150.578125 124.363281 150.621094 124.628906 150.691406 C 124.769531 150.722656 124.902344 150.753906 125.035156 150.785156 C 125.167969 150.816406 125.300781 150.84375 125.425781 150.875 C 125.558594 150.910156 125.683594 150.941406 125.808594 150.976562 C 126.53125 151.441406 126.964844 152.238281 126.964844 153.097656 L 126.964844 173.222656 C 126.964844 175.050781 126.582031 176.875 125.738281 178.5 C 125.351562 179.238281 125.132812 180.082031 125.132812 180.976562 C 125.132812 181.871094 125.351562 182.714844 125.738281 183.453125 C 126.582031 185.078125 126.964844 186.902344 126.964844 188.730469 L 126.964844 203.121094 C 126.964844 204.878906 126.59375 206.613281 125.875 208.21875 C 124.570312 211.132812 123.757812 215.257812 123.757812 219.828125 C 123.757812 222.238281 123.984375 224.519531 124.386719 226.5625 C 123.132812 227.152344 120.882812 228.425781 119.167969 230.601562 C 117.390625 232.859375 114.917969 234.480469 112.15625 235.289062 C 109.976562 235.929688 107.808594 237.140625 107.324219 239.433594 L 107.324219 241.855469 L 153.695312 241.855469 L 153.695312 239.433594 C 153.210938 237.148438 151.054688 235.9375 148.878906 235.292969 C 146.117188 234.480469 143.632812 232.867188 141.851562 230.601562 C 140.136719 228.425781 137.886719 227.152344 136.632812 226.5625 C 137.035156 224.519531 137.261719 222.238281 137.261719 219.828125 C 137.261719 215.257812 136.445312 211.132812 135.144531 208.21875 C 134.425781 206.613281 134.050781 204.878906 134.050781 203.121094 L 134.050781 188.730469 C 134.050781 186.902344 134.433594 185.078125 135.28125 183.457031 C 135.667969 182.714844 135.886719 181.871094 135.886719 180.976562 C 135.886719 180.082031 135.667969 179.238281 135.28125 178.5 C 134.433594 176.875 134.050781 175.050781 134.050781 173.222656 L 134.050781 153.097656 C 134.050781 152.238281 134.488281 151.441406 135.210938 150.976562 C 135.335938 150.941406 135.464844 150.910156 135.589844 150.875 C 135.71875 150.84375 135.851562 150.816406 135.984375 150.785156 C 136.117188 150.753906 136.25 150.722656 136.386719 150.691406 C 136.65625 150.621094 136.949219 150.578125 137.242188 150.519531 C 137.53125 150.460938 137.835938 150.410156 138.144531 150.359375 C 138.296875 150.335938 138.457031 150.308594 138.613281 150.285156 C 138.773438 150.265625 138.9375 150.246094 139.101562 150.226562 C 139.265625 150.207031 139.429688 150.1875 139.59375 150.167969 C 139.761719 150.152344 139.929688 150.132812 140.101562 150.117188 C 140.273438 150.101562 140.445312 150.082031 140.621094 150.070312 C 140.792969 150.0625 140.972656 150.050781 141.148438 150.042969 C 141.859375 149.996094 142.597656 149.972656 143.363281 149.980469 C 143.746094 149.992188 144.132812 149.988281 144.523438 150 C 144.722656 150.007812 144.917969 150.015625 145.117188 150.023438 C 145.21875 150.03125 145.316406 150.035156 145.417969 150.039062 C 145.519531 150.046875 145.621094 150.054688 145.722656 150.0625 C 146.527344 150.113281 147.359375 150.199219 148.203125 150.292969 C 148.414062 150.3125 148.628906 150.347656 148.839844 150.375 C 149.054688 150.402344 149.269531 150.425781 149.484375 150.460938 C 149.917969 150.527344 150.351562 150.59375 150.789062 150.664062 C 152.542969 150.953125 154.355469 151.351562 156.195312 151.792969 C 157.113281 152.019531 158.039062 152.269531 158.972656 152.523438 C 159.902344 152.789062 160.835938 153.046875 161.769531 153.339844 C 162.003906 153.40625 162.238281 153.480469 162.472656 153.554688 L 162.824219 153.660156 L 162.867188 153.675781 C 162.855469 153.671875 162.898438 153.683594 162.875 153.675781 L 162.960938 153.703125 L 163.144531 153.765625 L 163.765625 153.972656 L 164.09375 154.089844 L 164.433594 154.210938 C 164.90625 154.382812 165.378906 154.554688 165.847656 154.726562 C 166.332031 154.902344 166.832031 155.085938 167.339844 155.253906 C 167.851562 155.425781 168.375 155.597656 168.90625 155.757812 C 169.449219 155.910156 169.988281 156.0625 170.554688 156.199219 C 171.113281 156.328125 171.695312 156.441406 172.285156 156.535156 C 172.585938 156.582031 172.882812 156.625 173.191406 156.652344 C 173.492188 156.6875 173.808594 156.707031 174.117188 156.726562 C 174.746094 156.753906 175.386719 156.75 176.046875 156.6875 C 176.371094 156.664062 176.707031 156.613281 177.035156 156.5625 C 177.199219 156.539062 177.367188 156.496094 177.53125 156.460938 C 177.699219 156.421875 177.859375 156.394531 178.027344 156.339844 C 179.347656 155.988281 180.628906 155.351562 181.636719 154.507812 C 181.757812 154.40625 181.882812 154.300781 182.007812 154.195312 C 182.125 154.085938 182.238281 153.972656 182.347656 153.863281 L 182.597656 153.613281 C 182.734375 153.484375 182.644531 153.566406 182.675781 153.535156 L 182.71875 153.488281 L 182.820312 153.359375 L 182.996094 153.152344 L 183.191406 152.914062 C 183.246094 152.839844 183.292969 152.773438 183.34375 152.703125 C 183.441406 152.5625 183.535156 152.417969 183.621094 152.273438 C 183.800781 151.988281 183.945312 151.683594 184.078125 151.382812 C 184.335938 150.773438 184.519531 150.144531 184.609375 149.5 C 184.699219 148.859375 184.707031 148.199219 184.601562 147.566406 " fill-opacity="1" fill-rule="nonzero"/><g clip-path="url(#e56752e824)"><path fill="#d9d9d9" d="M 130.863281 262.484375 C 89.460938 262.484375 55.894531 228.917969 55.894531 187.511719 C 55.894531 146.109375 89.460938 112.542969 130.863281 112.542969 C 172.269531 112.542969 205.835938 146.109375 205.835938 187.511719 C 205.835938 228.917969 172.269531 262.484375 130.863281 262.484375 Z M 130.863281 106.515625 C 86.132812 106.515625 49.867188 142.78125 49.867188 187.511719 C 49.867188 232.246094 86.132812 268.507812 130.863281 268.507812 C 175.597656 268.507812 211.863281 232.246094 211.863281 187.511719 C 211.863281 142.78125 175.597656 106.515625 130.863281 106.515625 " fill-opacity="1" fill-rule="nonzero"/></g><g fill="#d6ba97" fill-opacity="1"><g transform="translate(310.14744, 207.031842)"><g><path d="M 0.0898438 0 L 0.496094 0 L 0.988281 -1.09375 L 4.367188 -1.09375 L 4.867188 0 L 5.261719 0 L 2.730469 -5.40625 L 2.625 -5.40625 Z M 1.132812 -1.390625 L 2.65625 -4.714844 L 2.699219 -4.714844 L 4.230469 -1.390625 Z M 1.132812 -1.390625 "/></g></g></g><g fill="#d6ba97" fill-opacity="1"><g transform="translate(316.82549, 207.031842)"><g><path d="M 0.609375 0 L 2.707031 0 C 4.183594 0 5.308594 -1.109375 5.308594 -2.660156 C 5.308594 -4.214844 4.183594 -5.324219 2.707031 -5.324219 L 0.609375 -5.324219 Z M 0.964844 -0.335938 L 0.964844 -4.996094 L 2.707031 -4.996094 C 3.96875 -4.996094 4.953125 -4.023438 4.953125 -2.660156 C 4.953125 -1.308594 3.96875 -0.335938 2.707031 -0.335938 Z M 0.964844 -0.335938 "/></g></g></g><g fill="#d6ba97" fill-opacity="1"><g transform="translate(323.88384, 207.031842)"><g><path d="M 2.617188 0.0898438 L 2.722656 0.0898438 L 5.253906 -5.324219 L 4.859375 -5.324219 L 2.691406 -0.59375 L 2.648438 -0.59375 L 0.488281 -5.324219 L 0.0898438 -5.324219 Z M 2.617188 0.0898438 "/></g></g></g><g fill="#d6ba97" fill-opacity="1"><g transform="translate(330.554287, 207.031842)"><g><path d="M 3.074219 0.0898438 C 4.609375 0.0898438 5.734375 -1.050781 5.734375 -2.65625 C 5.734375 -4.257812 4.609375 -5.40625 3.074219 -5.40625 C 1.542969 -5.40625 0.417969 -4.257812 0.417969 -2.65625 C 0.417969 -1.050781 1.542969 0.0898438 3.074219 0.0898438 Z M 3.074219 -0.242188 C 1.742188 -0.242188 0.769531 -1.246094 0.769531 -2.65625 C 0.769531 -4.0625 1.742188 -5.074219 3.074219 -5.074219 C 4.410156 -5.074219 5.386719 -4.0625 5.386719 -2.65625 C 5.386719 -1.246094 4.410156 -0.242188 3.074219 -0.242188 Z M 3.074219 -0.242188 "/></g></g></g><g fill="#d6ba97" fill-opacity="1"><g transform="translate(338.030967, 207.031842)"><g><path d="M 3.050781 0.0898438 C 4.410156 0.0898438 5.507812 -0.929688 5.582031 -2.472656 L 6.199219 -2.472656 L 6.199219 -2.785156 L 3.210938 -2.785156 L 3.210938 -2.472656 L 5.234375 -2.472656 C 5.15625 -1.164062 4.207031 -0.242188 3.050781 -0.242188 C 1.773438 -0.242188 0.769531 -1.179688 0.769531 -2.585938 C 0.769531 -3.957031 1.789062 -5.074219 3.125 -5.074219 C 3.910156 -5.074219 4.578125 -4.746094 4.9375 -4.351562 L 5.1875 -4.632812 C 4.792969 -5.050781 4.207031 -5.40625 3.125 -5.40625 C 1.589844 -5.40625 0.417969 -4.144531 0.417969 -2.585938 C 0.417969 -0.980469 1.574219 0.0898438 3.050781 0.0898438 Z M 3.050781 0.0898438 "/></g></g></g><g fill="#d6ba97" fill-opacity="1"><g transform="translate(345.773853, 207.031842)"><g><path d="M 0.0898438 0 L 0.496094 0 L 0.988281 -1.09375 L 4.367188 -1.09375 L 4.867188 0 L 5.261719 0 L 2.730469 -5.40625 L 2.625 -5.40625 Z M 1.132812 -1.390625 L 2.65625 -4.714844 L 2.699219 -4.714844 L 4.230469 -1.390625 Z M 1.132812 -1.390625 "/></g></g></g><g fill="#d6ba97" fill-opacity="1"><g transform="translate(352.451901, 207.031842)"><g><path d="M 0.609375 0 L 2.707031 0 C 4.183594 0 5.308594 -1.109375 5.308594 -2.660156 C 5.308594 -4.214844 4.183594 -5.324219 2.707031 -5.324219 L 0.609375 -5.324219 Z M 0.964844 -0.335938 L 0.964844 -4.996094 L 2.707031 -4.996094 C 3.96875 -4.996094 4.953125 -4.023438 4.953125 -2.660156 C 4.953125 -1.308594 3.96875 -0.335938 2.707031 -0.335938 Z M 0.964844 -0.335938 "/></g></g></g><g fill="#d6ba97" fill-opacity="1"><g transform="translate(359.510249, 207.031842)"><g><path d="M 3.074219 0.0898438 C 4.609375 0.0898438 5.734375 -1.050781 5.734375 -2.65625 C 5.734375 -4.257812 4.609375 -5.40625 3.074219 -5.40625 C 1.542969 -5.40625 0.417969 -4.257812 0.417969 -2.65625 C 0.417969 -1.050781 1.542969 0.0898438 3.074219 0.0898438 Z M 3.074219 -0.242188 C 1.742188 -0.242188 0.769531 -1.246094 0.769531 -2.65625 C 0.769531 -4.0625 1.742188 -5.074219 3.074219 -5.074219 C 4.410156 -5.074219 5.386719 -4.0625 5.386719 -2.65625 C 5.386719 -1.246094 4.410156 -0.242188 3.074219 -0.242188 Z M 3.074219 -0.242188 "/></g></g></g><g fill="#d6ba97" fill-opacity="1"><g transform="translate(366.986926, 207.031842)"><g><path d="M 2.472656 0.0898438 C 3.671875 0.0898438 4.402344 -0.515625 4.402344 -1.382812 C 4.402344 -2.152344 3.894531 -2.570312 2.523438 -2.851562 C 1.324219 -3.101562 0.90625 -3.421875 0.90625 -4 C 0.90625 -4.570312 1.445312 -5.082031 2.378906 -5.082031 C 3.148438 -5.082031 3.742188 -4.859375 4.105469 -4.65625 L 4.105469 -5.019531 C 3.726562 -5.21875 3.132812 -5.40625 2.402344 -5.40625 C 1.300781 -5.40625 0.539062 -4.792969 0.539062 -3.992188 C 0.539062 -3.1875 1.09375 -2.800781 2.402344 -2.53125 C 3.652344 -2.273438 4.039062 -1.945312 4.039062 -1.363281 C 4.039062 -0.699219 3.40625 -0.226562 2.496094 -0.226562 C 1.871094 -0.226562 1.027344 -0.402344 0.410156 -0.785156 L 0.328125 -0.449219 C 0.890625 -0.121094 1.863281 0.0898438 2.472656 0.0898438 Z M 2.472656 0.0898438 "/></g></g></g><g fill="#d6ba97" fill-opacity="1"><g transform="translate(373.102134, 207.031842)"><g/></g></g><g fill="#d6ba97" fill-opacity="1"><g transform="translate(376.479182, 207.031842)"><g><path d="M 0.0898438 0 L 0.496094 0 L 0.988281 -1.09375 L 4.367188 -1.09375 L 4.867188 0 L 5.261719 0 L 2.730469 -5.40625 L 2.625 -5.40625 Z M 1.132812 -1.390625 L 2.65625 -4.714844 L 2.699219 -4.714844 L 4.230469 -1.390625 Z M 1.132812 -1.390625 "/></g></g></g><g fill="#d6ba97" fill-opacity="1"><g transform="translate(383.157229, 207.031842)"><g><path d="M 2.472656 0.0898438 C 3.671875 0.0898438 4.402344 -0.515625 4.402344 -1.382812 C 4.402344 -2.152344 3.894531 -2.570312 2.523438 -2.851562 C 1.324219 -3.101562 0.90625 -3.421875 0.90625 -4 C 0.90625 -4.570312 1.445312 -5.082031 2.378906 -5.082031 C 3.148438 -5.082031 3.742188 -4.859375 4.105469 -4.65625 L 4.105469 -5.019531 C 3.726562 -5.21875 3.132812 -5.40625 2.402344 -5.40625 C 1.300781 -5.40625 0.539062 -4.792969 0.539062 -3.992188 C 0.539062 -3.1875 1.09375 -2.800781 2.402344 -2.53125 C 3.652344 -2.273438 4.039062 -1.945312 4.039062 -1.363281 C 4.039062 -0.699219 3.40625 -0.226562 2.496094 -0.226562 C 1.871094 -0.226562 1.027344 -0.402344 0.410156 -0.785156 L 0.328125 -0.449219 C 0.890625 -0.121094 1.863281 0.0898438 2.472656 0.0898438 Z M 2.472656 0.0898438 "/></g></g></g><g fill="#d6ba97" fill-opacity="1"><g transform="translate(389.272437, 207.031842)"><g><path d="M 2.472656 0.0898438 C 3.671875 0.0898438 4.402344 -0.515625 4.402344 -1.382812 C 4.402344 -2.152344 3.894531 -2.570312 2.523438 -2.851562 C 1.324219 -3.101562 0.90625 -3.421875 0.90625 -4 C 0.90625 -4.570312 1.445312 -5.082031 2.378906 -5.082031 C 3.148438 -5.082031 3.742188 -4.859375 4.105469 -4.65625 L 4.105469 -5.019531 C 3.726562 -5.21875 3.132812 -5.40625 2.402344 -5.40625 C 1.300781 -5.40625 0.539062 -4.792969 0.539062 -3.992188 C 0.539062 -3.1875 1.09375 -2.800781 2.402344 -2.53125 C 3.652344 -2.273438 4.039062 -1.945312 4.039062 -1.363281 C 4.039062 -0.699219 3.40625 -0.226562 2.496094 -0.226562 C 1.871094 -0.226562 1.027344 -0.402344 0.410156 -0.785156 L 0.328125 -0.449219 C 0.890625 -0.121094 1.863281 0.0898438 2.472656 0.0898438 Z M 2.472656 0.0898438 "/></g></g></g><g fill="#d6ba97" fill-opacity="1"><g transform="translate(395.387645, 207.031842)"><g><path d="M 3.074219 0.0898438 C 4.609375 0.0898438 5.734375 -1.050781 5.734375 -2.65625 C 5.734375 -4.257812 4.609375 -5.40625 3.074219 -5.40625 C 1.542969 -5.40625 0.417969 -4.257812 0.417969 -2.65625 C 0.417969 -1.050781 1.542969 0.0898438 3.074219 0.0898438 Z M 3.074219 -0.242188 C 1.742188 -0.242188 0.769531 -1.246094 0.769531 -2.65625 C 0.769531 -4.0625 1.742188 -5.074219 3.074219 -5.074219 C 4.410156 -5.074219 5.386719 -4.0625 5.386719 -2.65625 C 5.386719 -1.246094 4.410156 -0.242188 3.074219 -0.242188 Z M 3.074219 -0.242188 "/></g></g></g><g fill="#d6ba97" fill-opacity="1"><g transform="translate(402.864323, 207.031842)"><g><path d="M 3.316406 0.0898438 C 4.023438 0.0898438 4.640625 -0.113281 5.125 -0.472656 L 5.125 -0.859375 C 4.675781 -0.480469 4.023438 -0.242188 3.316406 -0.242188 C 1.832031 -0.242188 0.769531 -1.1875 0.769531 -2.617188 C 0.769531 -4.015625 1.824219 -5.074219 3.308594 -5.074219 C 3.886719 -5.074219 4.382812 -4.921875 4.800781 -4.65625 L 4.84375 -5.050781 C 4.410156 -5.277344 3.871094 -5.40625 3.316406 -5.40625 C 1.628906 -5.40625 0.417969 -4.222656 0.417969 -2.617188 C 0.417969 -0.996094 1.621094 0.0898438 3.316406 0.0898438 Z M 3.316406 0.0898438 "/></g></g></g><g fill="#d6ba97" fill-opacity="1"><g transform="translate(409.527157, 207.031842)"><g><path d="M 0.609375 0 L 0.964844 0 L 0.964844 -5.324219 L 0.609375 -5.324219 Z M 0.609375 0 "/></g></g></g><g fill="#d6ba97" fill-opacity="1"><g transform="translate(412.425032, 207.031842)"><g><path d="M 0.0898438 0 L 0.496094 0 L 0.988281 -1.09375 L 4.367188 -1.09375 L 4.867188 0 L 5.261719 0 L 2.730469 -5.40625 L 2.625 -5.40625 Z M 1.132812 -1.390625 L 2.65625 -4.714844 L 2.699219 -4.714844 L 4.230469 -1.390625 Z M 1.132812 -1.390625 "/></g></g></g><g fill="#d6ba97" fill-opacity="1"><g transform="translate(419.10308, 207.031842)"><g><path d="M 0.609375 0 L 2.707031 0 C 4.183594 0 5.308594 -1.109375 5.308594 -2.660156 C 5.308594 -4.214844 4.183594 -5.324219 2.707031 -5.324219 L 0.609375 -5.324219 Z M 0.964844 -0.335938 L 0.964844 -4.996094 L 2.707031 -4.996094 C 3.96875 -4.996094 4.953125 -4.023438 4.953125 -2.660156 C 4.953125 -1.308594 3.96875 -0.335938 2.707031 -0.335938 Z M 0.964844 -0.335938 "/></g></g></g><g fill="#d6ba97" fill-opacity="1"><g transform="translate(426.161428, 207.031842)"><g><path d="M 3.074219 0.0898438 C 4.609375 0.0898438 5.734375 -1.050781 5.734375 -2.65625 C 5.734375 -4.257812 4.609375 -5.40625 3.074219 -5.40625 C 1.542969 -5.40625 0.417969 -4.257812 0.417969 -2.65625 C 0.417969 -1.050781 1.542969 0.0898438 3.074219 0.0898438 Z M 3.074219 -0.242188 C 1.742188 -0.242188 0.769531 -1.246094 0.769531 -2.65625 C 0.769531 -4.0625 1.742188 -5.074219 3.074219 -5.074219 C 4.410156 -5.074219 5.386719 -4.0625 5.386719 -2.65625 C 5.386719 -1.246094 4.410156 -0.242188 3.074219 -0.242188 Z M 3.074219 -0.242188 "/></g></g></g><g fill="#d6ba97" fill-opacity="1"><g transform="translate(433.638106, 207.031842)"><g><path d="M 2.472656 0.0898438 C 3.671875 0.0898438 4.402344 -0.515625 4.402344 -1.382812 C 4.402344 -2.152344 3.894531 -2.570312 2.523438 -2.851562 C 1.324219 -3.101562 0.90625 -3.421875 0.90625 -4 C 0.90625 -4.570312 1.445312 -5.082031 2.378906 -5.082031 C 3.148438 -5.082031 3.742188 -4.859375 4.105469 -4.65625 L 4.105469 -5.019531 C 3.726562 -5.21875 3.132812 -5.40625 2.402344 -5.40625 C 1.300781 -5.40625 0.539062 -4.792969 0.539062 -3.992188 C 0.539062 -3.1875 1.09375 -2.800781 2.402344 -2.53125 C 3.652344 -2.273438 4.039062 -1.945312 4.039062 -1.363281 C 4.039062 -0.699219 3.40625 -0.226562 2.496094 -0.226562 C 1.871094 -0.226562 1.027344 -0.402344 0.410156 -0.785156 L 0.328125 -0.449219 C 0.890625 -0.121094 1.863281 0.0898438 2.472656 0.0898438 Z M 2.472656 0.0898438 "/></g></g></g></svg>