<svg xmlns="http://www.w3.org/2000/svg" xmlns:xlink="http://www.w3.org/1999/xlink" width="500" zoomAndPan="magnify" viewBox="0 0 375 374.999991" height="500" preserveAspectRatio="xMidYMid meet" version="1.0"><defs><clipPath id="41b81339b2"><path d="M 106.308594 106.308594 L 269.058594 106.308594 L 269.058594 269.058594 L 106.308594 269.058594 Z M 106.308594 106.308594 " clip-rule="nonzero"/></clipPath></defs><rect x="-37.5" width="450" fill="#ffffff" y="-37.499999" height="449.999989" fill-opacity="1"/><rect x="-37.5" width="450" fill="#000000" y="-37.499999" height="449.999989" fill-opacity="1"/><path fill="#d9d9d9" d="M 164.375 248.171875 L 210.957031 248.171875 L 210.957031 244.953125 L 164.375 244.953125 L 164.375 248.171875 " fill-opacity="1" fill-rule="nonzero"/><path fill="#d9d9d9" d="M 123.527344 200.082031 C 123.570312 200.097656 123.613281 200.105469 123.660156 200.105469 C 123.804688 200.105469 123.941406 200.019531 123.996094 199.878906 L 140.015625 159.050781 L 156.144531 199.878906 C 156.214844 200.0625 156.425781 200.15625 156.613281 200.082031 C 156.800781 200.007812 156.890625 199.796875 156.816406 199.609375 L 140.351562 157.929688 C 140.296875 157.789062 140.164062 157.699219 140.015625 157.699219 C 139.867188 157.699219 139.730469 157.789062 139.679688 157.929688 L 123.320312 199.613281 C 123.25 199.800781 123.339844 200.007812 123.527344 200.082031 Z M 125.421875 205.371094 L 127.4375 205.335938 C 127.4375 205.335938 128.554688 211.363281 132.269531 213.960938 C 132.269531 213.960938 127.890625 212.761719 125.421875 205.371094 Z M 158.21875 201.492188 C 157.722656 201.101562 157.015625 200.996094 156.375 201.226562 C 155.402344 201.574219 154.851562 202.5625 154.546875 203.609375 C 154.394531 204.113281 153.929688 204.460938 153.402344 204.460938 L 126.628906 204.460938 C 126.097656 204.460938 125.632812 204.113281 125.484375 203.609375 C 125.179688 202.5625 124.628906 201.574219 123.65625 201.226562 C 123.015625 200.996094 122.308594 201.101562 121.808594 201.492188 C 121.363281 201.84375 121.140625 202.390625 121.203125 202.992188 C 121.28125 203.710938 121.824219 204.335938 122.523438 204.511719 C 122.808594 204.582031 123.089844 204.414062 123.160156 204.132812 C 123.234375 203.851562 123.0625 203.566406 122.777344 203.496094 C 122.496094 203.425781 122.25 203.097656 122.242188 202.804688 C 122.238281 202.597656 122.3125 202.433594 122.460938 202.316406 C 122.671875 202.148438 123.003906 202.105469 123.304688 202.214844 C 123.867188 202.414062 124.316406 203.160156 124.578125 204.289062 L 124.601562 204.382812 C 124.605469 204.410156 124.613281 204.433594 124.617188 204.460938 L 124.828125 205.410156 C 126.628906 212.109375 132.746094 217.046875 140.015625 217.046875 C 147.285156 217.046875 153.398438 212.109375 155.203125 205.410156 L 155.414062 204.460938 C 155.417969 204.433594 155.421875 204.410156 155.429688 204.382812 L 155.449219 204.289062 C 155.714844 203.160156 156.164062 202.414062 156.726562 202.214844 C 157.027344 202.105469 157.355469 202.148438 157.570312 202.316406 C 157.71875 202.433594 157.792969 202.597656 157.789062 202.804688 C 157.78125 203.097656 157.535156 203.425781 157.25 203.496094 C 156.96875 203.566406 156.796875 203.851562 156.867188 204.132812 C 156.941406 204.414062 157.222656 204.582031 157.503906 204.511719 C 158.207031 204.335938 158.75 203.710938 158.824219 202.992188 C 158.890625 202.390625 158.667969 201.84375 158.21875 201.492188 " fill-opacity="1" fill-rule="nonzero"/><path fill="#d9d9d9" d="M 218.832031 200.082031 C 218.875 200.097656 218.917969 200.105469 218.964844 200.105469 C 219.109375 200.105469 219.246094 200.019531 219.300781 199.878906 L 235.320312 159.050781 L 251.445312 199.878906 C 251.519531 200.0625 251.730469 200.15625 251.917969 200.082031 C 252.101562 200.007812 252.195312 199.796875 252.121094 199.609375 L 235.65625 157.929688 C 235.601562 157.789062 235.46875 157.699219 235.320312 157.699219 L 235.316406 157.699219 C 235.167969 157.699219 235.035156 157.789062 234.980469 157.929688 L 218.625 199.613281 C 218.550781 199.800781 218.644531 200.007812 218.832031 200.082031 Z M 220.726562 205.371094 L 222.742188 205.335938 C 222.742188 205.335938 223.859375 211.363281 227.574219 213.960938 C 227.574219 213.960938 223.195312 212.761719 220.726562 205.371094 Z M 253.523438 201.492188 C 253.027344 201.101562 252.316406 200.996094 251.679688 201.226562 C 250.703125 201.574219 250.15625 202.5625 249.847656 203.609375 C 249.699219 204.113281 249.234375 204.460938 248.707031 204.460938 L 221.929688 204.460938 C 221.402344 204.460938 220.9375 204.113281 220.789062 203.609375 C 220.480469 202.5625 219.933594 201.574219 218.960938 201.226562 C 218.320312 200.996094 217.613281 201.101562 217.113281 201.492188 C 216.664062 201.84375 216.445312 202.390625 216.507812 202.992188 C 216.585938 203.710938 217.128906 204.335938 217.828125 204.511719 C 218.109375 204.582031 218.394531 204.414062 218.464844 204.132812 C 218.535156 203.851562 218.363281 203.566406 218.082031 203.496094 C 217.800781 203.425781 217.554688 203.097656 217.546875 202.804688 C 217.539062 202.597656 217.613281 202.433594 217.761719 202.316406 C 217.976562 202.148438 218.308594 202.105469 218.609375 202.214844 C 219.171875 202.414062 219.621094 203.160156 219.882812 204.289062 L 219.902344 204.382812 C 219.910156 204.410156 219.914062 204.433594 219.921875 204.460938 L 220.128906 205.410156 C 221.933594 212.109375 228.046875 217.046875 235.320312 217.046875 C 242.589844 217.046875 248.703125 212.109375 250.507812 205.410156 L 250.714844 204.460938 C 250.722656 204.433594 250.726562 204.410156 250.734375 204.382812 L 250.753906 204.289062 C 251.015625 203.160156 251.464844 202.414062 252.03125 202.214844 C 252.328125 202.105469 252.660156 202.148438 252.875 202.316406 C 253.023438 202.433594 253.097656 202.597656 253.089844 202.804688 C 253.085938 203.097656 252.835938 203.425781 252.554688 203.496094 C 252.273438 203.566406 252.101562 203.851562 252.171875 204.132812 C 252.242188 204.414062 252.527344 204.582031 252.808594 204.511719 C 253.511719 204.335938 254.054688 203.710938 254.128906 202.992188 C 254.195312 202.390625 253.972656 201.84375 253.523438 201.492188 " fill-opacity="1" fill-rule="nonzero"/><path fill="#d9d9d9" d="M 241.652344 147.535156 C 241.621094 147.375 241.597656 147.21875 241.558594 147.0625 C 241.539062 146.988281 241.515625 146.910156 241.496094 146.832031 L 241.464844 146.71875 C 241.453125 146.667969 241.480469 146.789062 241.4375 146.597656 L 241.429688 146.582031 L 241.414062 146.546875 C 241.375 146.457031 241.339844 146.371094 241.300781 146.28125 C 241.273438 146.207031 241.242188 146.132812 241.214844 146.0625 C 241.179688 145.980469 241.144531 145.902344 241.109375 145.824219 C 241.042969 145.65625 240.96875 145.53125 240.894531 145.398438 L 240.78125 145.203125 C 240.742188 145.136719 240.695312 145.070312 240.652344 145.007812 C 240.484375 144.753906 240.277344 144.511719 240.0625 144.292969 C 239.628906 143.851562 239.109375 143.507812 238.601562 143.285156 C 238.089844 143.0625 237.59375 142.949219 237.140625 142.90625 C 236.683594 142.855469 236.273438 142.878906 235.894531 142.917969 C 235.515625 142.953125 235.175781 143.035156 234.859375 143.121094 C 234.226562 143.296875 233.699219 143.511719 233.246094 143.738281 C 233.019531 143.851562 232.8125 143.960938 232.617188 144.074219 C 232.425781 144.183594 232.253906 144.292969 232.09375 144.398438 C 231.933594 144.503906 231.789062 144.601562 231.65625 144.699219 C 231.527344 144.796875 231.410156 144.882812 231.308594 144.964844 C 231.101562 145.121094 230.957031 145.257812 230.855469 145.347656 C 230.757812 145.4375 230.707031 145.484375 230.707031 145.484375 L 230.90625 145.898438 C 230.90625 145.898438 230.964844 145.871094 231.078125 145.820312 C 231.191406 145.769531 231.355469 145.695312 231.578125 145.605469 C 232.023438 145.425781 232.683594 145.183594 233.546875 144.984375 C 233.980469 144.886719 234.464844 144.800781 234.988281 144.765625 C 235.511719 144.734375 236.085938 144.75 236.652344 144.894531 C 237.210938 145.042969 237.769531 145.332031 238.148438 145.832031 C 238.339844 146.078125 238.492188 146.375 238.601562 146.6875 C 238.628906 146.765625 238.65625 146.835938 238.679688 146.921875 C 238.699219 147.015625 238.722656 147.105469 238.742188 147.199219 L 238.75 147.234375 L 238.753906 147.242188 C 238.753906 147.246094 238.757812 147.253906 238.757812 147.253906 L 238.765625 147.320312 L 238.785156 147.445312 C 238.800781 147.53125 238.800781 147.621094 238.808594 147.707031 C 238.847656 148.410156 238.664062 149.164062 238.289062 149.839844 C 238.105469 150.179688 237.863281 150.503906 237.601562 150.785156 C 237.539062 150.851562 237.457031 150.929688 237.378906 151.003906 L 237.328125 151.050781 L 237.265625 151.101562 L 237.144531 151.199219 C 237.066406 151.265625 236.984375 151.332031 236.90625 151.398438 C 236.820312 151.457031 236.734375 151.515625 236.648438 151.578125 C 236.480469 151.703125 236.289062 151.796875 236.105469 151.90625 C 236.019531 151.964844 235.917969 152 235.820312 152.050781 C 235.726562 152.09375 235.632812 152.144531 235.53125 152.179688 C 235.328125 152.257812 235.128906 152.339844 234.917969 152.394531 C 234.8125 152.421875 234.710938 152.460938 234.601562 152.484375 C 234.496094 152.503906 234.386719 152.53125 234.28125 152.550781 C 233.847656 152.632812 233.398438 152.683594 232.941406 152.691406 C 232.488281 152.707031 232.023438 152.679688 231.554688 152.628906 C 230.621094 152.523438 229.675781 152.320312 228.734375 152.042969 C 227.789062 151.769531 226.84375 151.433594 225.894531 151.074219 C 224.949219 150.710938 223.996094 150.320312 223.027344 149.945312 C 222.785156 149.851562 222.539062 149.761719 222.296875 149.667969 C 222.050781 149.582031 221.792969 149.488281 221.550781 149.40625 L 221.175781 149.28125 L 220.804688 149.164062 C 220.554688 149.085938 220.308594 149.003906 220.058594 148.929688 C 219.058594 148.625 218.050781 148.347656 217.042969 148.085938 C 216.039062 147.832031 215.027344 147.601562 214.015625 147.390625 C 212 146.988281 209.992188 146.679688 208.035156 146.523438 C 207.054688 146.441406 206.089844 146.398438 205.144531 146.386719 C 204.671875 146.390625 204.203125 146.382812 203.738281 146.40625 C 203.507812 146.414062 203.277344 146.421875 203.050781 146.429688 C 202.820312 146.445312 202.59375 146.457031 202.371094 146.472656 C 201.964844 146.5 201.566406 146.535156 201.175781 146.574219 C 196.277344 147.09375 191.800781 143.628906 191.230469 138.734375 C 191.214844 138.625 191.203125 138.511719 191.195312 138.398438 L 191.964844 137.796875 C 193.429688 136.652344 193.695312 134.539062 192.5625 133.066406 L 187.308594 126.257812 L 182.058594 133.066406 C 180.921875 134.539062 181.1875 136.652344 182.652344 137.796875 L 183.425781 138.398438 C 183.414062 138.511719 183.402344 138.625 183.390625 138.734375 C 182.816406 143.628906 178.34375 147.09375 173.445312 146.574219 C 173.050781 146.535156 172.652344 146.5 172.25 146.472656 C 172.023438 146.457031 171.796875 146.445312 171.570312 146.429688 C 171.339844 146.421875 171.109375 146.414062 170.878906 146.40625 C 170.417969 146.382812 169.949219 146.390625 169.476562 146.386719 C 168.53125 146.398438 167.5625 146.441406 166.585938 146.523438 C 164.625 146.679688 162.621094 146.988281 160.601562 147.390625 C 159.59375 147.601562 158.582031 147.832031 157.574219 148.085938 C 156.566406 148.347656 155.558594 148.625 154.5625 148.929688 C 154.3125 149.003906 154.0625 149.085938 153.816406 149.164062 L 153.441406 149.28125 L 153.066406 149.40625 C 152.824219 149.488281 152.566406 149.582031 152.324219 149.667969 C 152.078125 149.761719 151.835938 149.851562 151.59375 149.945312 C 150.621094 150.320312 149.671875 150.710938 148.722656 151.074219 C 147.773438 151.433594 146.828125 151.769531 145.886719 152.042969 C 144.941406 152.320312 143.996094 152.523438 143.0625 152.628906 C 142.597656 152.679688 142.132812 152.707031 141.675781 152.691406 C 141.21875 152.683594 140.773438 152.632812 140.339844 152.550781 C 140.230469 152.53125 140.125 152.503906 140.015625 152.484375 C 139.910156 152.460938 139.804688 152.421875 139.699219 152.394531 C 139.488281 152.339844 139.289062 152.257812 139.089844 152.179688 C 138.988281 152.144531 138.894531 152.09375 138.796875 152.050781 C 138.699219 152 138.601562 151.964844 138.511719 151.90625 C 138.328125 151.796875 138.140625 151.703125 137.972656 151.578125 C 137.886719 151.515625 137.800781 151.457031 137.714844 151.398438 C 137.632812 151.332031 137.554688 151.265625 137.472656 151.199219 L 137.351562 151.101562 L 137.292969 151.050781 L 137.242188 151.003906 C 137.160156 150.929688 137.078125 150.851562 137.019531 150.785156 C 136.753906 150.503906 136.511719 150.179688 136.328125 149.839844 C 135.953125 149.164062 135.773438 148.410156 135.8125 147.707031 C 135.820312 147.621094 135.820312 147.53125 135.835938 147.445312 L 135.855469 147.320312 L 135.863281 147.253906 C 135.863281 147.253906 135.867188 147.246094 135.867188 147.242188 L 135.867188 147.234375 L 135.875 147.199219 C 135.898438 147.105469 135.917969 147.015625 135.941406 146.921875 C 135.964844 146.835938 135.992188 146.765625 136.015625 146.6875 C 136.125 146.375 136.28125 146.078125 136.46875 145.832031 C 136.851562 145.332031 137.40625 145.042969 137.96875 144.894531 C 138.535156 144.75 139.105469 144.734375 139.628906 144.765625 C 140.15625 144.800781 140.640625 144.886719 141.070312 144.984375 C 141.9375 145.183594 142.597656 145.425781 143.039062 145.605469 C 143.261719 145.695312 143.429688 145.769531 143.542969 145.820312 C 143.652344 145.871094 143.710938 145.898438 143.710938 145.898438 L 143.914062 145.484375 C 143.914062 145.484375 143.863281 145.4375 143.761719 145.347656 C 143.664062 145.257812 143.515625 145.121094 143.308594 144.964844 C 143.207031 144.882812 143.089844 144.796875 142.960938 144.699219 C 142.832031 144.601562 142.6875 144.503906 142.527344 144.398438 C 142.367188 144.292969 142.191406 144.183594 142 144.074219 C 141.808594 143.960938 141.597656 143.851562 141.371094 143.738281 C 140.917969 143.511719 140.390625 143.296875 139.761719 143.121094 C 139.441406 143.035156 139.101562 142.953125 138.722656 142.917969 C 138.34375 142.878906 137.933594 142.855469 137.476562 142.90625 C 137.023438 142.949219 136.527344 143.0625 136.019531 143.285156 C 135.511719 143.507812 134.992188 143.851562 134.558594 144.292969 C 134.34375 144.511719 134.132812 144.753906 133.964844 145.007812 C 133.925781 145.070312 133.878906 145.136719 133.835938 145.203125 L 133.726562 145.398438 C 133.652344 145.53125 133.578125 145.65625 133.507812 145.824219 C 133.472656 145.902344 133.441406 145.980469 133.40625 146.0625 C 133.375 146.132812 133.34375 146.207031 133.316406 146.28125 C 133.277344 146.371094 133.242188 146.457031 133.203125 146.546875 L 133.191406 146.582031 L 133.183594 146.597656 C 133.136719 146.789062 133.167969 146.667969 133.15625 146.71875 L 133.121094 146.832031 C 133.101562 146.910156 133.082031 146.988281 133.0625 147.0625 C 133.019531 147.21875 132.996094 147.375 132.96875 147.535156 C 132.859375 148.171875 132.867188 148.832031 132.957031 149.476562 C 133.050781 150.125 133.230469 150.757812 133.492188 151.371094 C 133.625 151.671875 133.773438 151.976562 133.953125 152.265625 C 134.039062 152.410156 134.132812 152.554688 134.230469 152.695312 C 134.28125 152.765625 134.328125 152.832031 134.382812 152.90625 L 134.582031 153.148438 L 134.757812 153.355469 L 134.859375 153.484375 L 134.886719 153.515625 L 134.898438 153.53125 C 134.933594 153.5625 134.839844 153.480469 134.980469 153.609375 L 135.0625 153.695312 L 135.230469 153.863281 C 135.34375 153.972656 135.457031 154.085938 135.574219 154.195312 C 135.695312 154.300781 135.820312 154.40625 135.949219 154.511719 C 136.957031 155.359375 138.246094 155.996094 139.570312 156.351562 C 139.738281 156.402344 139.902344 156.433594 140.070312 156.472656 C 140.234375 156.507812 140.40625 156.546875 140.570312 156.574219 C 140.898438 156.625 141.234375 156.675781 141.5625 156.699219 C 142.222656 156.761719 142.867188 156.765625 143.5 156.738281 C 143.8125 156.71875 144.128906 156.699219 144.429688 156.664062 C 144.738281 156.636719 145.039062 156.59375 145.339844 156.546875 C 145.933594 156.453125 146.515625 156.339844 147.078125 156.207031 C 147.648438 156.070312 148.191406 155.917969 148.734375 155.761719 C 149.269531 155.601562 149.796875 155.429688 150.308594 155.257812 C 150.820312 155.089844 151.320312 154.90625 151.808594 154.730469 C 152.277344 154.558594 152.753906 154.382812 153.226562 154.210938 L 153.566406 154.089844 L 153.898438 153.972656 L 154.519531 153.761719 L 154.707031 153.703125 L 154.792969 153.671875 C 154.769531 153.679688 154.8125 153.667969 154.800781 153.671875 L 154.847656 153.65625 L 155.199219 153.550781 C 155.433594 153.476562 155.667969 153.402344 155.902344 153.335938 C 156.839844 153.042969 157.78125 152.78125 158.714844 152.511719 C 159.652344 152.257812 160.582031 152.007812 161.507812 151.78125 C 163.355469 151.335938 165.171875 150.9375 166.933594 150.648438 C 167.375 150.574219 167.8125 150.507812 168.246094 150.445312 C 168.464844 150.410156 168.679688 150.386719 168.890625 150.359375 C 169.105469 150.332031 169.320312 150.296875 169.53125 150.273438 C 170.382812 150.179688 171.214844 150.09375 172.027344 150.042969 C 172.128906 150.035156 172.230469 150.027344 172.332031 150.019531 C 172.433594 150.015625 172.53125 150.011719 172.632812 150.003906 C 172.832031 149.996094 173.03125 149.988281 173.230469 149.980469 C 173.625 149.96875 174.011719 149.972656 174.398438 149.960938 C 175.164062 149.953125 175.90625 149.976562 176.621094 150.019531 C 176.800781 150.03125 176.976562 150.042969 177.152344 150.050781 C 177.328125 150.0625 177.5 150.082031 177.671875 150.097656 C 177.84375 150.113281 178.015625 150.132812 178.183594 150.148438 C 178.347656 150.171875 178.511719 150.191406 178.679688 150.207031 C 178.84375 150.226562 179.007812 150.25 179.167969 150.265625 C 179.324219 150.292969 179.484375 150.316406 179.640625 150.34375 C 179.949219 150.394531 180.253906 150.441406 180.546875 150.5 C 180.839844 150.558594 181.132812 150.601562 181.402344 150.675781 C 181.542969 150.707031 181.675781 150.738281 181.808594 150.769531 C 181.941406 150.800781 182.074219 150.828125 182.203125 150.855469 C 182.332031 150.894531 182.460938 150.925781 182.585938 150.960938 C 183.3125 151.425781 183.75 152.230469 183.75 153.09375 L 183.75 173.308594 C 183.75 175.148438 183.363281 176.980469 182.515625 178.609375 C 182.125 179.355469 181.90625 180.203125 181.90625 181.101562 C 181.90625 182 182.125 182.84375 182.515625 183.589844 C 183.363281 185.21875 183.75 187.050781 183.75 188.890625 L 183.75 203.347656 C 183.75 205.113281 183.375 206.855469 182.652344 208.46875 C 181.34375 211.394531 180.527344 215.539062 180.527344 220.132812 C 180.527344 222.550781 180.753906 224.84375 181.160156 226.898438 C 179.898438 227.488281 177.636719 228.769531 175.914062 230.953125 C 174.128906 233.222656 171.644531 234.851562 168.871094 235.664062 C 166.679688 236.308594 164.503906 237.527344 164.015625 239.828125 L 164.015625 242.261719 L 210.601562 242.261719 L 210.601562 239.828125 C 210.117188 237.53125 207.949219 236.316406 205.765625 235.667969 C 202.988281 234.851562 200.496094 233.230469 198.703125 230.953125 C 196.980469 228.769531 194.71875 227.488281 193.460938 226.898438 C 193.863281 224.84375 194.09375 222.550781 194.09375 220.132812 C 194.09375 215.539062 193.273438 211.394531 191.964844 208.46875 C 191.242188 206.855469 190.867188 205.113281 190.867188 203.347656 L 190.867188 188.890625 C 190.867188 187.050781 191.253906 185.21875 192.105469 183.589844 C 192.492188 182.847656 192.710938 182 192.710938 181.101562 C 192.710938 180.203125 192.492188 179.355469 192.101562 178.609375 C 191.253906 176.980469 190.867188 175.148438 190.867188 173.308594 L 190.867188 153.09375 C 190.867188 152.230469 191.308594 151.425781 192.03125 150.960938 C 192.160156 150.925781 192.285156 150.894531 192.414062 150.855469 C 192.542969 150.828125 192.675781 150.800781 192.808594 150.769531 C 192.941406 150.738281 193.078125 150.707031 193.214844 150.675781 C 193.484375 150.601562 193.777344 150.558594 194.070312 150.5 C 194.367188 150.441406 194.667969 150.394531 194.980469 150.34375 C 195.136719 150.316406 195.292969 150.292969 195.453125 150.265625 C 195.613281 150.25 195.777344 150.226562 195.941406 150.207031 C 196.105469 150.191406 196.269531 150.171875 196.4375 150.148438 C 196.605469 150.132812 196.773438 150.113281 196.945312 150.097656 C 197.117188 150.082031 197.289062 150.0625 197.464844 150.050781 C 197.640625 150.042969 197.820312 150.03125 198 150.019531 C 198.710938 149.976562 199.457031 149.953125 200.222656 149.960938 C 200.605469 149.972656 200.996094 149.96875 201.390625 149.980469 C 201.585938 149.988281 201.785156 149.996094 201.984375 150.003906 C 202.085938 150.011719 202.1875 150.015625 202.289062 150.019531 C 202.386719 150.027344 202.492188 150.035156 202.59375 150.042969 C 203.402344 150.09375 204.238281 150.179688 205.085938 150.273438 C 205.296875 150.296875 205.511719 150.332031 205.726562 150.359375 C 205.941406 150.386719 206.15625 150.410156 206.371094 150.445312 C 206.808594 150.507812 207.242188 150.574219 207.683594 150.648438 C 209.445312 150.9375 211.265625 151.335938 213.113281 151.78125 C 214.039062 152.007812 214.96875 152.257812 215.902344 152.511719 C 216.835938 152.78125 217.777344 153.042969 218.714844 153.335938 C 218.949219 153.402344 219.183594 153.476562 219.421875 153.550781 L 219.773438 153.65625 L 219.816406 153.671875 C 219.808594 153.667969 219.847656 153.679688 219.824219 153.671875 L 219.914062 153.703125 L 220.097656 153.761719 L 220.71875 153.972656 L 221.050781 154.089844 L 221.390625 154.210938 C 221.867188 154.382812 222.339844 154.558594 222.8125 154.730469 C 223.300781 154.90625 223.796875 155.089844 224.3125 155.257812 C 224.824219 155.429688 225.351562 155.601562 225.886719 155.761719 C 226.429688 155.917969 226.972656 156.070312 227.539062 156.207031 C 228.101562 156.339844 228.6875 156.453125 229.28125 156.546875 C 229.582031 156.59375 229.878906 156.636719 230.1875 156.664062 C 230.492188 156.699219 230.808594 156.71875 231.121094 156.738281 C 231.753906 156.765625 232.394531 156.761719 233.058594 156.699219 C 233.382812 156.675781 233.71875 156.625 234.050781 156.574219 C 234.214844 156.546875 234.386719 156.507812 234.550781 156.472656 C 234.714844 156.433594 234.878906 156.402344 235.046875 156.351562 C 236.371094 155.996094 237.664062 155.359375 238.671875 154.511719 C 238.796875 154.40625 238.921875 154.300781 239.046875 154.195312 C 239.164062 154.085938 239.277344 153.972656 239.390625 153.863281 L 239.554688 153.695312 L 239.636719 153.609375 C 239.777344 153.480469 239.683594 153.5625 239.71875 153.53125 L 239.757812 153.484375 L 239.863281 153.355469 L 240.039062 153.148438 L 240.234375 152.90625 C 240.292969 152.832031 240.335938 152.765625 240.386719 152.695312 C 240.488281 152.554688 240.578125 152.410156 240.667969 152.265625 C 240.847656 151.976562 240.992188 151.671875 241.125 151.371094 C 241.386719 150.757812 241.570312 150.125 241.660156 149.476562 C 241.75 148.832031 241.757812 148.171875 241.652344 147.535156 " fill-opacity="1" fill-rule="nonzero"/><g clip-path="url(#41b81339b2)"><path fill="#d9d9d9" d="M 187.667969 262.984375 C 146.070312 262.984375 112.347656 229.265625 112.347656 187.667969 C 112.347656 146.070312 146.070312 112.347656 187.667969 112.347656 C 229.265625 112.347656 262.984375 146.070312 262.984375 187.667969 C 262.984375 229.265625 229.265625 262.984375 187.667969 262.984375 Z M 187.667969 106.296875 C 142.726562 106.296875 106.296875 142.726562 106.296875 187.667969 C 106.296875 232.605469 142.726562 269.039062 187.667969 269.039062 C 232.605469 269.039062 269.039062 232.605469 269.039062 187.667969 C 269.039062 142.726562 232.605469 106.296875 187.667969 106.296875 " fill-opacity="1" fill-rule="nonzero"/></g></svg>